SplineFontDB: 3.0
FontName: Experiment-Tamil
FullName: Experiment-Tamil
FamilyName: Experiemnt-Tamil
Weight: Regular
Copyright: 
Version: 
ItalicAngle: 0
UnderlinePosition: -99
UnderlineWidth: 23
Ascent: 750
Descent: 250
InvalidEm: 0
LayerCount: 2
Layer: 0 0 "Back" 1
Layer: 1 0 "Fore" 0
PreferredKerning: 4
XUID: [1021 779 -1439063335 605102]
StyleMap: 0x0040
FSType: 0
OS2Version: 3
OS2_WeightWidthSlopeOnly: 0
OS2_UseTypoMetrics: 0
CreationTime: 1316601550
ModificationTime: 1476034153
PfmFamily: 17
TTFWeight: 400
TTFWidth: 5
LineGap: 0
VLineGap: 0
Panose: 2 0 6 0 0 0 0 0 0 0
OS2TypoAscent: 1367
OS2TypoAOffset: 0
OS2TypoDescent: -633
OS2TypoDOffset: 0
OS2TypoLinegap: 20
OS2WinAscent: 846
OS2WinAOffset: 0
OS2WinDescent: 354
OS2WinDOffset: 0
HheadAscent: 846
HheadAOffset: 0
HheadDescent: -371
HheadDOffset: 0
OS2SubXSize: 841
OS2SubYSize: 780
OS2SubXOff: 0
OS2SubYOff: 240
OS2SupXSize: 841
OS2SupYSize: 780
OS2SupXOff: 0
OS2SupYOff: 601
OS2StrikeYSize: 60
OS2StrikeYPos: 300
OS2CapHeight: -1
OS2XHeight: -1
OS2Vendor: 'ACE '
OS2CodePages: 00000001.00000000
OS2UnicodeRanges: 80108003.00002042.00000000.00000000
Lookup: 4 0 0 "'akhn' Akhand lookup 0" { "'akhn' Akhand lookup 0 subtable"  } ['akhn' ('taml' <'dflt' > 'tml2' <'dflt' > ) ]
Lookup: 4 0 0 "'abvs' Above Base Substitutions lookup 1" { "'abvs' Above Base Substitutions lookup 1 subtable"  } ['abvs' ('taml' <'dflt' > 'tml2' <'dflt' > ) ]
Lookup: 6 0 0 "'abvs' Above Base Substitutions lookup 2" { "'abvs' Above Base Substitutions lookup 2 subtable"  } ['abvs' ('taml' <'dflt' > 'tml2' <'dflt' > ) ]
Lookup: 4 0 0 "'psts' Post Base Substitutions lookup 3" { "'psts' Post Base Substitutions lookup 3 subtable"  } ['psts' ('taml' <'dflt' > 'tml2' <'dflt' > ) ]
Lookup: 4 0 0 "'psts' Post Base Substitutions lookup 4" { "'psts' Post Base Substitutions lookup 4 subtable"  } ['psts' ('taml' <'dflt' > 'tml2' <'dflt' > ) ]

StartChar: tml_Visarga
Encoding: 2 2947 1
GlifName: tml_V_isarga
Width: 775
VWidth: 30
Flags: HMW
LayerCount: 2
Fore
SplineSet
504.840820312 125.598632812 m 4
 504.840820312 85.4949194027 533.645662007 55.1943359375 583.025390625 55.1943359375 c 4
 629.205425613 55.1943359375 654.038085938 93.9135830966 654.038085938 131.25 c 4
 654.038085938 174.933117525 625.38046875 205.741210938 578.982421875 205.741210938 c 4
 543.008390348 205.741210938 504.840820312 176.814008182 504.840820312 125.598632812 c 4
464.939453125 117.2109375 m 4
 464.939453125 195.965268515 525.439288304 245.512695312 588.546875 245.512695312 c 4
 663.301098424 245.512695312 710.58984375 189.356224938 710.58984375 124.642578125 c 4
 710.58984375 63.053886637 672.173041802 2.9921875 588.111328125 2.9921875 c 4
 510.615690104 2.9921875 464.939453125 54.103774258 464.939453125 117.2109375 c 4
104.840820312 125.598632812 m 4
 104.840820312 85.4949194027 133.645662007 55.1943359375 183.025390625 55.1943359375 c 4
 229.205425613 55.1943359375 254.038085938 93.9135830966 254.038085938 131.25 c 4
 254.038085938 174.933117525 225.38046875 205.741210938 178.982421875 205.741210938 c 4
 143.008390348 205.741210938 104.840820312 176.814008182 104.840820312 125.598632812 c 4
64.939453125 117.2109375 m 4
 64.939453125 195.965268515 125.439288304 245.512695312 188.546875 245.512695312 c 4
 263.301098424 245.512695312 310.58984375 189.356224938 310.58984375 124.642578125 c 4
 310.58984375 63.053886637 272.173041802 2.9921875 188.111328125 2.9921875 c 4
 110.615690104 2.9921875 64.939453125 54.103774258 64.939453125 117.2109375 c 4
294.840820312 485.598632812 m 4
 294.840820312 445.494919403 323.645662007 415.194335938 373.025390625 415.194335938 c 4
 419.205425613 415.194335938 444.038085938 453.913583097 444.038085938 491.25 c 4
 444.038085938 534.933117525 415.38046875 565.741210938 368.982421875 565.741210938 c 4
 333.008390348 565.741210938 294.840820312 536.814008182 294.840820312 485.598632812 c 4
254.939453125 477.2109375 m 4
 254.939453125 555.965268515 315.439288304 605.512695312 378.546875 605.512695312 c 4
 453.301098424 605.512695312 500.58984375 549.356224938 500.58984375 484.642578125 c 4
 500.58984375 423.053886637 462.173041802 362.9921875 378.111328125 362.9921875 c 4
 300.615690104 362.9921875 254.939453125 414.103774258 254.939453125 477.2109375 c 4
EndSplineSet
EndChar

StartChar: tml_A
Encoding: 3 2949 2
GlifName: tml_A_
Width: 1254
VWidth: 0
Flags: HMW
LayerCount: 2
Fore
SplineSet
1067 -178 m 1
 1069.33432129 -115.116706035 1071.80727446 -68.6097594812 1074 11 c 1
 1074 554 l 1
 1099.76269531 556.639648438 1149.421875 561.139648438 1164 561 c 1
 1164 -170 l 1
 1134.95683594 -174.466796875 1098.77674186 -177.713867188 1067 -178 c 1
65 44 m 0
 63.988896343 120.572385419 131.470703125 157.276367188 215 157 c 0
 354.900390625 157.120117188 967.087890625 155.921875 1084 174 c 1
 1080 103 l 1
 225 103 l 2
 172.419921875 103.428710938 127.768554688 90.08984375 128 48 c 0
 128.387695312 -22.4970703125 270.102539062 -80 447 -80 c 0
 707.017578125 -80 823 82.2582826896 823 266 c 0
 823 445.141354616 704.762695312 511.34375 604 512 c 0
 489.3671875 512.719822843 424.742957293 450.467618844 423 375 c 0
 421.956632366 329.823637274 457.261136502 297.938118256 505 298 c 0
 545.232504401 298.048765122 571.235172142 326.480225427 572 370 c 0
 573.317382812 443.685180664 498.786827739 471.121480439 442 477 c 1
 489 505 l 1
 549.825505247 500.79367198 645 461.302837054 645 365 c 0
 645 301.019553456 597.059464928 234.354037972 509 234 c 0
 427.405549422 233.711443345 366.903565656 289.367776208 368 370 c 0
 369.48828125 484.294921875 470.762432189 571.058960848 609 572 c 0
 755.737666189 572.998902767 910 469.524172936 910 253 c 0
 910 68.8502096933 764.748046875 -139 451 -139 c 0
 194.157226562 -139 66.1736234388 -44.8802504797 65 44 c 0
EndSplineSet
Colour: ffffff
EndChar

StartChar: tml_Aa
Encoding: 4 2950 3
GlifName: tml_A_a
Width: 1531
VWidth: 0
Flags: HMW
LayerCount: 2
Fore
SplineSet
714 -256.4765625 m 0
 714.547851562 -175.34765625 793.382211363 -142.03362015 882 -140.982421875 c 0
 911.63738949 -140.757740673 944.340588826 -144.104175567 971 -151 c 1
 972.90789474 -173.042557285 966.375 -187.435087019 956 -199 c 1
 937.276113869 -191.620679846 906.703997461 -188.310198824 881 -188.526367188 c 0
 819.155821742 -189.418990689 765 -202.337890625 765 -249 c 0
 765 -308.193359375 905.481445312 -347.458984376 1046 -346.868164062 c 0
 1297.98046875 -345.526367188 1380.59277344 -217.161132812 1381 -87 c 0
 1381.21846957 -17.1709447591 1345.89746094 23.7451171875 1290 24 c 0
 1230.02944306 24.2734554301 1159.23535156 -17.5810546875 1155 -110 c 1
 1132 -52 l 1
 1135.0546875 24.408203125 1221.21875 91.212890625 1309 91 c 0
 1405.29199219 90.7607421875 1481 26.736328125 1481 -85 c 0
 1481 -288.879882812 1285.09765625 -401.732421875 1048 -404.15234375 c 0
 877.1796875 -405.583007812 713.215820312 -354.926757812 714 -256.4765625 c 0
EndSplineSet
Refer: 2 2949 N 1 0 0 1 0 0 2
Colour: ffffff
EndChar

StartChar: tml_I
Encoding: 5 2951 4
GlifName: tml_I_
Width: 1182
VWidth: 0
Flags: HMW
LayerCount: 2
Back
SplineSet
180 -106 m 4
 178.00390625 -170.856445312 227.814453125 -214.618164062 311 -215 c 4
 566.403320312 -216.0859375 856 -0.0146484375 856 244 c 4
 856 393.032226562 717.715820312 483 624 483 c 4
 512.909179688 483 423.176757812 423.764648438 424 321 c 4
 424.559570312 259.723632812 473.731445312 214.807617188 552 216 c 4
 629.755859375 217.423828125 691.059570312 260.526367188 690 336 c 4
 689.338867188 378.647460938 637.985351562 417.57421875 555 446 c 5
 518 426 l 5
 579.490234375 404.506835938 615 366.987304688 615 332 c 4
 615 299.688476562 585.740234375 265.938476562 542 266 c 4
 502.454101562 266.064453125 472.288085938 301.182617188 474 334 c 4
 477.453125 398.560546875 550.727539062 426.165039062 610 433 c 5
 704.692382812 433.543945312 770.81640625 328.004882812 767 231 c 4
 759.064453125 48.453125 545.850585938 -166 341 -166 c 4
 292.6953125 -166 236.536132812 -140.143554688 236 -97 c 4
 234.325195312 27.765625 422.602539062 77 574 77 c 4
 673.853515625 77 838.891601562 41.6123046875 838 -67 c 4
 837.60546875 -117.274414062 775.9765625 -151.133789062 722 -149 c 4
 446.014648438 -140.5625 246 85.6171875 246 316 c 4
 246 492.029296875 392.94140625 614 612 614 c 4
 835.408203125 614 979.140625 450.412109375 975 229 c 5
 975 -197 l 5
 1030 -193 l 5
 1030 268 l 6
 1030 508.12890625 883.77734375 701 624 701 c 4
 366.444335938 701 189.002929688 532.0625 194 289 c 4
 199.35546875 49.78515625 435.663085938 -215 741 -215 c 4
 829.553710938 -215 928.3984375 -154.684570312 925 -69 c 4
 921.077148438 29.9208984375 797.458007812 123 570 123 c 4
 391.493164062 123 186.071289062 56.8408203125 180 -106 c 4
EndSplineSet
Fore
SplineSet
90 -156 m 4
 88.0458984375 -260.860351562 176.71484375 -304.666992188 272 -305 c 4
 582.592773438 -306.111328125 806 -2.08203125 806 222 c 4
 806 403.458007812 685.083007812 513 546 513 c 4
 426.043945312 513 356.118164062 427.286132812 357 341 c 4
 357.728515625 272.264648438 411.197265625 210.522460938 497 212 c 4
 574.76171875 213.399414062 635.69921875 263.944335938 635 352 c 4
 634.451171875 420.588867188 592.911132812 460.713867188 523 480 c 5
 506 460 l 5
 535.17578125 444.09765625 563 407.63671875 563 360 c 4
 563 323.771484375 532.538085938 285.9296875 487 286 c 4
 446.872070312 286.061523438 418.754882812 310.046875 418 351 c 4
 416.796875 416.283203125 474.400390625 452.4296875 536 451 c 5
 645.16796875 451.672851562 721.8046875 358.17578125 717 201 c 4
 711.5234375 21.8330078125 567.4453125 -245 278 -245 c 4
 194.815429688 -245 145.400390625 -212.856445312 145 -150 c 4
 144.233398438 -27.060546875 314.1015625 51 516 51 c 4
 683.911132812 51 845.747070312 -36.146484375 845 -147 c 4
 844.66796875 -195.470703125 812.588867188 -234.116210938 729 -234 c 4
 420.40234375 -233.575195312 197 73.306640625 197 306 c 4
 197 553.958007812 357.280273438 671 581 671 c 4
 890.719726562 671 1025.63574219 470.4453125 1021 199 c 5
 1021 3 l 5
 1019.74804688 -45.2138671875 1016.46777344 -107.28515625 1014 -165 c 5
 1082 -165 l 5
 1082 288 l 6
 1082 540.850585938 913.959960938 765 608 765 c 4
 307.578125 765 131.561523438 572.083984375 136 297 c 4
 140.946289062 -6.3408203125 406.892578125 -305 723 -305 c 4
 879.81640625 -305 938.83984375 -223.465820312 937 -146 c 4
 932.829101562 27.921875 689.677734375 105 517 105 c 4
 339.73828125 105 93.4560546875 30.806640625 90 -156 c 4
EndSplineSet
Colour: ffffff
EndChar

StartChar: tml_Ii
Encoding: 6 2952 5
GlifName: tml_I_i
Width: 844
VWidth: 0
Flags: HMW
LayerCount: 2
Fore
SplineSet
90 0 m 1
 90 0 98 136 97 370 c 0
 96.6962890625 440.999023438 94.5771484375 502.514648438 92 558 c 1
 229.815429688 558.265625 602.483398438 558.47265625 756 568 c 1
 761.4296875 557.666992188 768.404296875 528.333007812 770 511 c 1
 729.09375 511.266601562 600.400390625 510.958984375 557 511 c 1
 557 0 l 1
 526.455078125 -0.12890625 494.869140625 -0.1416015625 469 0 c 1
 471 370 l 2
 471.70703125 433.681640625 472.791015625 466.51171875 472 511 c 1
 372.202148438 511.69140625 207.405273438 511.171875 154.607421875 511 c 1
 154.98828125 458.611328125 155 416.990234375 156 364 c 0
 159 205 156 0 156 0 c 1
 90 0 l 1
643.697265625 280.405273438 m 0
 643.697265625 311.177734375 667.942382812 335.422851562 698.71484375 335.422851562 c 0
 729.487304688 335.422851562 752.732421875 311.177734375 752.732421875 280.405273438 c 0
 752.732421875 249.6328125 729.487304688 225.387695312 698.71484375 225.387695312 c 0
 667.942382812 225.387695312 643.697265625 249.6328125 643.697265625 280.405273438 c 0
256.415039062 288.797851562 m 0
 256.415039062 316.44140625 280.66015625 338.219726562 311.432617188 338.219726562 c 0
 342.205078125 338.219726562 366.450195312 313.974609375 366.450195312 283.202148438 c 0
 366.450195312 252.4296875 342.205078125 228.184570312 311.432617188 228.184570312 c 0
 280.66015625 228.184570312 256.415039062 254.896484375 256.415039062 288.797851562 c 0
EndSplineSet
EndChar

StartChar: tml_U
Encoding: 7 2953 6
GlifName: tml_U_
Width: 1058
VWidth: 0
Flags: HMW
LayerCount: 2
Fore
SplineSet
87.560546875 70 m 4
 86.986328125 32.833984375 106.560546875 0 146 0 c 6
 819 0 l 6
 862.196289062 0 982.286132812 0.2666015625 1023 0 c 5
 1022.40429688 21 1015.4296875 54.6904296875 1009 67 c 5
 869.95703125 57.47265625 738.672851562 55.7861328125 652 56 c 6
 151 57 l 5
 151 57 146.57421875 64.97265625 146.614257812 78 c 4
 146.692382812 100.576171875 166.845703125 129 215 129 c 6
 336 129 l 6
 495.692382812 129 591.708007812 216.55078125 587 373 c 4
 582.723632812 522.15234375 458.96484375 601.936523438 328 601 c 4
 189.72265625 599.965820312 98.3173828125 501.305664062 97 389 c 4
 95.8935546875 294.293945312 162.95703125 233.583984375 247 234 c 4
 341.084960938 234.439453125 384 296.23046875 384 364 c 4
 384 432.415039062 329.0859375 479.885742188 265 479.948242188 c 4
 218.45703125 479.993164062 159.716796875 447.774414062 132 380 c 5
 145 332 l 5
 164.1015625 387.87890625 202.4140625 423.516601562 248 422.82421875 c 4
 286.499023438 422.330078125 311.338867188 394.04296875 311 364 c 4
 310.720703125 331.34765625 285.943359375 295.030273438 239 295 c 4
 178.565429688 294.96875 139.1875 338.875976562 140 387 c 4
 141.286132812 476.95703125 214.318359375 550.506835938 314 551 c 4
 433.965820312 551.581054688 495.538085938 466.360351562 496 366 c 4
 496.469726562 279.28125 452.435546875 184 331 184 c 6
 237 184 l 6
 192.409179688 184 156.813476562 175.717773438 133.000976562 158.2109375 c 4
 102.916015625 135.782226562 88.1220703125 102.5234375 87.560546875 70 c 4
EndSplineSet
EndChar

StartChar: tml_Uu
Encoding: 8 2954 7
GlifName: tml_U_u
Width: 1663
VWidth: 0
Flags: HMW
LayerCount: 2
Fore
SplineSet
653.845703125 330.877929688 m 0
 654.197473663 492.631105224 764.915070107 583.444335938 912.34375 583.444335938 c 0
 1023.78925615 583.444335938 1121.15958213 510 1150.93554688 426.814453125 c 1
 1106.89355469 323.999023438 l 1
 1092.34468414 441.798257478 1017.07650594 523.828293564 898.680664062 523.03515625 c 0
 779.920165257 522.289110426 702.420016695 444.001412598 703.184570312 330.052734375 c 0
 703.867692774 219.271781252 791.90855347 148.553987732 863.233398438 148.571289062 c 0
 932.413150218 148.588070058 961.192566896 190.638507084 961.454101562 232.778320312 c 0
 961.689065939 270.63699127 929.70526361 298.087953396 889.61328125 298.200195312 c 0
 851.910652107 298.317093136 804.180789812 264.699676749 800.635742188 209.641601562 c 0
 797.789062499 172.35259043 807.176757812 158.668064267 815.474609375 138.80078125 c 1
 796.459960938 125.610351562 l 1
 779.948242188 143.766601562 758.861870069 158.561584574 761.220703125 212.993164062 c 0
 765.029238567 302.073242188 827.041974929 364.484123807 908.22265625 363.850585938 c 0
 972.702720345 363.362304688 1030.30970175 316.852526399 1029.75488281 241.846679688 c 0
 1029.30957031 180.637695312 988.02636177 99.3405159535 872.301757812 98.4072265625 c 0
 734.500976562 97.2958984385 653.607123126 214.687498606 653.845703125 330.877929688 c 0
1091.58203125 109.840820312 m 1
 1091.58203125 109.840820312 1091.48730469 237.270745694 1091.58203125 402.908203125 c 0
 1091.58886719 415.174804687 1127.08310633 394.843742199 1127.02929688 407.854492188 c 0
 1126.77929688 468.302734375 1127.50585938 516.418945312 1125.38085938 563.658203125 c 1
 1238.99121094 563.877929688 1444.80761719 564.047851562 1571.36132812 571.90234375 c 1
 1575.83691406 561.011522484 1581.5859375 535.360772397 1582.90234375 517.088867188 c 1
 1550.41601562 517.309570312 1468.15917969 517.055664062 1433.69238281 517.088867188 c 1
 1433.69238281 109.840820312 l 1
 1403.0388077 109.733398438 1371.33903548 109.723632812 1345.37792969 109.840820312 c 1
 1347.02636719 407.854492188 l 2
 1347.31009484 457.191548653 1348.50390625 482.623652451 1347.8515625 517.088867188 c 1
 1274.07408077 517.659179688 1213.60455115 517.231445312 1174.57226562 517.088867188 c 1
 1174.88671875 476.138426068 1174.89550781 438.131734859 1174.89550781 388.89453125 c 2
 1174.89550781 109.840820312 l 1
 1091.58203125 109.840820312 l 1
77.560546875 70 m 0
 76.9858790807 32.8336456722 96.5604203985 0 136 0 c 2
 1409 0 l 2
 1452.19628906 0 1572.28613281 0.2666015625 1613 0 c 1
 1612.40429688 21 1605.4296875 54.6904296875 1599 67 c 1
 1459.95718241 57.47265625 1328.6730871 55.919821381 1242 56 c 2
 141 57 l 1
 141 57 136.569445081 64.9730764943 136.614257812 78 c 0
 136.691920603 100.576334584 156.846019572 129 205 129 c 2
 326 129 l 2
 485.692581014 129 581.485710757 216.54415408 577 373 c 0
 572.723695596 522.152020551 448.964154374 601.979695636 318 601 c 0
 179.722208547 599.965593681 88.3123919658 501.306194818 87 389 c 0
 85.8932822406 294.294101507 152.957163491 233.607456317 237 234 c 0
 331.084585587 234.439446254 374 296.230441046 374 364 c 0
 374 432.415406505 319.085604807 479.886127658 255 479.948242188 c 0
 208.456696234 479.993353963 149.717188979 447.774485946 122 380 c 1
 135 332 l 1
 154.101177251 387.878890634 192.412323241 423.409110914 238 422.82421875 c 0
 276.499316406 422.330270602 301.256863138 394.043552374 301 364 c 0
 300.720833742 331.347801703 275.943641493 295.024425753 229 295 c 0
 168.565527343 294.968554687 129.312075468 338.874270857 130 387 c 0
 131.28586947 476.956678276 204.318193334 550.517405125 304 551 c 0
 423.965865319 551.580797176 485.456716117 466.359470889 486 366 c 0
 486.469442052 279.281145554 442.435185185 184 321 184 c 2
 227 184 l 2
 182.409652925 184 146.6960288 175.876005836 123.000976562 158.2109375 c 0
 92.9156012634 135.781773587 78.0634418507 102.52448291 77.560546875 70 c 0
EndSplineSet
EndChar

StartChar: tml_E
Encoding: 9 2958 8
GlifName: tml_E_
Width: 950
VWidth: 0
Flags: HMW
LayerCount: 2
Fore
SplineSet
80 236 m 0
 80.466796875 419.518554688 195.021484375 560.875976562 443 561 c 0
 489.814453125 561.0234375 757.483398438 566.678710938 911 570 c 1
 916.4296875 558.518554688 923.404296875 527.258789062 925 508 c 1
 738 508 l 1
 738 0 l 1
 706.752929688 -0.12890625 676.463867188 -0.1416015625 650 0 c 1
 652 370 l 2
 652.70703125 433.681640625 653.791015625 463.51171875 653 508 c 1
 454.607421875 508 l 1
 276.33203125 509.3203125 137.715820312 428.411132812 139 233 c 0
 139.81640625 108.76171875 236.254882812 32.9794921875 327 33 c 0
 414.336914062 33.01953125 452.682617188 85.91015625 453 137 c 0
 453.291015625 187.346679688 413.666992188 223.838867188 364 224 c 0
 314.422851562 224.14453125 256.048828125 183.736328125 251 110 c 0
 247.68359375 61.5634765625 254.935546875 48.80078125 265 23 c 1
 248 7 l 1
 227.970703125 29.0234375 202.46875 46.9677734375 205.252929688 113 c 0
 209.935546875 224.059570312 291.18359375 297.76953125 391 297 c 0
 467.931640625 296.407226562 540.66015625 238.987304688 540 146 c 0
 539.47265625 71.751953125 491.471679688 -26.5458984375 354 -28 c 0
 166.947265625 -29.978515625 79.6669921875 105.0546875 80 236 c 0
EndSplineSet
EndChar

StartChar: tml_Ee
Encoding: 10 2959 9
GlifName: tml_E_e
Width: 950
VWidth: 0
Flags: HMW
LayerCount: 2
Fore
SplineSet
313 -211 m 5
 425.1171875 -126.583007812 569.13671875 -6.611328125 619 31 c 5
 706 0 l 5
 700 -17 l 5
 569.181640625 -92.5556640625 441.876953125 -174.13671875 327 -244 c 5
 324.453125 -240.26171875 315.39453125 -229.456054688 313 -211 c 5
EndSplineSet
Refer: 8 2958 S 1 0 0 1 0 1.09961 2
EndChar

StartChar: tml_Ai
Encoding: 11 2960 10
GlifName: tml_A_i
Width: 1079
Flags: HMW
LayerCount: 2
Fore
SplineSet
80.5751953125 -42.4501953125 m 0
 80.5751953125 136.751953125 245.682617188 195.681640625 395.450195312 197.650390625 c 2
 624.150390625 200.400390625 l 2
 772.297851562 202.018554688 889.174804688 268.991210938 889.174804688 412.174804688 c 0
 889.174804688 493.682617188 846.301757812 572.099609375 743.224609375 572.099609375 c 0
 663.368164062 572.099609375 597.025390625 495.849609375 597.025390625 401.174804688 c 2
 597.025390625 321.599609375 l 1
 571.817382812 316.557617188 542.608398438 316.6640625 521.400390625 317.599609375 c 1
 521.400390625 355.875 l 2
 521.400390625 495.83203125 434.069335938 578.849609375 331.674804688 578.849609375 c 0
 220.932617188 578.849609375 153.299804688 505.124023438 153.299804688 402.700195312 c 0
 153.299804688 325.889648438 209.9375 301.825195312 246.450195312 301.825195312 c 0
 294.01953125 301.825195312 322.375 325.826171875 322.375 370.525390625 c 0
 322.375 403.024414062 296.780273438 445.275390625 248.275390625 445.275390625 c 0
 187.23828125 445.275390625 150.099609375 394.981445312 150.099609375 351.125 c 1
 130.849609375 383.125 l 1
 140.849609375 440.349609375 193.060546875 503.025390625 272.400390625 503.025390625 c 256
 350.282226562 503.025390625 401.700195312 452.173828125 401.700195312 378.525390625 c 0
 401.700195312 303.048828125 346.416015625 243.575195312 258.900390625 243.575195312 c 0
 169.623046875 243.575195312 101.049804688 304.071289062 101.049804688 404.599609375 c 0
 101.049804688 553.188476562 220.974609375 638.599609375 342.125 638.599609375 c 0
 464.34375 638.599609375 565.279296875 573.502929688 585 465.793945312 c 1
 572.848632812 468.3046875 561.780273438 470.923828125 551.875 473.650390625 c 1
 579.610351562 572.631835938 658.98046875 634.849609375 761.875 634.849609375 c 0
 888.63671875 634.849609375 987.549804688 559.645507812 987.549804688 411.849609375 c 0
 987.549804688 246.37109375 836.0390625 141.08984375 672.875 139.400390625 c 2
 381.825195312 136.650390625 l 2
 263.991210938 135.03515625 175.200195312 78.7041015625 175.200195312 -31.9501953125 c 0
 175.200195312 -116.225585938 226.452148438 -185.299804688 329.575195312 -185.299804688 c 0
 436.106445312 -185.299804688 529 -93.7587890625 529 -10.5009765625 c 2
 529 31 l 1
 557.491210938 36.787109375 585.15234375 37.3515625 603 35 c 1
 603 -8 l 2
 603 -111.950195312 666.91015625 -188.01171875 773.474609375 -187.25 c 0
 888.96484375 -186.424804688 935.104492188 -103.810546875 936.221679688 -42 c 0
 937.185546875 11.33984375 898.380859375 58.888671875 865 82 c 1
 877.333007812 97.380859375 912.666992188 120.517578125 945 115 c 1
 965.455078125 91.302734375 1006.11621094 56.9873046875 1003.95214844 -42 c 0
 1001.94628906 -133.750976562 935.2890625 -257 771.224609375 -257 c 0
 618.87890625 -257 550 -168 550 -94 c 1
 563 -97 l 1
 540.69140625 -142.485351562 475.365234375 -255.299804688 318.974609375 -255.299804688 c 0
 158.772460938 -255.299804688 80.5751953125 -153.745117188 80.5751953125 -42.4501953125 c 0
EndSplineSet
EndChar

StartChar: tml_O
Encoding: 12 2962 11
GlifName: tml_O_
Width: 873
VWidth: 0
Flags: HMW
LayerCount: 2
Fore
SplineSet
65 298 m 4
 66.7421875 477.21484375 199.588867188 633.259765625 425 635 c 4
 599.609375 636.311523438 798.083007812 530.7109375 803 313 c 4
 806.448242188 177.591796875 738.774414062 85 627 85 c 4
 553.43359375 85 505.577148438 138.876953125 505.356445312 204 c 4
 505.19921875 251.172851562 519.291015625 273.55078125 530 295 c 4
 532.020507812 299.046875 531.224609375 273.060546875 534 277 c 5
 490.788085938 259.651367188 461.365234375 199.063476562 463 145 c 4
 465.47265625 63.24609375 573.395507812 5 656 5 c 4
 681 5 721 7 747 9 c 5
 748 -4.8125 747 -37 744 -52 c 5
 646 -52 l 6
 501 -52 410.875 50.9033203125 410 140 c 4
 408.920898438 249.905273438 487.083984375 319.861328125 547 330 c 5
 574 295 l 5
 564.546875 274.734375 551.918945312 243.596679688 552.38671875 213 c 4
 553.008789062 178.3515625 581.203125 141 627 141 c 4
 684.255859375 141 717.674804688 228.016601562 718 314 c 4
 718.48828125 459.868164062 597.366210938 578.203125 421 579 c 4
 245.7421875 579.817382812 117.2421875 470.998046875 114 294 c 4
 112.849609375 230.1875 157.477539062 174.958007812 215 175 c 4
 266.5078125 175.030273438 293.655273438 213.017578125 294 248 c 4
 294.407226562 289.350585938 262.88671875 325.138671875 214 325.82421875 c 4
 169.298828125 326.40234375 127.73046875 291.111328125 109 242 c 5
 91 279 l 5
 118.543945312 342.911132812 182.26953125 379.9921875 237 379.948242188 c 4
 313.306640625 379.88671875 361 324.076171875 361 260 c 4
 361 184.837890625 307.143554688 123.544921875 219 123 c 4
 131.981445312 122.424804688 63.9453125 189.055664062 65 298 c 4
158 -108 m 4
 157.688476562 -64.2880859375 176.25 -23.3310546875 205 -1.1953125 c 5
 222.333007812 -8.3125 235.666015625 -19.6025390625 245 -35.064453125 c 5
 223.814453125 -51.4677734375 212 -76.6708984375 212 -98 c 4
 212 -142.85546875 251.383789062 -175.565429688 311 -175 c 4
 350.673828125 -174.624023438 377.747070312 -150.657226562 397 -122 c 4
 447.93359375 -42.9560546875 481.55859375 -5.5400390625 588 -3 c 5
 617 -3 l 5
 694 -52 l 5
 660.965820312 -52.267578125 627.772460938 -51.67578125 604 -52 c 5
 500.96484375 -59.4150390625 493.5390625 -230.858398438 316 -234 c 4
 209.016601562 -235.892578125 158.4296875 -173.365234375 158 -108 c 4
EndSplineSet
EndChar

StartChar: tml_Oo
Encoding: 13 2963 12
GlifName: tml_O_o
Width: 878
VWidth: 0
Flags: HMW
LayerCount: 2
Back
SplineSet
220 -108 m 4
 219.328125 -2.344726562 317.180664062 58 404 58 c 5
 414.040039062 50.5009765625 428.916015625 18.413085938 426 4 c 5
 335.051757812 1.893554688 274 -35.491210938 274 -98 c 4
 274 -138.272460938 306.647460938 -173.5703125 368 -174 c 4
 407.674804688 -174.27734375 434.747070312 -150.116210938 454 -122 c 5
 504.93359375 -42.956054688 538.55859375 -5.540039062 645 -3 c 5
 674 7 l 5
 751 -52 l 5
 717.965820312 -52.267578125 684.772460938 -51.67578125 661 -52 c 5
 557.96484375 -59.415039062 550.5390625 -230.859375 373 -234 c 4
 269.401367188 -235.833007812 220.415667483 -173.365524186 220 -108 c 4
713.817868135 19.9999993269 m 0
 729.022799908 9.7210532259 746.999265186 5 763 5 c 0
 788 5 828 7 854 9 c 1
 855 -4.8125 854 -37 851 -52 c 1
 759 -52 l 2
 719.674539465 -51.7584634808 666.657215877 -37.8523385358 631.000001204 -7.99730416016 c 0
 713.817868135 19.9999993269 l 0
EndSplineSet
Fore
SplineSet
65 298 m 0
 66.7421875 477.21484375 199.588867188 633.259765625 425 635 c 0
 599.609375 636.311523438 798.083007812 530.7109375 803 313 c 0
 806.448242188 177.591796875 738.774414062 85 627 85 c 0
 553.43359375 85 505.577148438 138.876953125 505.356445312 204 c 0
 505.19921875 251.172851562 519.291015625 273.55078125 530 295 c 0
 532.020507812 299.046875 531.224609375 273.060546875 534 277 c 1
 490.788085938 259.651367188 461.365234375 199.063476562 463 145 c 0
 465.47265625 63.24609375 573.395507812 5 656 5 c 0
 681 5 721 7 747 9 c 1
 748 -4.8125 747 -37 744 -52 c 1
 646 -52 l 2
 501 -52 410.875 50.9033203125 410 140 c 0
 408.920898438 249.905273438 487.083984375 319.861328125 547 330 c 1
 574 295 l 1
 564.546875 274.734375 551.918945312 243.596679688 552.38671875 213 c 0
 553.008789062 178.3515625 581.203125 141 627 141 c 0
 684.255859375 141 717.674804688 228.016601562 718 314 c 0
 718.48828125 459.868164062 597.366210938 578.203125 421 579 c 0
 245.7421875 579.817382812 117.2421875 470.998046875 114 294 c 0
 112.849609375 230.1875 157.477539062 174.958007812 215 175 c 0
 266.5078125 175.030273438 293.655273438 213.017578125 294 248 c 0
 294.407226562 289.350585938 262.88671875 325.138671875 214 325.82421875 c 0
 169.298828125 326.40234375 127.73046875 291.111328125 109 242 c 1
 91 279 l 1
 118.543945312 342.911132812 182.26953125 379.9921875 237 379.948242188 c 0
 313.306640625 379.88671875 361 324.076171875 361 260 c 0
 361 184.837890625 307.143554688 123.544921875 219 123 c 0
 131.981445312 122.424804688 63.9453125 189.055664062 65 298 c 0
179 -108 m 0
 178.328125 -2.3447265625 276.180664062 58 363 58 c 1
 373.040039062 50.5009765625 387.916015625 18.4130859375 385 4 c 1
 294.051757812 1.8935546875 233 -35.4912109375 233 -98 c 0
 233 -138.802734375 264.2578125 -174.565429688 323 -175 c 0
 364.520507812 -175.282226562 392.8515625 -150.657226562 413 -122 c 1
 463.93359375 -42.9560546875 497.55859375 -5.5400390625 604 -3 c 1
 633 -3 l 1
 710 -52 l 1
 676.965820312 -52.267578125 643.772460938 -51.67578125 620 -52 c 1
 516.96484375 -59.4150390625 509.5390625 -230.858398438 332 -234 c 0
 228.401367188 -235.833007812 179.416015625 -173.365234375 179 -108 c 0
EndSplineSet
EndChar

StartChar: tml_Ka
Encoding: 15 2965 14
GlifName: tml_K_a
Width: 897
VWidth: 0
GlyphClass: 2
Flags: HMW
AnchorPoint: "Anchor-0" 453 751 basechar 0
LayerCount: 2
Back
SplineSet
470 300 m 5
 472 370 l 4
 472.70703125 433.681640625 473.791015625 466.51171875 473 511 c 5
 392.280504077 511.69140625 325.311907966 511.171875 282.607421875 511 c 5
 282.98828125 458.611328125 283 416.990234375 284 364 c 4
 284 331.675824176 284 290 284 290 c 5
 228 290 l 5
 228 290 236 319.405405405 235 370 c 4
 234.696289062 440.999023438 232.577148438 497.514648438 230 553 c 5
 356.477780079 553.265625 591.112734946 553.47265625 732 563 c 5
 737.4296875 552.666992188 744.404296875 528.333007812 746 511 c 5
 705.286132812 511.266601562 602.196289062 510.958984375 559 511 c 5
 559 300 l 1029
EndSplineSet
Fore
SplineSet
75.533203125 164 m 4
 77.0556640625 268.076171875 147.479492188 322.360351562 262 325 c 4
 328.728515625 326.538085938 405.811523438 326.807617188 518 326.026367188 c 4
 552.889648438 325.784179688 602.560546875 325.459960938 646 325 c 4
 776.153320312 323.623046875 820.750976562 243.732421875 822 176 c 4
 824.060546875 64.240234375 755.247070312 -24.94140625 591.473632812 -22.26953125 c 5
 589.694335938 -16.9140625 588.315429688 11.5322265625 590.518554688 19.2958984375 c 5
 690.172851562 19.091796875 727.9609375 93.9873046875 728 164 c 4
 728.03515625 227.705078125 693.975585938 273 611 273 c 6
 515 273 l 5
 489 273 l 5
 255 273 l 6
 170.853515625 273 130 231.600585938 130 167 c 4
 130 98.21875 200.62109375 35.623046875 308 36 c 4
 409.583984375 36.3564453125 472.670898438 99.4140625 474 223 c 6
 474.787109375 283 l 5
 474.934570312 301 l 5
 476 370 l 5
 476 511 l 5
 394.008789062 511.69140625 326.984375 511.171875 283.607421875 511 c 5
 283.98828125 458.611328125 286 417 286 364 c 6
 286 291 l 5
 224 291 l 5
 224 291 231.213867188 320.028320312 231 370 c 4
 230.696289062 440.999023438 228.577148438 505.514648438 226 561 c 5
 392.477539062 561.265625 587.112304688 560.47265625 728 570 c 5
 733.4296875 559.666992188 740.404296875 528.333007812 742 511 c 5
 702.157226562 511.266601562 610.272460938 510.958984375 568 511 c 5
 568 301 l 5
 569 228 l 6
 571.041015625 79.0009765625 481.107421875 -23 315 -23 c 4
 146.81640625 -23 74.201171875 73.35546875 75.533203125 164 c 4
EndSplineSet
EndChar

StartChar: tml_Nga
Encoding: 16 2969 15
GlifName: tml_N_ga
Width: 994
VWidth: 0
GlyphClass: 2
Flags: HMW
AnchorPoint: "Anchor-4" 802 0 basechar 0
AnchorPoint: "Anchor-0" 520 751 basechar 0
LayerCount: 2
Back
SplineSet
105 0 m 5
 105 0 113 136 112 370 c 4
 111.696289062 442.938476562 109.577148438 503.999023438 107 561 c 5
 244.311523438 561.265625 499.044921875 560.47265625 652 570 c 5
 657.4296875 558.673828125 664.404296875 527 666 508 c 5
 626.375 508.266601562 531.041015625 507.958984375 489 508 c 5
 489 0 l 5
 458.802734375 -0.12890625 422.575195312 -0.1416015625 397 0 c 5
 399 370 l 6
 399.70703125 433.681640625 400.791015625 463.51171875 400 508 c 5
 300.202148438 508.69140625 221.405273438 508.171875 168.607421875 508 c 5
 168.98828125 455.611328125 170 416.990234375 171 364 c 4
 174 205 171 0 171 0 c 5
 105 0 l 5
EndSplineSet
Fore
SplineSet
336 56 m 5
 491 56 739 58 801 66 c 5
 802 428.099609375 l 6
 801.620117188 458.930664062 800.35546875 518.805664062 797 562 c 5
 824.444335938 562.692382812 873.196289062 566.69140625 894 570 c 5
 894 0 l 5
 710.333333333 -0 526.666666667 0 343 0 c 5
 336 56 l 5
105 0 m 5
 105 0 113.000976562 136 112 370 c 4
 111.696289062 440.999023438 109.577148438 498.514648438 107 554 c 5
 304.737304688 554.265625 458.709960938 560.47265625 601 570 c 5
 606.4296875 559.666992188 613.404296875 525.333007812 615 508 c 5
 574.286132812 508.266601562 471.196289062 507.958984375 428 508 c 5
 428 160 l 5
 397.455495084 159.846679688 365.86911868 159.013671875 340 159 c 5
 341 370 l 6
 341.70703125 433.681640625 342.791015625 463.51171875 342 508 c 5
 258.677734375 508.69140625 213.689453125 508.171875 169.607421875 508 c 5
 169.98828125 455.611328125 170.000184191 416.990237851 171 364 c 4
 174 205 171 0 171 0 c 5
 105 0 l 5
374 274 m 5
 384.392578125 359.680664062 458.78125 387.879882812 517 387 c 4
 616.962890625 385.564453125 684.044921875 320.358398438 685.0625 223 c 4
 686.059570312 127.608398438 606.927734375 50.3505859375 536 38 c 5
 440 56 l 5
 537.32421875 54.7421875 596.587890625 113.39453125 595.626953125 224 c 4
 595.14453125 284.68359375 557.375 343.11328125 494 344 c 4
 459.760742188 344.4921875 416.471679688 323.19140625 412 275 c 5
 374 274 l 5
EndSplineSet
EndChar

StartChar: tml_Ca
Encoding: 17 2970 16
GlifName: tml_C_a
Width: 807
VWidth: 0
GlyphClass: 2
Flags: HMW
AnchorPoint: "Anchor-3" 467 561 basechar 0
AnchorPoint: "Anchor-0" 446 751 basechar 0
LayerCount: 2
Back
SplineSet
55.533203125 159 m 4
 57.0556318279 263.075953586 127.464994166 323.092735837 242 325 c 4
 394.923768997 327.602002783 509.344682723 324.459529754 701 333 c 5
 706.4296875 322.666992188 713.404296875 298.333007812 715 281 c 5
 666.230447861 282.266601562 542.743148396 281.958984375 491 282 c 5
 465 283 l 5
 235 283 l 6
 150.85316643 283 98 234.600355833 98 164 c 4
 98 85.2187199279 174.620922008 29.6253532297 285 30 c 4
 386.583562389 30.3447931823 450.670802474 99.4144377862 452 223 c 6
 452.787109375 283 l 5
 450.934570312 301 l 5
 452 370 l 5
 452 511 l 5
 370.008613701 511.69140625 301.984798997 511.171875 258.607421875 511 c 5
 258.98828125 458.611328125 260 416.999669236 260 364 c 6
 260 291 l 5
 204 291 l 5
 204 291 211.213761861 320.028525395 211 370 c 4
 210.696289063 440.999023438 208.577148438 497.514648438 206 553 c 5
 332.477780079 553.265625 567.112734946 553.47265625 708 563 c 5
 713.4296875 552.666992188 720.404296875 528.333007812 722 511 c 5
 682.157017672 511.266601562 581.272304269 510.958984375 539 511 c 5
 539 301 l 5
 540 223 l 5
 537.247839313 84.067357513 456.107382551 -23 290 -23 c 4
 131.81615096 -23 54.2072468364 68.3552526414 55.533203125 159 c 4
EndSplineSet
Fore
SplineSet
65.533203125 164 m 0
 67.0556640625 268.076171875 137.479492188 322.360351562 252 325 c 0
 318.728515625 326.538085938 385.811523438 327.807617188 498 327.026367188 c 0
 532.889648438 326.784179688 649.560546875 331.432617188 703 335 c 1
 708.174804688 319.333007812 715.139648438 292.666992188 715 273 c 1
 505 273 l 1
 479 273 l 1
 245 273 l 2
 160.853515625 273 120 231.600585938 120 167 c 0
 120 98.21875 187.62109375 33.623046875 295 34 c 0
 396.583984375 34.3564453125 462.670898438 99.4140625 464 223 c 2
 464.787109375 283 l 1
 464.934570312 301 l 1
 466 370 l 1
 466 511 l 1
 384.008789062 511.69140625 316.984375 511.171875 273.607421875 511 c 1
 273.98828125 458.611328125 276 417 276 364 c 2
 276 291 l 1
 214 291 l 1
 214 291 221.213867188 320.028320312 221 370 c 0
 220.696289062 440.999023438 218.577148438 505.514648438 216 561 c 1
 382.477539062 561.265625 577.112304688 560.47265625 718 570 c 1
 723.4296875 559.666992188 730.404296875 528.333007812 732 511 c 1
 692.157226562 511.266601562 600.272460938 510.958984375 558 511 c 1
 558 301 l 1
 559 223 l 1
 556.248046875 84.0673828125 471.107421875 -23 305 -23 c 0
 136.81640625 -23 64.201171875 73.35546875 65.533203125 164 c 0
EndSplineSet
EndChar

StartChar: tml_Ja
Encoding: 18 2972 17
GlifName: tml_J_a
Width: 1058
GlyphClass: 2
Flags: HMW
LayerCount: 2
Fore
SplineSet
80.5751953125 -52.4501953125 m 4
 80.5751953125 116.751953125 245.682617188 195.681640625 395.450195312 197.650390625 c 6
 624.150390625 200.400390625 l 6
 772.297851562 202.018554688 889.174804688 268.991210938 889.174804688 412.174804688 c 4
 889.174804688 493.682617188 851.301757812 570.099609375 748.224609375 570.099609375 c 4
 668.368164062 570.099609375 597.025390625 495.849609375 597.025390625 401.174804688 c 6
 597.025390625 321.599609375 l 5
 571.817382812 316.557617188 542.608398438 316.6640625 521.400390625 317.599609375 c 5
 521.400390625 355.875 l 6
 521.400390625 495.83203125 434.069335938 578.849609375 331.674804688 578.849609375 c 4
 220.932617188 578.849609375 153.299804688 505.124023438 153.299804688 402.700195312 c 4
 153.299804688 325.889648438 209.9375 301.825195312 246.450195312 301.825195312 c 4
 294.01953125 301.825195312 322.375 325.826171875 322.375 370.525390625 c 4
 322.375 403.024414062 296.780273438 445.275390625 248.275390625 445.275390625 c 4
 187.23828125 445.275390625 150.099609375 394.981445312 150.099609375 351.125 c 5
 130.849609375 383.125 l 5
 140.849609375 440.349609375 193.060546875 503.025390625 272.400390625 503.025390625 c 260
 350.282226562 503.025390625 401.700195312 452.173828125 401.700195312 378.525390625 c 4
 401.700195312 303.048828125 346.416015625 243.575195312 258.900390625 243.575195312 c 4
 169.623046875 243.575195312 101.049804688 304.071289062 101.049804688 404.599609375 c 4
 101.049804688 553.188476562 220.974609375 638.599609375 342.125 638.599609375 c 4
 464.34375 638.599609375 565.279296875 573.502929688 585 465.793945312 c 5
 572.848632812 468.3046875 561.780273438 470.923828125 551.875 473.650390625 c 5
 579.610351562 572.631835938 666.98046875 634.849609375 769.875 634.849609375 c 4
 896.63671875 634.849609375 987.549804688 557.645507812 987.549804688 409.849609375 c 4
 987.549804688 244.37109375 836.0390625 141.08984375 672.875 139.400390625 c 6
 381.825195312 136.650390625 l 6
 263.991210938 135.03515625 175.200195312 71.7041015625 175.200195312 -38.9501953125 c 4
 175.200195312 -123.225585938 225.452148438 -186.299804688 320.575195312 -186.299804688 c 4
 537.267578125 -186.299804688 586.427734375 65.75 809.474609375 65.75 c 4
 911.559570312 65.75 984.799804688 -1.5654296875 984.799804688 -99.7001953125 c 4
 984.799804688 -195.552734375 914.202148438 -266.049804688 812.924804688 -266.049804688 c 4
 752.110351562 -266.049804688 700.08984375 -257.015625 662.474609375 -234.125 c 5
 665.165039062 -219.010742188 671.946289062 -198.73828125 680.599609375 -189.525390625 c 5
 705.810546875 -196.197265625 759.249023438 -207.2109375 800.924804688 -204.799804688 c 4
 870.05859375 -200.799804688 889.674804688 -149.056640625 889.674804688 -107.924804688 c 4
 889.674804688 -60.400390625 853.391601562 -8 787.224609375 -8 c 4
 632.602539062 -8 550.51953125 -255.299804688 308.974609375 -255.299804688 c 4
 147.772460938 -255.299804688 80.5751953125 -163.745117188 80.5751953125 -52.4501953125 c 4
EndSplineSet
EndChar

StartChar: tml_Nya
Encoding: 19 2974 18
GlifName: tml_N_ya
Width: 1310
VWidth: 0
GlyphClass: 2
Flags: HMW
AnchorPoint: "Anchor-3" 927 561 basechar 0
LayerCount: 2
Fore
SplineSet
70.8232421875 170 m 0
 73.033203125 381.962890625 181.419921875 543.375 272 612 c 1
 290.510742188 604.452148438 307.844726562 585.758789062 321 566 c 1
 205.71484375 480.48828125 124.224609375 342.03125 122.772460938 174 c 0
 120.111328125 -67.33203125 343.875 -270.22265625 684 -273 c 0
 932.927734375 -274.958007812 1131.0234375 -140.467773438 1132 84 c 0
 1132.07128906 183.106445312 1101.6328125 279.869140625 1010 279 c 0
 954.880859375 278.477539062 922.731445312 245.038085938 922 186 c 1
 890 193 l 1
 896.701171875 289.33203125 949.646484375 339.498046875 1033 339 c 0
 1136.62988281 338.380859375 1237.69140625 258.359375 1240 83 c 0
 1241.53515625 -116.510742188 1064.8359375 -335 703 -335 c 0
 297.602539062 -335 67.302734375 -98.51953125 70.8232421875 170 c 0
EndSplineSet
Refer: 8 2958 N 1 0 0 1 218 0 2
EndChar

StartChar: tml_Tta
Encoding: 20 2975 19
GlifName: tml_T_ta
Width: 893
VWidth: 0
GlyphClass: 2
Flags: HMW
AnchorPoint: "Anchor-0" 503 682 basechar 0
LayerCount: 2
Fore
SplineSet
88 0 m 1
 90.556640625 25.4814453125 94 103.978515625 94 147 c 2
 94 554 l 1
 112.333984375 557.639648438 158.322265625 561.139648438 184 561 c 1
 184 56 l 1
 397 56 l 2
 535.815429688 56.99609375 685.483398438 54.47265625 844 66 c 1
 850.4296875 53.6904296875 857.404296875 21 858 0 c 1
 817.286132812 0.2666015625 697.196289062 -0.041015625 654 0 c 2
 88 0 l 1
EndSplineSet
EndChar

StartChar: tml_Nna
Encoding: 21 2979 20
GlifName: tml_N_na
Width: 1833
VWidth: 0
GlyphClass: 2
Flags: HMW
AnchorPoint: "Anchor-3" 1546 561 basechar 0
AnchorPoint: "Anchor-0" 949.001 751 basechar 0
LayerCount: 2
Back
SplineSet
55 230 m 4
 55.4267578125 440.301757812 241.948242188 564.749023438 434.000976562 567 c 4
 690 570 889.357421875 410.872070312 889.000976562 185 c 4
 888.834960938 79.927734375 833.47265625 -24.787109375 728.000976562 -25 c 4
 623.435546875 -25.2109375 567.837890625 60.1533203125 568.000976562 178 c 4
 568.299804688 394.048828125 714 560 918.0625 562.40234375 c 28
 1124 564 1283.31054688 413.419921875 1283.00097656 189 c 4
 1282.85644531 83.927734375 1229.47265625 -24.787109375 1124.00097656 -25 c 4
 1019.43554688 -25.2109375 967.8125 57.1533203125 968.000976562 175 c 4
 968.327148438 382.309339021 1132.16894531 560.274861225 1344.00097656 561 c 4
 1423.81542969 561.265625 1538.48339844 562.47265625 1692 572 c 5
 1697.4296875 560.539754972 1703.40429688 530.223881391 1705 511 c 5
 1665.37473888 511.266601562 1565.04130807 510.958984375 1523 511 c 5
 1523 0 l 5
 1490.37291521 -0.12890625 1456.63292223 -0.1416015625 1429 0 c 5
 1431 377 l 6
 1431.70703125 440.681640625 1432.79101562 466.51171875 1432 511 c 5
 1345.00097656 511 l 6
 1200.07161359 512.415039062 1021.31049329 399.869140625 1022.00097656 176 c 4
 1022.30898438 79.3744791667 1067.24658204 35.9708333333 1117.00097656 36 c 4
 1171.68663833 36.0329861111 1197.47432215 108.027006173 1197.00097656 188 c 4
 1195.96218772 363.849348495 1073.12876711 508.000856185 906.052734375 508.098632812 c 4
 735.373988099 508.198349273 619.532912357 364.933600586 620.000976562 184 c 4
 620.257517689 83.7488380142 671.60427108 30.9697389241 722.000976562 31 c 4
 776.645949592 31.0340576172 801.533668155 103.429199219 801.000976562 186 c 4
 799.762781022 372.120969836 633.26450559 508.294142986 430.000976562 512 c 4
 263.585066704 515.031394025 106.782575918 402.418126826 108 239 c 4
 108.971503075 104.65625 190.633846201 28.9775390625 291 29 c 4
 375.802734375 29.0185546875 419.669921875 83.4541015625 420 136 c 4
 420.323242188 187.50390625 377.131835938 225.834960938 323 226 c 4
 274.694335938 226.147460938 216.918945312 187.979492188 214 120 c 4
 212.03125 71.490234375 217.935546875 50.80078125 233 25 c 5
 216 9 l 5
 195.970703125 31.0234375 174.15234375 51.91796875 175.252929688 118 c 4
 176.935546875 219.059570312 244.18359375 297.713867188 345 297 c 4
 427.931640625 296.413085938 494.66015625 238.987304688 494 149 c 4
 493.455078125 74.751953125 442.380859375 -25.8095703125 312 -26 c 4
 148.833984375 -26.23828125 54.7138671875 89.0546875 55 230 c 4
EndSplineSet
Fore
SplineSet
80 224 m 0
 81.4267578125 447.301757812 271.950195312 583.55859375 483.000976562 586 c 0
 719.002929688 588.73046875 943.307617188 436.872070312 943.000976562 206 c 0
 942.838867188 83.927734375 865.47265625 -19.791015625 759.000976562 -20 c 0
 652.435546875 -20.208984375 594.829101562 72.1533203125 595.000976562 190 c 0
 595.323242188 410.555664062 754.790039062 582.766601562 986.0625 584.40234375 c 0
 1212 586 1366.31054688 432.419921875 1366.00097656 208 c 0
 1365.85644531 102.927734375 1302.47265625 -20.78125 1197.00097656 -21 c 0
 1095.43554688 -21.2109375 1046.8125 57.1533203125 1047.00097656 175 c 0
 1047.32714844 382.309570312 1211.16894531 560.274414062 1423 561 c 0
 1560.31152344 561.265625 1631.04492188 560.47265625 1784 570 c 1
 1789.4296875 558.673828125 1796.40429688 527 1798 508 c 1
 1758.375 508.266601562 1663.04101562 507.958984375 1621 508 c 1
 1621 0 l 1
 1590.80273438 -0.12890625 1554.57519531 -0.1416015625 1529 0 c 1
 1531 370 l 2
 1531.70703125 433.681640625 1532.79101562 463.51171875 1532 508 c 1
 1432.20214844 508.69140625 1483.40527344 508.171875 1430.60742188 508 c 1
 1289.07128906 512.415039062 1100.31054688 399.869140625 1101.00097656 176 c 0
 1101.30859375 79.3740234375 1143.24707031 38.970703125 1193.00097656 39 c 0
 1247.68652344 39.033203125 1280.40429688 112.02734375 1280.00097656 202 c 0
 1279.078125 407.850585938 1158.12304688 525.750976562 981.052734375 527.098632812 c 0
 817.827148438 528.340820312 656.279296875 419.869140625 656.000976562 198 c 0
 655.875 97.47265625 699.627929688 37.9677734375 758.000976562 38 c 0
 816.104492188 38.0322265625 855.538085938 101.765625 856.000976562 186 c 0
 857.09375 384.9765625 676.0078125 525.447265625 480.000976562 529 c 0
 301.00390625 532.244140625 132.6953125 411.41015625 134 229 c 0
 134.911132812 101.65625 224.891601562 31.974609375 328 32 c 0
 403.802734375 32.0185546875 438.669921875 79.4541015625 439 132 c 0
 439.323242188 183.50390625 399.131835938 221.834960938 345 222 c 0
 296.694335938 222.147460938 243.918945312 187.979492188 241 120 c 0
 239.03125 71.490234375 244.935546875 50.80078125 260 25 c 1
 243 9 l 1
 222.970703125 31.0234375 199.15234375 51.91796875 200.252929688 118 c 0
 201.935546875 219.059570312 271.18359375 297.713867188 372 297 c 0
 454.931640625 296.413085938 522.66015625 238.987304688 522 149 c 0
 521.455078125 74.751953125 469.380859375 -25.8095703125 339 -26 c 0
 175.833984375 -26.23828125 79.099609375 83.0576171875 80 224 c 0
EndSplineSet
EndChar

StartChar: tml_Ta
Encoding: 22 2980 21
GlifName: tml_T_a
Width: 934
VWidth: 0
GlyphClass: 2
Flags: HMW
AnchorPoint: "Anchor-3" 487 561 basechar 0
AnchorPoint: "Anchor-0" 475 751 basechar 0
LayerCount: 2
Back
SplineSet
569 273 m 5
 482 273 l 5
 456 273 l 5
 222 273 l 6
 137.853515625 273 97 231.600585938 97 167 c 4
 97 98.21875 164.62109375 33.623046875 272 34 c 4
 373.583984375 34.3564453125 439.37890625 99.41796875 441 223 c 6
 441.787109375 283 l 5
 441.934570312 301 l 5
 443 370 l 5
 443 511 l 5
 361.008789062 511.69140625 293.984375 511.171875 250.607421875 511 c 5
 250.98828125 458.611328125 253 417 253 364 c 6
 253 291 l 5
 191 291 l 5
 191 291 198.213867188 320.028320312 198 370 c 4
 197.696289062 440.999023438 195.577148438 505.514648438 193 561 c 5
 359.477539062 561.265625 554.112304688 560.47265625 695 570 c 5
 700.4296875 559.666992188 707.404296875 528.333007812 709 511 c 5
 669.157226562 511.266601562 577.272460938 510.958984375 535 511 c 5
 535 301 l 5
 536 223 l 5
 533.248046875 84.0673828125 448.107421875 -23 282 -23 c 4
 113.81640625 -23 41.20703125 73.35546875 42.533203125 164 c 4
 44.0556640625 268.076171875 114.479492188 322.360351562 229 325 c 4
 295.728515625 326.538085938 372.811523438 326.873046875 485 326.026367188 c 4
 517.098632812 325.784179688 560.040039062 325.70703125 600 325 c 4
 699.8046875 323.235351562 818.712890625 275.390625 820 133 c 4
 820.9296875 23.7275390625 770.259765625 -106.861328125 569 -149 c 4
 515.333007812 -159.91796875 431.895507812 -167.204101562 370 -172.15234375 c 4
 295.762695312 -178.083007812 208.0625 -191.4453125 160 -214.681640625 c 4
 122.435546875 -232.854492188 96.931640625 -261.040039062 87 -295 c 5
 111.15234375 -207 l 5
 123.587890625 -249.697265625 127.840820312 -272.302734375 139 -315 c 5
 119.022460938 -329.31640625 81.697265625 -328.096679688 58 -323.887695312 c 5
 51.740234375 -318.966796875 45.767578125 -300.303710938 46 -283 c 4
 46.669921875 -233.124023438 78.48828125 -198.125976562 130 -171.443359375 c 4
 201.611328125 -136.4140625 289.633789062 -125.407226562 388 -115.868164062 c 4
 436.61328125 -111.323242188 479.692382812 -108.079101562 517 -99.0107421875 c 4
 684.245117188 -57.2412109375 717.564453125 50.60546875 716 125 c 4
 714.208984375 207.85546875 674.438476562 271.7421875 569 273 c 5
EndSplineSet
Fore
SplineSet
53 -263 m 0
 51.09375 -165.590820312 142.564453125 -116.33203125 281 -117 c 2
 541 -118 l 2
 722.423828125 -118.798828125 768.020507812 5.2314453125 767 109 c 0
 765.98828125 211.87109375 695.328125 273 602 273 c 2
 522 273 l 1
 496 273 l 1
 262 273 l 2
 177.853515625 273 137 231.600585938 137 167 c 0
 137 98.736328125 201.712890625 34.603515625 320 35 c 0
 416.775390625 35.32421875 479.387695312 100.072265625 481 223 c 2
 481.787109375 283 l 1
 481.934570312 301 l 1
 483 370 l 1
 483 511 l 1
 401.008789062 511.69140625 333.984375 511.171875 290.607421875 511 c 1
 291.147460938 458.611328125 294.725585938 416.990234375 294 364 c 2
 293 291 l 1
 231 291 l 1
 231 291 238.213867188 320.028320312 238 370 c 0
 237.696289062 440.999023438 235.577148438 505.514648438 233 561 c 1
 399.477539062 561.265625 594.112304688 560.47265625 735 570 c 1
 740.4296875 559.666992188 747.404296875 528.333007812 749 511 c 1
 709.157226562 511.266601562 617.272460938 510.958984375 575 511 c 1
 575 301 l 1
 576 219 l 2
 578 80 494.837890625 -23 322 -23 c 0
 150.3046875 -23 81.20703125 73.3544921875 82.533203125 164 c 0
 84.0556640625 268.076171875 154.479492188 322.360351562 269 325 c 0
 335.728515625 326.538085938 412.811523438 326.8046875 525 326.026367188 c 0
 559.889648438 325.784179688 591.561523438 325.502929688 635 325 c 0
 789.721679688 323.208007812 866.551757812 231.612304688 868 107 c 0
 869.110351562 11.4208984375 824.762695312 -176.1796875 544 -175 c 2
 258 -174 l 2
 197.729492188 -173.750976562 135.284179688 -195.05078125 134 -242 c 0
 133.44921875 -261.686523438 143.62109375 -278.833007812 166.15234375 -280 c 0
 180.560546875 -280.826171875 198.495117188 -277.59765625 218 -256 c 1
 225.703125 -263.1328125 234.173828125 -279.317382812 235 -287 c 1
 233.516601562 -327.208007812 204.016601562 -353.887695312 153 -353.887695312 c 0
 78.259765625 -354.947265625 53.7255859375 -299.75 53 -263 c 0
EndSplineSet
EndChar

StartChar: tml_Na
Encoding: 23 2984 22
GlifName: tml_N_a
Width: 839
VWidth: 0
GlyphClass: 2
Flags: HMW
AnchorPoint: "Anchor-3" 397 561 basechar 0
AnchorPoint: "Anchor-0" 409 751 basechar 0
LayerCount: 2
Fore
SplineSet
29 -263 m 0
 27.0938688859 -165.590820312 118.564928669 -116.33203125 257 -117 c 2
 437 -118 l 2
 618.423828125 -118.798828125 662.020507812 5.2314453125 663 109 c 1
 666.257142857 219.5 620.723407335 294.46391961 549 296 c 0
 504.509784504 296.952834648 451.339488636 260.520947802 449 216 c 1
 414 206 l 1
 417.30543357 295.086231807 487.554699786 348.30327448 571 348 c 0
 677.60717293 347.583894415 766.014762141 262.685058594 764 107 c 1
 765.110351562 11.4208984375 720.762695312 -176.1796875 440 -175 c 2
 234 -174 l 2
 173.729910714 -173.750976562 111.284204307 -195.05078125 110 -242 c 0
 109.449132341 -261.686523438 119.620919288 -278.833007812 142.15234375 -280 c 0
 156.560823323 -280.826469234 174.495539833 -277.59765625 194 -256 c 1
 201.703125 -263.1328125 210.173828125 -279.317382812 211 -287 c 1
 209.516601562 -327.208007812 180.016601562 -353.887695312 129 -353.887695312 c 0
 54.259765625 -354.947265627 29.7254413419 -299.749922564 29 -263 c 0
103 0 m 1
 103 0 110.974360354 135.999998963 110 370 c 0
 109.696289062 442.938476562 107.577148438 503.999023438 105 561 c 1
 245.976613998 561.379464286 466.962032318 557.389508929 624 571 c 1
 629.4296875 559.107519531 636.404296875 527.95 638 508 c 1
 598.375 508.266601562 498.041015625 507.958984375 456 508 c 1
 456 0 l 1
 423.373046875 -0.12890625 389.6328125 -0.1416015625 362 0 c 1
 364 370 l 2
 364.344235628 433.683591125 365.791015625 463.51171875 365 508 c 1
 264.185838631 508.69140625 219.942950086 508.171875 166.607421875 508 c 1
 166.98828125 455.611328125 168.000184191 416.990237851 169 364 c 0
 172 205 169 0 169 0 c 1
 103 0 l 1
EndSplineSet
EndChar

StartChar: tml_Nnna
Encoding: 24 2985 23
GlifName: tml_N_nna
Width: 1401
VWidth: 0
GlyphClass: 2
Flags: HMW
AnchorPoint: "Anchor-3" 1077 561 basechar 0
AnchorPoint: "Anchor-0" 700.001 751 basechar 0
LayerCount: 2
Back
SplineSet
797.607421875 515 m 5
 626.723632812 516.3203125 470.696289062 419.411132812 472 233 c 4
 472.890625 105.655273438 575.891601562 27.978515625 669 28 c 4
 759.802734375 28.0205078125 799.669921875 83.4541015625 800 137 c 4
 800.317382812 188.50390625 757.131835938 225.834960938 703 226 c 4
 654.694335938 226.147460938 593.918945312 183.979492188 589 115 c 4
 585.546875 66.5732421875 596.935546875 48.80078125 607 23 c 5
 590 7 l 5
 569.970703125 29.0234375 544.391601562 46.970703125 547.252929688 113 c 4
 551.935546875 221.059570312 630.18359375 296.76953125 730 296 c 4
 806.931640625 295.407226562 879.66015625 238.987304688 879 148 c 4
 878.4609375 73.751953125 830.391601562 -23.0830078125 693 -28 c 4
 525.947265625 -33.978515625 426.701171875 95.0546875 427 226 c 4
 427.466796875 430.393554688 577.021484375 553.954101562 815 554 c 4
 931.814453125 554.022460938 1099.48339844 555.47265625 1253 565 c 5
 1258.4296875 554.666992188 1265.40429688 531.333007812 1267 514 c 5
 1079 514 l 5
 1079 0 l 5
 1048.10839844 -0.12890625 1018.16308594 -0.1416015625 992 0 c 5
 994 370 l 4
 994.70703125 433.681640625 995.791015625 469.51171875 995 514 c 5
 797.607421875 515 l 5
EndSplineSet
Fore
SplineSet
80 234 m 0
 81.4267578125 447.301757812 263.950195312 582.55859375 475.000976562 585 c 0
 711.002929688 587.73046875 943.307617188 436.872070312 943.000976562 206 c 0
 942.838867188 83.927734375 874.47265625 -18.7958984375 758.000976562 -19 c 0
 649.435546875 -19.1904296875 597.829101562 67.1533203125 598.000976562 185 c 0
 598.323242188 405.555664062 755.793945312 560.260742188 991 561 c 0
 1128.31152344 561.265625 1199.04492188 560.47265625 1352 570 c 1
 1357.4296875 558.673828125 1364.40429688 527 1366 508 c 1
 1326.375 508.266601562 1231.04101562 507.958984375 1189 508 c 1
 1189 0 l 1
 1158.80273438 -0.12890625 1122.57519531 -0.1416015625 1097 0 c 1
 1099 370 l 2
 1099.70703125 433.681640625 1100.79101562 463.51171875 1100 508 c 1
 1000.20214844 508.69140625 1051.40527344 508.171875 998.607421875 508 c 0
 821.828125 509.415039062 656.279296875 419.869140625 656.000976562 198 c 0
 655.875 97.47265625 696.627929688 37.9677734375 755.000976562 38 c 0
 813.104492188 38.0322265625 855.538085938 101.765625 856.000976562 186 c 0
 857.09375 384.9765625 668.0078125 521.447265625 472.000976562 525 c 0
 293.00390625 528.244140625 132.6953125 411.41015625 134 239 c 0
 134.963867188 111.65625 224.891601562 31.974609375 328 32 c 0
 403.802734375 32.0185546875 439.669921875 80.4541015625 440 133 c 0
 440.323242188 184.50390625 400.131835938 222.834960938 346 223 c 0
 297.694335938 223.147460938 243.918945312 187.979492188 241 120 c 0
 239.03125 71.490234375 244.935546875 50.80078125 260 25 c 1
 243 9 l 1
 222.970703125 31.0234375 199.15234375 51.91796875 200.252929688 118 c 0
 201.935546875 219.059570312 271.18359375 297.713867188 372 297 c 0
 454.931640625 296.413085938 522.66015625 238.987304688 522 149 c 0
 521.455078125 74.751953125 469.380859375 -25.8095703125 339 -26 c 0
 175.833984375 -26.23828125 79.0576171875 93.0576171875 80 234 c 0
EndSplineSet
EndChar

StartChar: tml_Pa
Encoding: 25 2986 24
GlifName: tml_P_a
Width: 867
VWidth: 0
GlyphClass: 2
Flags: HMW
AnchorPoint: "Anchor-3" 685 441 basechar 0
AnchorPoint: "Anchor-0" 432 713 basechar 0
AnchorPoint: "Anchor-4" 685 0 basechar 0
LayerCount: 2
Fore
SplineSet
88 0 m 1
 90.556640625 25.4814453125 93.1630859375 53.978515625 94 147 c 2
 94 554 l 1
 116.362304688 557.639648438 159.083007812 561.139648438 184 561 c 1
 184 56 l 1
 416 56 l 2
 509.298828125 56 617.961914062 56.287109375 685 64.6904296875 c 1
 685 420.099609375 l 2
 684.620117188 450.930664062 683.35546875 510.805664062 680 554 c 1
 707.74609375 554.692382812 753.967773438 558.69140625 775 560 c 1
 775 77 l 2
 774.503785094 51.9280485611 775.778320312 26.71484375 777 0 c 1
 88 0 l 1
EndSplineSet
Colour: ffffff
EndChar

StartChar: tml_Ma
Encoding: 26 2990 25
GlifName: tml_M_a
Width: 915
VWidth: 0
GlyphClass: 2
Flags: HMW
AnchorPoint: "Anchor-2" 605 586 basechar 0
AnchorPoint: "Anchor-3" 704 552 basechar 0
AnchorPoint: "Anchor-0" 424 751 basechar 0
LayerCount: 2
Back
SplineSet
556 0 m 6
 722.641601562 0 820.950195312 99.1689453125 822 266 c 4
 823.058401474 434.19722395 745.996954397 568.155366556 600 567 c 4
 522.630010552 566.387722171 439.397460938 527.958007812 438 399 c 6
 434 30 l 4
 511 30 l 5
 514 397 l 6
 514.771484375 490.0546875 571.90234375 509.397460938 614 509 c 4
 719.163085938 508.006835938 776.47283902 380.137728035 776 269 c 4
 775.483398438 147.576171875 721.325195312 48 555 48 c 6
 184 48 l 5
 184 560 l 5
 161.083007812 560.139648438 112.362304688 555.639648438 96 552 c 5
 96 147 l 6
 96 103.978515625 92.556640625 25.4814453125 90 0 c 5
 556 0 l 6
EndSplineSet
Fore
SplineSet
90 0 m 5
 92.556640625 25.4814453125 95.1630859375 53.978515625 96 147 c 6
 96 554 l 5
 118.362304688 557.639648438 161.083007812 561.139648438 186 561 c 5
 186 56 l 5
 616 61 l 6
 729.11918218 62.7080078125 773.949634308 148.262695312 776 267 c 4
 778.197101955 398.14907509 706.260998604 527.924756263 616 529 c 4
 573.395229432 529.42909852 532.749203159 509.36602993 532 415 c 6
 529 35 l 5
 440 35 l 5
 444 420 l 6
 445.223251639 541.880515696 519.960213162 586.39468103 605 587 c 4
 744.067155704 588.232291667 835.955025133 436.810416667 835 267 c 4
 833.998267547 102.169334288 759.138408304 0 574 0 c 6
 90 0 l 5
EndSplineSet
Colour: ffffff
EndChar

StartChar: tml_Ya
Encoding: 27 2991 26
GlifName: tml_Y_a
Width: 996
VWidth: 0
GlyphClass: 2
Flags: HMW
AnchorPoint: "Anchor-2" 875 558 basechar 0
AnchorPoint: "Anchor-3" 810 441 basechar 0
AnchorPoint: "Anchor-4" 811 0 basechar 0
AnchorPoint: "Anchor-0" 483 751 basechar 0
LayerCount: 2
Fore
SplineSet
95 554 m 5
 124.080078125 557.068359375 174.397460938 561.466796875 190 561 c 5
 193 125 l 6
 193.477539062 58.3388671875 236.150390625 40.6650390625 285 41 c 4
 361.692382812 41.5927734375 427.556640625 114.935546875 428 181 c 5
 462 179 l 5
 462.924804688 98.953125 400.344726562 -14.2587890625 265 -15 c 4
 175.626953125 -15.4892578125 100.122070312 23.28515625 99 138 c 6
 95 554 l 5
423 554 m 5
 452.05859375 557.639648438 495.557617188 561.139648438 512 561 c 5
 512 56 l 5
 619 56 l 6
 649.51953125 56 752.901367188 59.89453125 809 65.6904296875 c 5
 809 446.099609375 l 6
 808.620117188 470.125 806.35546875 520.340820312 804 554 c 5
 833.25390625 554.692382812 878.825195312 557.69140625 901 560 c 5
 901 0 l 5
 443 -1 l 5
 445.158203125 27.798828125 445.68359375 86.9375 445.930664062 122 c 5
 426.993164062 120.428710938 426 118.764648438 426 117 c 6
 426 448 l 6
 426 465.28515625 425.205078125 520.166015625 423 554 c 5
EndSplineSet
Colour: ffffff
EndChar

StartChar: tml_Ra
Encoding: 28 2992 27
GlifName: tml_R_a
Width: 684
VWidth: 0
GlyphClass: 2
Flags: HMW
AnchorPoint: "Anchor-3" 384 560 basechar 0
AnchorPoint: "Anchor-0" 360 751 basechar 0
LayerCount: 2
Back
SplineSet
88 -200 m 5
 191.1171875 -112.583007812 314.13671875 -4.611328125 358 34 c 5
 449 0 l 5
 443 -17 l 5
 321.944335938 -92.5556640625 216.20703125 -159.13671875 102 -233 c 5
 99.453125 -229.26171875 90.39453125 -218.456054688 88 -200 c 5
EndSplineSet
Refer: 37 3006 S 1 0 0 1 -23 0 2
Fore
SplineSet
111 -200 m 1
 214.1171875 -112.583007812 337.13671875 -4.611328125 381 34 c 1
 472 0 l 1
 466 -17 l 1
 344.944335938 -92.5556640625 239.20703125 -159.13671875 125 -233 c 1
 122.453125 -229.26171875 113.39453125 -218.456054688 111 -200 c 1
EndSplineSet
Refer: 37 3006 N 1 0 0 1 0 -2 2
Substitution2: "Single Substitution lookup 23 subtable" tml_MatraAa
Colour: ffffff
EndChar

StartChar: tml_Rra
Encoding: 29 2993 28
GlifName: tml_R_ra
Width: 880
VWidth: 0
GlyphClass: 2
Flags: HMW
AnchorPoint: "Anchor-2" 604 583 basechar 0
AnchorPoint: "Anchor-3" 657 561 basechar 0
AnchorPoint: "Anchor-0" 472.001 751 basechar 0
LayerCount: 2
Back
SplineSet
677 109 m 5
 679 152.86013986 679.291015625 179.441612681 679 221 c 4
 678.532021265 352.586463437 674.89682627 528.385438575 548 526 c 4
 499.424651274 525.166960272 445.211460306 486.362304688 439 437 c 5
 425 405 l 5
 425.294921875 417.466796875 403.469778344 462.030022274 406.498046875 474 c 4
 415.909521206 511.201171875 465.396636953 585.326867553 560 586 c 4
 746.73092907 587.316570199 781.009174312 381 780 220 c 4
 779.455078125 176.137421675 780 161.612304688 778 107 c 5
 779.110351562 11.4208984375 734.762851308 -176.141312404 454 -175 c 6
 208 -174 l 6
 147.729894361 -173.754999571 85.3137086702 -195.051597562 84 -242 c 4
 83.4491323414 -261.686523438 93.6277422896 -278.707990665 116.15234375 -280 c 4
 130.560823323 -280.826469234 148.495539833 -277.59765625 168 -256 c 5
 175.703125 -263.1328125 184.173828125 -279.317382812 185 -287 c 5
 183.516601562 -327.208007812 154.016601562 -353.887695312 103 -353.887695312 c 5
 28.259765625 -354.947265626 3.71913558148 -299.750046498 3 -263 c 4
 1.09386888587 -165.590820312 92.5647526798 -116.370748876 231 -117 c 6
 451 -118 l 6
 632.423727251 -118.821036405 678.020507812 5.2314453125 677 109 c 5
106 0 m 5
 106.787109375 16.5615234375 110.446289062 38.3916015625 109.926757812 139 c 5
 111.700195312 422.177734375 l 6
 112.306025862 518.915128534 180.768555229 583.820270699 272 585 c 4
 334.228515625 585.8046875 398.560546875 550.559570312 426.092773438 490 c 5
 441.369140625 453 l 5
 441 443.249023438 l 5
 441 0 l 5
 411.919921875 -3.068359375 384.602539062 -5.466796875 349 -5 c 5
 349 401.926757812 l 5
 350.302734375 507.208984375 306.801757812 527.807617187 259 527 c 4
 213.789040613 526.236154704 170.756835938 492.826171875 172.091796875 416.826171875 c 5
 169 0 l 5
 106 0 l 5
EndSplineSet
Fore
SplineSet
40 -263 m 0
 38.09375 -165.590820312 129.995117188 -115.3984375 268 -117 c 2
 459 -118.868164062 l 1
 674.20703125 -114.6328125 697.047851562 77.765625 698 255 c 0
 699.012695312 443.6796875 646.165039062 528.00390625 558 526 c 0
 516.467773438 525.055664062 463.698242188 486.362304688 458 437 c 1
 444 405 l 1
 444.294921875 417.466796875 414.422851562 460.041992188 417.498046875 472 c 0
 427.043945312 509.12109375 483.276367188 583.518554688 576 586 c 0
 673.509765625 588.609375 798.930664062 517.956054688 800 271 c 0
 800.55078125 142.547851562 781.67578125 -161.915039062 475 -175.15234375 c 1
 245 -174 l 2
 185 -174 122.313476562 -195.051757812 121 -242 c 0
 120.44921875 -261.686523438 130.627929688 -278.708007812 153.15234375 -280 c 0
 167.560546875 -280.826171875 185.495117188 -277.59765625 205 -256 c 1
 212.703125 -263.1328125 221.173828125 -279.317382812 222 -287 c 1
 220.516601562 -327.208007812 191.016601562 -353.887695312 140 -353.887695312 c 0
 65.259765625 -354.947265625 40.71875 -299.75 40 -263 c 0
125 0 m 1
 125.987304688 16.5615234375 130.578125 48.3916015625 129.926757812 139 c 1
 131.700195312 422.177734375 l 2
 132.305664062 518.915039062 200.768554688 583.8203125 292 585 c 0
 354.228515625 585.8046875 418.560546875 550.559570312 446.092773438 490 c 1
 461.369140625 453 l 1
 461 443.249023438 l 1
 461 0 l 1
 431.919921875 -3.068359375 404.602539062 -5.466796875 369 -5 c 1
 369 401.926757812 l 1
 370.302734375 507.208984375 326.801757812 527.807617188 279 527 c 0
 233.7890625 526.236328125 190.756835938 492.826171875 192.091796875 416.826171875 c 1
 189 0 l 1
 125 0 l 1
EndSplineSet
Colour: ffffff
EndChar

StartChar: tml_La
Encoding: 30 2994 29
GlifName: tml_L_a
Width: 1133
VWidth: 0
GlyphClass: 2
Flags: HMW
AnchorPoint: "Anchor-2" 860 590 basechar 0
AnchorPoint: "Anchor-3" 799 529 basechar 0
AnchorPoint: "Anchor-0" 577 751 basechar 0
LayerCount: 2
Back
SplineSet
85 251 m 4
 85.4306640625 449.296128931 212.650390625 568 386 568 c 4
 442.388873166 568 503.615234375 557.560374518 557 520.716796875 c 4
 624.89938447 477.511777581 674.303622159 398.161965103 693 277 c 4
 710.92209982 151.138603042 727.716433043 46.7552314814 828 47 c 4
 935.432473649 47.2305108858 982.14371323 162.91303738 982 247 c 4
 981.759306753 385.717754695 929.895172991 447.473281286 865 485.159179688 c 4
 841.815324611 499.386247475 788.120510761 509.932562721 765.12109375 509.540039062 c 5
 769.450682312 529.10546875 800.040125935 575.568359375 838 577.418945312 c 5
 904.790486353 547.440429688 1031.79909264 464.72040651 1034.07128906 256 c 4
 1035.23032162 147.346837866 977.503178333 -18.9393386166 823.140625 -21 c 4
 753.130577543 -21.9587800702 687.06085209 4.86299736555 651.459960938 68 c 4
 625.862304688 111.36328125 616.258029277 172.948719512 603 253 c 4
 576.608961345 409.658284806 506.039313975 506 366 506 c 4
 237.819335938 506 138.0546875 401.817721302 139 260 c 4
 139.897460938 122.655273438 228.31640625 32.978515625 320 33 c 4
 407.336914062 33.0205078125 445.682617188 88.4541015625 446 142 c 4
 446.30078125 190.03125 405.341796875 224.845703125 354 225 c 4
 305.694335938 225.139648438 244.918945312 185.250976562 240 120 c 4
 236.546875 71.5732421875 247.935546875 53.80078125 258 28 c 5
 241 12 l 5
 220.970703125 34.0234375 195.391601562 51.970703125 198.252929688 118 c 4
 202.935546875 226.059570312 281.18359375 301.76953125 381 301 c 4
 457.931640625 300.407226562 524.66015625 247.987304688 524 157 c 4
 523.4609375 82.751953125 474.380859375 -15.8037109375 337 -21 c 4
 178.947265625 -26.978515625 84.6982421875 110.0546875 85 251 c 4
EndSplineSet
Fore
SplineSet
80 249 m 0
 80.4306640625 461.423828125 222.77734375 583 413 583 c 0
 479.388671875 583 547.079101562 559.1328125 597 517.716796875 c 0
 653.899414062 470.51171875 689.717773438 398.372070312 707 277 c 0
 724.921875 151.138671875 748.716796875 48.8046875 851 49 c 0
 969.432617188 49.2255859375 992.829101562 164.912109375 994 248 c 0
 995.208007812 333.708007812 960.171875 448.91015625 892 488.159179688 c 0
 862.555664062 506.936523438 822.120117188 523.932617188 799.12109375 528.540039062 c 1
 794.450195312 558.10546875 822.040039062 588.568359375 860 590.418945312 c 1
 926.790039062 563.440429688 1051.59082031 447.717773438 1052.07128906 247 c 0
 1052.31933594 143.33984375 1004.50585938 -17.197265625 834.140625 -19 c 0
 754.129882812 -19.8466796875 693.060546875 14.86328125 661.459960938 70 c 0
 636.420898438 113.688476562 624.479492188 174.985351562 611 255 c 0
 584.609375 411.658203125 512 518 377 517 c 0
 229.990234375 515.911132812 137.044921875 409.700195312 138 255 c 0
 138.84765625 117.655273438 245.31640625 29.9775390625 334 30 c 0
 418.51953125 30.021484375 453.6796875 83.4541015625 454 137 c 0
 454.288085938 185.03125 415.109375 219.858398438 366 220 c 0
 317.694335938 220.139648438 256.654296875 180.270507812 252 115 c 0
 248.546875 66.5732421875 259.935546875 48.80078125 270 23 c 1
 253 7 l 1
 232.970703125 29.0234375 207.391601562 46.970703125 210.252929688 113 c 0
 214.935546875 221.059570312 291.18359375 296.76953125 391 296 c 0
 467.931640625 295.407226562 536.66015625 238.987304688 536 148 c 0
 535.4609375 73.751953125 485.381835938 -24.8681640625 345 -26 c 0
 177.83984375 -27.34765625 79.7138671875 108.0546875 80 249 c 0
EndSplineSet
Colour: ffffff
EndChar

StartChar: tml_Lla
Encoding: 31 2995 30
GlifName: tml_L_la
Width: 1242
VWidth: 0
GlyphClass: 2
Flags: HMW
AnchorPoint: "Anchor-3" 918 561 basechar 0
AnchorPoint: "Anchor-0" 617 751 basechar 0
LayerCount: 2
Back
SplineSet
444.607421875 511 m 5
 263.723632812 512.3203125 107.696289062 419.411132812 109 233 c 4
 109.890625 105.655273438 212.891601562 27.978515625 306 28 c 4
 396.802734375 28.0205078125 436.669921875 83.4541015625 437 137 c 4
 437.317382812 188.50390625 394.131835938 225.834960938 340 226 c 4
 291.694335938 226.147460938 230.918945312 183.979492188 226 115 c 4
 222.546875 66.5732421875 233.935546875 48.80078125 244 23 c 5
 227 7 l 5
 206.970703125 29.0234375 181.391601562 46.970703125 184.252929688 113 c 4
 188.935546875 221.059570312 267.18359375 296.76953125 367 296 c 4
 443.931640625 295.407226562 510.66015625 241.987304688 510 151 c 4
 509.4609375 76.751953125 467.391601562 -23.0830078125 330 -28 c 4
 162.947265625 -33.978515625 63.701171875 100.0546875 64 231 c 4
 64.37109375 393.540039062 160.546875 504.970703125 324 543.45703125 c 4
 364.12890625 552.90625 415.599609375 554.3046875 452 554 c 4
 568.814453125 553.022460938 736.483398438 554.47265625 890 564 c 5
 895.4296875 553.666992188 902.404296875 527.333007812 904 510 c 5
 716 510 l 5
 716 0 l 5
 685.108398438 -0.12890625 655.163085938 -0.1416015625 629 0 c 5
 631 370 l 4
 631.70703125 433.681640625 632.791015625 465.51171875 632 510 c 5
 444.607421875 511 l 5
EndSplineSet
Fore
SplineSet
80 256 m 0
 80.4306640625 465.423828125 215.77734375 583 396 583 c 0
 531.259765625 583 647.181640625 493.908203125 683 393 c 9
 657 337 645.479492188 180.985351562 632 261 c 0
 605.609375 417.658203125 522 518 377 517 c 0
 229.989257812 515.986328125 134.0546875 409.700195312 135 255 c 0
 135.84765625 117.655273438 245.31640625 29.978515625 334 30 c 0
 421.336914062 30.021484375 457.682617188 83.4541015625 458 137 c 0
 458.30078125 185.03125 417.341796875 219.845703125 366 220 c 0
 317.694335938 220.139648438 256.918945312 180.250976562 252 115 c 0
 248.546875 66.5732421875 259.935546875 48.80078125 270 23 c 1
 253 7 l 1
 232.970703125 29.0234375 207.391601562 46.970703125 210.252929688 113 c 0
 214.935546875 221.059570312 291.18359375 296.76953125 391 296 c 0
 467.931640625 295.407226562 536.66015625 238.987304688 536 148 c 0
 535.4609375 73.751953125 485.381835938 -24.8681640625 345 -26 c 0
 177.83984375 -27.34765625 79.7099609375 115.0546875 80 256 c 0
611 0 m 1
 611 0 610.872070312 158.272460938 611 364 c 0
 611.008789062 378.879882812 654.067382812 354.216796875 654 370 c 0
 653.696289062 443.327148438 654.577148438 501.6953125 652 559 c 1
 789.815429688 559.265625 1039.48339844 559.47265625 1193 569 c 1
 1198.4296875 557.474609375 1205.40429688 530.333007812 1207 511 c 1
 1167.59277344 511.266601562 1067.81054688 510.958984375 1026 511 c 1
 1026 0 l 1
 993.025390625 -0.12890625 958.926757812 -0.1416015625 931 0 c 1
 933 370 l 2
 933.70703125 433.681640625 934.791015625 466.51171875 934 511 c 1
 836.756835938 511.69140625 757.053710938 511.171875 705.607421875 511 c 1
 705.98828125 458.611328125 705 409.990234375 706 347 c 1
 706 0 l 1
 611 0 l 1
EndSplineSet
Colour: ffffff
EndChar

StartChar: tml_Llla
Encoding: 32 2996 31
GlifName: tml_L_lla
Width: 925
VWidth: 0
GlyphClass: 2
Flags: HMW
AnchorPoint: "Anchor-3" 717 561 basechar 0
AnchorPoint: "Anchor-0" 441 751 basechar 0
LayerCount: 2
Back
SplineSet
48 -227 m 4
 47.3837890625 -123.344726562 145.180664062 -70 222 -70 c 5
 232.040039062 -77.4990234375 242.916015625 -96.5869140625 240 -111 c 5
 149.051757812 -113.106445312 97 -162.491210938 97 -221 c 4
 97 -261.272460938 127.6484375 -301.444335938 192 -302 c 4
 222.674804688 -302.264648438 257.747070312 -289.116210938 277 -248 c 5
 293.93359375 -217.956054688 333.55859375 -125.540039062 420 -123 c 5
 487 -123 l 5
 558 -170 l 5
 524.96552748 -170.268025193 455.772460938 -166.67578125 432 -174 c 5
 358.96484375 -181.415039062 364.541015625 -350.918945312 207 -354 c 4
 101.405273438 -356.065429688 48.423828125 -298.365234375 48 -227 c 4
432 16 m 5
 509 15 l 5
 509 -56 l 6
 509 -116.0546875 531.219726562 -124 568 -124 c 4
 593 -124 670 -122 696 -120 c 5
 697 -133.8125 696 -156 693 -171 c 5
 530 -170 l 6
 465.128548885 -169.602015637 432 -140.01953125 432 -45 c 6
 432 16 l 5
EndSplineSet
Refer: 25 2990 S 1 0 0 1 0 13 2
Fore
SplineSet
80 -241 m 0
 79.328125 -135.344726562 177.180664062 -75 264 -75 c 1
 274.040039062 -82.4990234375 288.916015625 -114.586914062 286 -129 c 1
 195.051757812 -131.106445312 134 -168.491210938 134 -231 c 0
 134 -271.272460938 166.64745529 -306.571119632 228 -307 c 0
 267.674804688 -307.27734375 294.747070312 -283.116210938 314 -255 c 0
 364.93359375 -175.956054688 398.55859375 -138.540039062 505 -136 c 1
 534 -126 l 1
 611 -185 l 1
 577.965820312 -185.267578125 544.772460938 -184.67578125 521 -185 c 1
 417.96484375 -192.415039062 410.539051227 -363.858737813 233 -367 c 0
 129.401367188 -368.833007812 80.4156674829 -306.365524186 80 -241 c 0
452 16 m 1
 539 15 l 1
 539 -30 l 2
 539 -99.2395220588 586.219726562 -128 623 -128 c 0
 648 -128 688 -126 714 -124 c 1
 715 -137.8125 714 -170 711 -185 c 1
 619 -185 l 2
 554.12890625 -185 452 -143.005335366 452 -49 c 2
 452 16 l 1
EndSplineSet
Refer: 25 2990 N 1 0 0 1 10 13 2
Colour: ffffff
EndChar

StartChar: tml_Va
Encoding: 33 2997 32
GlifName: tml_V_a
Width: 1125
VWidth: 0
GlyphClass: 2
Flags: HMW
AnchorPoint: "Anchor-3" 945 441 basechar 0
AnchorPoint: "Anchor-4" 947 0 basechar 0
AnchorPoint: "Anchor-0" 544 751 basechar 0
LayerCount: 2
Back
SplineSet
431.607421875 510 m 5
 484.405273438 510.171875 521.202148438 511.69140625 621 511 c 5
 621.791015625 466.51171875 620.70703125 433.681640625 620 370 c 4
 618 0 l 5
 644.163085938 -0.1416015625 674.108398438 -0.12890625 705 0 c 5
 705 511 l 5
 748.196289062 510.958984375 852.286132812 511.266601562 893 511 c 5
 891.404296875 528.333007812 884.4296875 552.666992188 879 563 c 5
 725.483398438 553.47265625 555.814453125 552.022460938 439 553 c 4
 402.599609375 553.3046875 351.12890625 549.90625 311 540.45703125 c 4
 147.546875 501.970703125 54.37109375 389.540039062 54 223 c 4
 53.7080078125 92.0546875 145.833984375 -28.2314453125 304 -28 c 4
 438.380859375 -27.8037109375 498.4609375 72.751953125 499 147 c 4
 499.66015625 237.987304688 435.931640625 296.413085938 350 297 c 4
 249.18359375 297.688476562 180.935546875 219.059570312 179.252929688 118 c 4
 178.15234375 51.91796875 199.970703125 29.0234375 220 7 c 5
 237 23 l 5
 226.935546875 48.80078125 216.03125 73.490234375 218 122 c 4
 220.918945312 189.979492188 280.694335938 226.147460938 329 226 c 4
 383.131835938 225.834960938 426.317382812 188.50390625 426 137 c 4
 425.669921875 83.4541015625 382.802734375 28.0185546875 292 28 c 4
 188.891601562 27.978515625 98.890625 105.655273438 98 233 c 4
 96.6962890625 419.411132812 243.723632812 511.3203125 431.607421875 510 c 5
EndSplineSet
Fore
SplineSet
80 244 m 4
 80.4306640625 458.423828125 230.815429688 586.826171875 422 584 c 4
 608.759765625 581.239257812 746.408203125 453.870117188 748 250 c 4
 748.790039062 158.431640625 722.012695312 75.56640625 694.517578125 9 c 5
 698.459960938 22.21875 636.213867188 45.427734375 640 56 c 5
 732.637695312 55.654296875 882.708984375 58.7001953125 945 65.6904296875 c 5
 945 420.099609375 l 6
 945 451 943.35546875 510.805664062 940 554 c 5
 967.74609375 554.692382812 1013.96777344 558.69140625 1035 560 c 5
 1035 77 l 6
 1034.50390625 51.927734375 1035.77832031 26.71484375 1037 0 c 5
 611 0 l 5
 597 18 l 5
 628.951171875 79.9873046875 654.018554688 146.705078125 655 246 c 4
 656.522460938 400.067382812 555 521.073242188 401 522 c 4
 241.822265625 522.969726562 137.0546875 404.700195312 138 250 c 4
 138.84765625 112.655273438 245.31640625 28.978515625 334 29 c 4
 421.336914062 29.021484375 457.682617188 83.4541015625 458 137 c 4
 458.30078125 185.03125 417.341796875 219.845703125 366 220 c 4
 317.694335938 220.139648438 256.918945312 180.250976562 252 115 c 4
 248.546875 66.5732421875 259.935546875 48.80078125 270 23 c 5
 253 7 l 5
 232.970703125 29.0234375 207.391601562 46.970703125 210.252929688 113 c 4
 214.935546875 221.059570312 291.18359375 296.76953125 391 296 c 4
 467.931640625 295.407226562 536.66015625 242.987304688 536 152 c 4
 535.4609375 77.751953125 490.381835938 -24.8681640625 354 -26 c 4
 186.83984375 -27.3876953125 79.716796875 103.0546875 80 244 c 4
EndSplineSet
Colour: ffffff
EndChar

StartChar: tml_Sha
Encoding: 34 2998 33
GlifName: tml_S_ha
Width: 1104
VWidth: 0
GlyphClass: 2
Flags: HMW
AnchorPoint: "Anchor-2" 751 558 basechar 0
AnchorPoint: "Anchor-3" 860 541 basechar 0
AnchorPoint: "Anchor-0" 528 751 basechar 0
LayerCount: 2
Fore
SplineSet
90 551 m 1
 119.080078125 554.068359375 165.397460938 558.466796875 181 558 c 1
 184 165 l 2
 184.598632812 86.619140625 226.405273438 41.41796875 299 42 c 0
 360.997070312 42.4970703125 400.743164062 97.919921875 401.913085938 184.233398438 c 2
 405 412 l 2
 405.474609375 446.994140625 401.556640625 532.865234375 399 558 c 1
 758 558 l 2
 924.641601562 558 1022.97558594 449.624023438 1024 286 c 0
 1025.07128906 114.942382812 947.998046875 -14.001953125 802 -13 c 0
 712.2421875 -12.3837890625 632.4296875 30.2919921875 631 160 c 2
 627 523 l 1
 713 523 l 1
 716 156 l 2
 716.750976562 64.1171875 773.90234375 45.5751953125 816 46 c 0
 914.705078125 46.9970703125 963.465820312 167.385742188 963 279 c 0
 962.5 398.826171875 898.056640625 505 747 505 c 2
 460 505 l 1
 459.657226562 181.810546875 l 2
 459.541992188 73.47265625 411.250976562 -16.9130859375 268 -16 c 0
 192.474609375 -15.5185546875 95.0751953125 33.2841796875 94 143 c 2
 90 551 l 1
EndSplineSet
Colour: ffffff
EndChar

StartChar: tml_Ssa
Encoding: 35 2999 34
GlifName: tml_S_sa
Width: 1482
VWidth: 0
GlyphClass: 2
Flags: HMW
AnchorPoint: "Anchor-2" 973 565 basechar 0
AnchorPoint: "Anchor-3" 1090 511 basechar 0
AnchorPoint: "Anchor-0" 535 751 basechar 0
LayerCount: 2
Fore
SplineSet
80 244 m 4
 80.4306640625 458.423828125 230.815429688 586.826171875 422 584 c 4
 608.759765625 581.239257812 746.408203125 453.870117188 748 250 c 4
 748.790039062 158.431640625 722.012695312 75.56640625 694.517578125 9 c 5
 698.459960938 22.21875 636.213867188 45.427734375 640 56 c 5
 845.302734375 53.369140625 1199.56445312 57.51171875 1307.04492188 66.0673828125 c 5
 1306.34179688 301 l 5
 1333 298 l 5
 1299.27636719 246.471679688 1215.58496094 198.518554688 1096 198.5078125 c 4
 918.557617188 198.4921875 815.181640625 304.6171875 815.181640625 405.494140625 c 4
 815.181640625 515.838867188 900.427734375 565.013671875 973 565.569335938 c 4
 1049.65039062 566.15625 1130 516.11328125 1129 409.685546875 c 5
 1129 -250 l 5
 1043 -250 l 5
 1043 401 l 6
 1043 478.05859375 1004.49707031 502.244140625 965 501.37890625 c 4
 920.594726562 500.40625 881 467.858398438 881 408 c 4
 881 317.676757812 987.169921875 257.26953125 1095 260.70703125 c 4
 1273.1953125 266.387695312 1344.01464844 374.255859375 1380 414 c 5
 1401.35742188 416 l 5
 1398.6328125 381.870117188 1398 329.002929688 1398 312 c 6
 1398 0 l 5
 611 0 l 5
 597 18 l 5
 628.951171875 79.9873046875 654.018554688 146.705078125 655 246 c 4
 656.522460938 400.067382812 555 521.073242188 401 522 c 4
 241.822265625 522.969726562 137.0546875 404.700195312 138 250 c 4
 138.84765625 112.655273438 245.31640625 28.978515625 334 29 c 4
 421.336914062 29.021484375 457.682617188 83.4541015625 458 137 c 4
 458.30078125 185.03125 417.341796875 219.845703125 366 220 c 4
 317.694335938 220.139648438 256.918945312 180.250976562 252 115 c 4
 248.546875 66.5732421875 259.935546875 48.80078125 270 23 c 5
 253 7 l 5
 232.970703125 29.0234375 207.391601562 46.970703125 210.252929688 113 c 4
 214.935546875 221.059570312 291.18359375 296.76953125 391 296 c 4
 467.931640625 295.407226562 536.66015625 242.987304688 536 152 c 4
 535.4609375 77.751953125 490.381835938 -24.8681640625 354 -26 c 4
 186.83984375 -27.3876953125 79.716796875 103.0546875 80 244 c 4
EndSplineSet
Colour: ffffff
EndChar

StartChar: tml_Sa
Encoding: 36 3000 35
GlifName: tml_S_a
Width: 1424
VWidth: 0
GlyphClass: 2
Flags: HMW
AnchorPoint: "Anchor-3" 1090 529 basechar 0
AnchorPoint: "Anchor-2" 1151 590 basechar 0
AnchorPoint: "Anchor-0" 753 751 basechar 0
LayerCount: 2
Back
SplineSet
653 583 m 0
 719.388671875 583 787.078867421 559.132530276 837 517.716796875 c 0
 893.899414062 470.51171875 929.717402551 398.371824565 947 277 c 0
 964.921875 151.138671875 988.716795946 48.8051748494 1091 49 c 0
 1209.43261719 49.2255859375 1232.82892135 164.912111915 1234 248 c 0
 1235.20800781 333.708007812 1200.17164346 448.910331999 1132 488.159179688 c 0
 1102.55566406 506.936523438 1062.12011719 523.932617188 1039.12109375 528.540039062 c 1
 1034.45019531 558.10546875 1062.04003906 588.568359375 1100 590.418945312 c 1
 1166.79003906 563.440429688 1291.59099442 447.717773855 1292.07128906 247 c 0
 1292.31933594 143.33984375 1244.50585849 -17.1971822944 1074.140625 -19 c 0
 994.129882812 -19.8466796875 933.060379553 14.8631853527 901.459960938 70 c 0
 876.420898438 113.688476562 864.479279126 174.985235392 851 255 c 0
 824.609375 411.658203125 752 518 617 517 c 1024
EndSplineSet
Fore
SplineSet
611 0 m 1
 611 0 610.87890625 158.272460938 611 364 c 0
 611.008789062 378.879882812 654.237304688 354.21875 654 370 c 0
 653.392578125 391.7265625 650.747070312 405.569335938 650 426 c 0
 648.397460938 504.154296875 704.817382812 577.716796875 793 577.716796875 c 0
 937.7890625 577.716796875 975.52734375 430.810546875 998 281 c 0
 1017.04980469 153.120117188 1039.42675781 48.8046875 1141 49 c 0
 1260.26074219 49.2255859375 1283.8203125 164.912109375 1285 248 c 0
 1286.20800781 333.708007812 1249.32421875 445.86328125 1183 488.159179688 c 0
 1153.55566406 506.936523438 1113.12011719 523.932617188 1090.12109375 528.540039062 c 1
 1085.45019531 558.10546875 1113.04003906 588.568359375 1151 590.418945312 c 1
 1217.79003906 563.440429688 1342.59082031 447.717773438 1343.07128906 247 c 0
 1343.31933594 143.33984375 1295.50585938 -17.197265625 1125.140625 -19 c 0
 1045.12988281 -19.8466796875 984.528320312 15.1337890625 952.459960938 70 c 0
 926.924804688 113.688476562 910.694335938 174.413085938 901 255 c 0
 884.721679688 390.319335938 856.303710938 479.974609375 784.607421875 481 c 0
 738.307617188 481.662109375 706 446.9453125 706 377 c 2
 706 0 l 1
 611 0 l 1
80 256 m 0
 80.4306640625 465.423828125 215.77734375 583 396 583 c 0
 531.259765625 583 647.181640625 493.908203125 683 393 c 1
 657 337 645.479492188 180.985351562 632 261 c 0
 605.609375 417.658203125 522 518 377 517 c 0
 229.989257812 515.986328125 134.044921875 409.700195312 135 255 c 0
 135.84765625 117.655273438 245.31640625 29.978515625 334 30 c 0
 421.336914062 30.021484375 457.665039062 83.4541015625 458 137 c 0
 458.30078125 185.03125 417.341796875 219.8515625 366 220 c 0
 317.694335938 220.139648438 256.654296875 180.270507812 252 115 c 0
 248.546875 66.5732421875 259.935546875 48.80078125 270 23 c 1
 253 7 l 1
 232.970703125 29.0234375 207.391601562 46.970703125 210.252929688 113 c 0
 214.935546875 221.059570312 291.18359375 296.76953125 391 296 c 0
 467.931640625 295.407226562 536.66015625 238.987304688 536 148 c 0
 535.4609375 73.751953125 485.381835938 -24.8681640625 345 -26 c 0
 177.83984375 -27.34765625 79.7099609375 115.0546875 80 256 c 0
EndSplineSet
Colour: ffffff
EndChar

StartChar: tml_Ha
Encoding: 37 3001 36
GlifName: tml_H_a
Width: 1708
VWidth: 0
GlyphClass: 2
Flags: HMW
AnchorPoint: "Anchor-3" 1457 561 basechar 0
AnchorPoint: "Anchor-0" 898 751 basechar 0
LayerCount: 2
Back
SplineSet
1582 259 m 4
 1582.64941406 20.7119140625 1486.68554688 -162.0390625 1289 -186.356445312 c 4
 1037.17675781 -217.333007812 643.575195312 -197.157226562 513 -207.15234375 c 4
 401.449203234 -215.691203549 200.482421875 -225.306640625 186 -309 c 5
 202.15234375 -244 l 5
 212.229492188 -278 224.649414062 -329 233 -363 c 5
 211.735351562 -368.627929688 175.498046875 -371.370117188 157 -370.887695312 c 4
 133.692382812 -369.530273438 126.819335938 -353.458984375 127 -337 c 4
 128.610351562 -190.537109375 372.479492188 -174.19921875 523 -161.868164062 c 4
 652.274414062 -151.27734375 1060.99707031 -169.885742188 1229 -137.6953125 c 5
 1434.41015625 -114.231445312 1488.47363281 36.9150390625 1489 261 c 4
 1489.28320312 381.671875 1453.33554284 510.83400092 1339 510 c 4
 1287.87616781 509.627086013 1244.64160156 466.362304688 1239 417 c 6
 1225 385 l 5
 1225.29492188 397.466796875 1195.42285156 440.041992188 1198.49804688 452 c 5
 1207.72558594 489.201171875 1256.24730969 559.112319923 1349 560 c 4
 1486.54980469 561.31640625 1581.46582031 455.013671875 1582 259 c 4
1245 423.249023438 m 5
 1245 1 l 5
 1215.91992188 -2.068359375 1200.60253906 -4.466796875 1165 -4 c 5
 1165 351.926757812 l 5
 1166.30273438 467.208984375 1114.80175781 512.807617188 1063 512 c 4
 1017.78808594 511.294921875 975.756835938 483.826171875 977.091796875 407.826171875 c 5
 976.284179688 104 l 5
 976.65234375 52.7646484375 979.463867188 32.1611328125 981 -3 c 5
 591 0 l 5
 577 18 l 5
 608.951171875 79.9873046875 632.018554688 141.705078125 633 246 c 4
 634.428710938 400.068359375 533 518.073242188 379 519 c 4
 219.822265625 519.969726562 116.0546875 401.700195312 117 247 c 4
 117.84765625 109.655273438 218.31640625 27.978515625 310 28 c 4
 397.336914062 28.0205078125 435.682617188 83.4541015625 436 137 c 4
 436.30078125 185.03125 395.341796875 219.845703125 344 220 c 4
 295.694335938 220.139648438 234.918945312 180.250976562 230 115 c 4
 226.546875 66.5732421875 237.935546875 48.80078125 248 23 c 5
 231 7 l 5
 210.970703125 29.0234375 185.391601562 46.970703125 188.252929688 113 c 4
 192.935546875 221.059570312 271.18359375 296.76953125 371 296 c 4
 447.931640625 295.407226562 514.66015625 242.987304688 514 152 c 4
 513.4609375 77.751953125 464.380859375 -20.8037109375 327 -26 c 4
 168.947265625 -31.978515625 64.70703125 99.0546875 65 240 c 4
 65.4306640625 450.423828125 210.818359375 579.998046875 402 577 c 4
 580.759765625 574.239257812 722.408203125 453.870117188 724 250 c 4
 724.790039062 158.431640625 699.012695312 75.56640625 671.517578125 9 c 5
 675.459960938 22.21875 614.213867188 36.427734375 618 47 c 5
 740.637695312 45.654296875 817.708984375 48.7001953125 930 52.6904296875 c 5
 927 14 l 5
 922.926757812 139 l 5
 922.700195312 408.177734375 l 5
 923.3203125 504.915039062 983.768554688 559.8203125 1075 561 c 4
 1137.22851562 561.8046875 1198.56054688 530.559570312 1226.09277344 470 c 5
 1245.36914062 443 l 5
 1245 423.249023438 l 5
EndSplineSet
Fore
SplineSet
50 -263 m 0
 48.09375 -165.590820312 139.995117188 -115.3984375 278 -117 c 1
 1287 -118.868164062 l 1
 1502.20703125 -114.6328125 1525.04785156 77.765625 1526 255 c 0
 1527.01269531 443.6796875 1475.1875 525.888671875 1386 526 c 0
 1341.46777344 526.055664062 1291.69824219 486.362304688 1286 437 c 1
 1272 405 l 1
 1272.29492188 417.466796875 1242.42285156 460.041992188 1245.49804688 472 c 0
 1255.04394531 509.12109375 1311.27636719 583.518554688 1404 586 c 0
 1501.50976562 588.609375 1626.93066406 517.956054688 1628 271 c 0
 1628.55078125 142.547851562 1609.67578125 -161.915039062 1303 -175.15234375 c 1
 255 -174 l 2
 195 -174 132.313476562 -195.051757812 131 -242 c 0
 130.44921875 -261.686523438 140.627929688 -278.708007812 163.15234375 -280 c 0
 177.560546875 -280.826171875 195.495117188 -277.59765625 215 -256 c 1
 222.703125 -263.1328125 231.173828125 -279.317382812 232 -287 c 1
 230.516601562 -327.208007812 201.016601562 -353.887695312 150 -353.887695312 c 0
 75.259765625 -354.947265625 50.71875 -299.75 50 -263 c 0
94 250 m 0
 94.4306640625 464.423828125 244.815429688 586.826171875 436 584 c 0
 622.759765625 581.239257812 760.241210938 453.869140625 762 250 c 0
 762.790039062 158.431640625 736.012695312 75.56640625 708.517578125 9 c 1
 712.459960938 22.21875 650.213867188 45.427734375 654 56 c 1
 746.637695312 55.654296875 901.708984375 57.7001953125 964 64 c 1
 964 64 996.463867188 35.1611328125 999 0 c 1
 625 0 l 1
 611 18 l 1
 642.951171875 79.9873046875 668.018554688 146.705078125 669 246 c 0
 670.522460938 400.067382812 569 521.061523438 415 522 c 0
 255.822265625 522.969726562 151.044921875 410.700195312 152 256 c 0
 152.84765625 118.655273438 259.31640625 28.978515625 348 29 c 0
 435.336914062 29.021484375 471.665039062 83.4541015625 472 137 c 0
 472.30078125 185.03125 431.341796875 219.8515625 380 220 c 0
 331.694335938 220.139648438 270.654296875 180.270507812 266 115 c 0
 262.546875 66.5732421875 273.935546875 48.80078125 284 23 c 1
 267 7 l 1
 246.970703125 29.0234375 221.391601562 46.970703125 224.252929688 113 c 0
 228.935546875 221.059570312 305.18359375 296.76953125 405 296 c 0
 481.931640625 295.407226562 550.66015625 242.987304688 550 152 c 0
 549.4609375 77.751953125 504.381835938 -24.8681640625 368 -26 c 0
 200.83984375 -27.3876953125 93.716796875 109.0546875 94 250 c 0
954 0 m 1
 954.787109375 16.5615234375 958.446289062 38.3916015625 957.926757812 139 c 1
 959.700195312 422.177734375 l 2
 960.305664062 518.915039062 1028.76855469 583.8203125 1120 585 c 0
 1182.22851562 585.8046875 1246.56054688 550.559570312 1274.09277344 490 c 1
 1289.36914062 453 l 1
 1289 443.249023438 l 1
 1289 0 l 1
 1259.91992188 -3.068359375 1232.60253906 -5.466796875 1197 -5 c 1
 1197 401.926757812 l 1
 1198.30273438 507.208984375 1154.80175781 527.807617188 1107 527 c 0
 1061.7890625 526.236328125 1018.75683594 493.826171875 1020.09179688 417.826171875 c 1
 1018.00683594 136 l 2
 1018.20898438 73.9140625 1019.00585938 45.224609375 1021 0 c 1
 954 0 l 1
EndSplineSet
Colour: ffffff
EndChar

StartChar: tml_MatraAa
Encoding: 38 3006 37
GlifName: tml_M_atraA_a
Width: 684
VWidth: 0
GlyphClass: 2
Flags: HMW
LayerCount: 2
Back
SplineSet
650 563 m 5
 655.4296875 552.666992188 662.404296875 528.333007812 664 511 c 5
 623.286262718 511.266946152 544.196289062 510.958984375 501 511 c 5
 501 -2 l 5
 470.108398438 -1.12890625 442.163085938 -0.1416015625 416 0 c 5
 416 511 l 5
 316.202148438 511.69140625 227.405273438 511.171875 174.607421875 511 c 5
 175.98828125 485.611328125 177 416.990234375 178 364 c 4
 181 205 182 0 182 0 c 5
 122 0 l 5
 122 0 130 136 129 370 c 4
 128.696289062 440.999023438 127.577148438 500.514648438 124 553 c 5
 261.815429688 553.265625 496.483398438 553.47265625 650 563 c 5
EndSplineSet
Fore
SplineSet
88 0 m 1
 88 0 96 136 95 370 c 0
 94.6962890625 442.938476562 92.5771484375 503.999023438 90 561 c 1
 227.311523438 561.265625 482.044921875 560.47265625 635 570 c 1
 640.4296875 558.673828125 647.404296875 527 649 508 c 1
 609.375 508.266601562 514.041015625 507.958984375 472 508 c 1
 472 0 l 1
 441.802734375 -0.12890625 405.575195312 -0.1416015625 380 0 c 1
 382 370 l 2
 382.70703125 433.681640625 383.791015625 463.51171875 383 508 c 1
 283.202148438 508.69140625 204.405273438 508.171875 151.607421875 508 c 1
 151.98828125 455.611328125 153 416.990234375 154 364 c 0
 157 205 154 0 154 0 c 1
 88 0 l 1
EndSplineSet
Colour: ffffff
EndChar

StartChar: tml_MatraI
Encoding: 39 3007 38
GlifName: tml_M_atraI_
Width: 215
Flags: HMW
LayerCount: 2
Fore
SplineSet
-378 695 m 0
 -378 849.117647059 -271.982156173 957 -133 957 c 0
 28.2746289367 957 125 832.122374165 125 629 c 2
 122.825195312 146 l 1
 120 0 l 1
 60 0 l 1
 62.1618121455 51.5452287722 63.6085691803 105.674669623 64 150 c 2
 67 610 l 2
 68.8139081485 808.176630389 -33.9714230704 872 -139 872 c 0
 -253.974742544 872 -330 795.852370489 -330 691 c 0
 -330 632.573336538 -290.089831238 560.966422579 -238 557 c 1
 -274 530 l 1
 -317.644610915 536.971830986 -378 599.382178935 -378 695 c 0
EndSplineSet
Substitution2: "Single Substitution lookup 24 subtable" tml_MatraI.stylalt1
Substitution2: "Single Substitution lookup 23 subtable" tml_MatraI.alt7
Substitution2: "Single Substitution lookup 22 subtable" tml_MatraI.alt6
Substitution2: "Single Substitution lookup 21 subtable" tml_MatraI.alt5
Substitution2: "Single Substitution lookup 20 subtable" tml_MatraI.alt4
Substitution2: "Single Substitution lookup 19 subtable" tml_MatraI.alt3
Substitution2: "Single Substitution lookup 18 subtable" tml_MatraI.alt2
Substitution2: "Single Substitution lookup 17 subtable" tml_MatraI.alt1
Colour: ffffff
EndChar

StartChar: tml_MatraIi
Encoding: 40 3008 39
GlifName: tml_M_atraI_i
Width: 40
GlyphClass: 4
Flags: HMW
AnchorPoint: "Anchor-3" -78 495 mark 0
LayerCount: 2
Fore
SplineSet
-266 645 m 0
 -266.670267325 813.64658119 -136.511163949 906 -22 906 c 0
 84.4486601983 906 161.429222124 849.112876281 163 769 c 0
 164.489958593 693.009072009 115.383582908 644.626978325 49 644 c 0
 -16.6728516717 643.379734375 -62.416878625 686.607912938 -64 751 c 0
 -65.0965536879 795.601368951 -44.6211498905 834.861482762 -10.7783203125 862.078125 c 1
 22 854 l 1
 -0.862452060405 832.014633148 -20.7553172073 795.983647792 -20 764 c 0
 -19.2163439337 730.816352951 10.3921986512 704.107839055 50 705 c 0
 80.7481681391 705.692598777 97.1435826101 728.243751708 97 763 c 0
 96.7601928417 821.048792468 10.0333558576 845.06004891 -22 844 c 0
 -128.880809141 840.463096599 -210.850965566 768.116315966 -211 648 c 0
 -211.086890994 577.969029018 -151.409822054 508.32643171 -98 505 c 1
 -98 455 l 1
 -183.727697235 456.891323219 -265.560196864 534.340726493 -266 645 c 0
EndSplineSet
Substitution2: "Single Substitution lookup 24 subtable" tml_MatraIi.stylalt1
Substitution2: "Single Substitution lookup 17 subtable" tml_MatraIi.alt1
Colour: ffffff
EndChar

StartChar: tml_MatraU
Encoding: 41 3009 40
GlifName: tml_M_atraU_
Width: 538
Flags: HMW
AnchorPoint: "Anchor-2" -265 580 mark 0
LayerCount: 2
Fore
SplineSet
-265 530 m 1
 -265 580 l 1
 257.527436342 580 408.001512206 580 512 585 c 5
 518 577 l 5
 514 520 l 5
 507.537022877 444.414161101 471.552239147 384.897021483 387 386 c 4
 304.978052898 387.208084075 270.515401566 458.37925712 271.173828125 530.088867188 c 5
 311 530 l 5
 310.380353897 483.827519426 333.297354742 428.095429604 385 428 c 4
 427.495721728 427.931489713 439 482.490639012 439 530 c 5
 -265 530 l 1
EndSplineSet
Substitution2: "Single Substitution lookup 23 subtable" tml_MatraU.alt1
Colour: ffffff
EndChar

StartChar: tml_MatraUu
Encoding: 42 3010 41
GlifName: tml_M_atraU_u
Width: 743
Flags: HMW
AnchorPoint: "Anchor-2" -265 580 mark 0
LayerCount: 2
Fore
SplineSet
-265 530 m 1
 -265 580 l 1
 264.252371173 580 416.663050329 580 522 585 c 5
 528 577 l 5
 524 520 l 5
 517.689691628 444.414161101 482.554942159 384.897021483 400 386 c 4
 308.772142912 387.065551 270.467357473 449.839528961 271.173828125 513.088867188 c 4
 272.18217806 618.675037678 355.834755308 701 467 701 c 4
 611.856478811 701 715 599.117405225 715 459 c 4
 715 278.452704114 610.575243312 169 462 169 c 4
 312.716061158 169 193 253.629835064 193 389 c 5
 206.650173662 389.431640625 221.066341431 386.72265625 233 379 c 5
 235 275.897396637 341.454033079 209 453 209 c 260
 566.378277629 209 650 314.735690572 650 458 c 4
 650 562.335881112 592.579730149 659 463 659 c 4
 372.709724082 659 312.160305344 591.093023256 311 513 c 4
 310.288244342 474.522932855 336.611826392 428.07952467 396 428 c 4
 437.708763918 427.931489713 449 482.490639012 449 530 c 5
 -265 530 l 1
EndSplineSet
Colour: ffffff
EndChar

StartChar: tml_MatraE
Encoding: 43 3014 42
GlifName: tml_M_atraE_
Width: 1029
VWidth: 0
Flags: HMW
LayerCount: 2
Back
SplineSet
769 477 m 5
 768 -1 l 5
 829 -1 l 5
 829 519 l 5
 827.537979423 696.238157318 693.493927087 833 487 833 c 4
 243.769070397 833 52.2285012285 658.349366358 49 397 c 4
 46.5293516403 182.293406862 176.933668736 -21.2285779553 437 -21 c 4
 573.257445972 -20.880240367 673 55.3350257572 673 167 c 4
 673 251.778719443 617.239218482 312.534755628 533 311 c 4
 452.987741678 309.542255425 382.702160721 247.095267713 384 152 c 4
 384.806662813 92.8942097738 413.043785545 37.7017688934 478.1328125 0.1318359375 c 5
 496 41 l 5
 462.101059437 55.6884872002 439.636655794 111.480671994 441 153 c 260
 442.379111242 194.999497814 471.033631257 235.734890477 515 236 c 4
 556.654760749 236.251170931 585.529009468 193.615789011 584 149 c 4
 581.24508807 68.6129442004 517.56990206 41.0641084559 450 41 c 4
 262.013613581 40.8216437113 115 180.026018009 115 394 c 4
 115 628.207940925 279.454320887 770.033813441 487 764 c 4
 640.195859429 756.734269886 770.363048537 661.470131417 769 477 c 5
EndSplineSet
Fore
SplineSet
80.2021484375 408.9765625 m 0
 80.2021484375 663.142578125 235.029296875 896.194335938 518.116210938 896.194335938 c 0
 785.862304688 896.194335938 939.021484375 692.043945312 939.012695312 425.40234375 c 2
 939 -1 l 1
 865 -1 l 1
 867.961914062 11.568359375 873 69.478515625 873 124 c 2
 873 380 l 2
 873.5703125 626.638671875 763.203125 803.420898438 497.521484375 800.466796875 c 0
 298.3125 798.131835938 147.040039062 660.163085938 142.93359375 409.416992188 c 0
 139.69140625 225.526367188 237.438476562 45.751953125 466.287109375 38.9990234375 c 0
 548.506835938 36.4423828125 605.124023438 85.6884765625 606.002929688 155.8984375 c 0
 606.715820312 212.830078125 571.71484375 258.00390625 507.340820312 258.00390625 c 0
 438.840820312 258.00390625 401.361328125 205.219726562 398.921875 137.821289062 c 0
 396.798828125 79.1611328125 423.638671875 32.7705078125 464 10 c 1
 446.1328125 -26.8681640625 l 1
 394.196289062 4.2890625 347.328125 54.548828125 345.991210938 136.840820312 c 0
 344.319335938 239.734375 422.57421875 329.051757812 532.01171875 329.051757812 c 0
 621.450195312 329.051757812 694.006835938 266.795898438 694.006835938 175.5234375 c 0
 694.006835938 52.6220703125 594.827148438 -26.1103515625 479.064453125 -27.0595703125 c 0
 216.9375 -29.1142578125 80.2021484375 159.154296875 80.2021484375 408.9765625 c 0
EndSplineSet
Colour: ffffff
EndChar

StartChar: tml_MatraEe
Encoding: 44 3015 43
GlifName: tml_M_atraE_e
Width: 823
Flags: HMW
LayerCount: 2
Back
SplineSet
77.2021484375 398.9765625 m 4
 77.2021484375 154.883344058 207.08154886 -29.1752536889 456.064453125 -27.0595703125 c 4
 571.827492131 -26.110645076 669.006835938 48.6220703125 669.006835938 171.5234375 c 4
 669.006835938 262.795898438 598.450450175 328.051757812 509.01171875 328.051757812 c 4
 399.574269569 328.051757812 325.32013924 239.73468847 326.991210938 136.840820312 c 4
 328.327700922 54.5483462541 371.196770525 4.28861348088 423.1328125 -26.8681640625 c 5
 441 10 l 5
 400.638272493 32.7704350034 373.798503889 79.1612346691 375.921875 137.821289062 c 4
 378.361572311 205.220141869 415.840905273 261.00390625 484.340820312 261.00390625 c 4
 548.714462823 261.00390625 583.715504074 212.830354369 583.002929688 155.8984375 c 4
 582.124159364 85.6881128067 525.510742188 36.556640625 443.287109375 38.9990234375 c 4
 218.592773438 45.5693359375 131.201171875 220.486328125 133.93359375 399.416992188 c 4
 137.625976562 634.677734375 258.717880696 765.233702009 462.521484375 767.466796875 c 4
 677.630166818 769.978603482 796.506835938 619.68359375 796 410 c 6
 796 117 l 6
 796.27734375 57.0361328125 792.221679688 10.8642578125 790 -1 c 5
 852 -1 l 5
 852.012695312 467.40234375 l 6
 852.842773438 689.65625 716.461642937 846.194335938 493.116210938 846.194335938 c 4
 231.796219299 846.194335938 77.2021484375 648.547893868 77.2021484375 398.9765625 c 4
EndSplineSet
Fore
SplineSet
80 408 m 0
 78.5693359375 89.490234375 321.877929688 -28.458984375 534.064453125 -27.0595703125 c 0
 678.240234375 -26.11328125 764.006835938 56.6572265625 764.006835938 165.5234375 c 0
 764.006835938 260.877929688 688.599609375 329.051757812 593.01171875 329.051757812 c 0
 489.364257812 329.051757812 413.447265625 245.598632812 413.991210938 141.840820312 c 0
 414.397460938 62.05078125 453.379882812 13.337890625 512.1328125 -16.8681640625 c 1
 537 20 l 1
 496.638671875 42.4140625 469.333984375 88.0986328125 471.921875 145.821289062 c 0
 474.361328125 198.124023438 514.92578125 248.00390625 580.340820312 248.00390625 c 0
 635.20703125 248.00390625 670.620117188 204.4140625 670.002929688 152.8984375 c 0
 669.124023438 81.8046875 606.513671875 46.71875 530.287109375 46.9990234375 c 0
 303.700195312 47.8330078125 150.140625 189.663085938 147 412 c 0
 143.5546875 661.717773438 335.7890625 849.192382812 545 842 c 0
 628.999023438 839.1796875 702.147460938 801.283203125 703 729 c 0
 703.500976562 692.159179688 678.174804688 654.142578125 608 654 c 0
 548.012695312 653.846679688 512.608398438 703.032226562 511 750 c 256
 508.943359375 802.806640625 543.345703125 845.971679688 578 861 c 1
 535.83984375 882.323242188 l 1
 495.12109375 865.856445312 449.186523438 803.328125 448 733 c 0
 446.559570312 640.166015625 518.354492188 575.037109375 618 576 c 0
 734.905273438 576.994140625 789.020507812 656.559570312 789 733 c 0
 788.975585938 830.868164062 688.119140625 909 552 909 c 0
 322.6640625 909 81.4990234375 745.728515625 80 408 c 0
EndSplineSet
Colour: ffffff
EndChar

StartChar: tml_MatraAi
Encoding: 45 3016 44
GlifName: tml_M_atraA_i
Width: 1350
VWidth: 0
Flags: HMW
LayerCount: 2
Fore
SplineSet
80 239 m 0
 79.0576171875 98.0576171875 170.833984375 -26.23828125 334 -26 c 0
 464.380859375 -25.8095703125 516.455078125 74.751953125 517 149 c 0
 517.66015625 238.987304688 452.931640625 296.413085938 370 297 c 0
 269.18359375 297.713867188 196.935546875 219.059570312 195.252929688 118 c 0
 194.15234375 51.91796875 217.970703125 31.0234375 238 9 c 1
 255 25 l 1
 239.935546875 50.80078125 234.03125 71.490234375 236 120 c 0
 238.918945312 187.979492188 292.694335938 223.147460938 341 223 c 0
 395.131835938 222.834960938 435.323242188 184.50390625 435 133 c 0
 434.669921875 80.4541015625 398.802734375 32.0185546875 323 32 c 0
 219.891601562 31.974609375 134.963867188 116.65625 134 244 c 0
 132.6953125 416.41015625 289.00390625 531.244140625 468.000976562 528 c 0
 664.0078125 524.447265625 852.09375 384.9765625 851.000976562 186 c 0
 850.538085938 101.765625 808.104492188 42.0302734375 750.000976562 42 c 0
 688.627929688 41.9677734375 650.862304688 117.47265625 651.000976562 218 c 0
 651.279296875 419.869140625 795.953125 522.202148438 922 522.099609375 c 0
 1075 521.975585938 1173.05566406 413.287109375 1174.00097656 266 c 0
 1174.62011719 169.590820312 1137.48632812 74.78515625 1093.00097656 4 c 1
 1100.16308594 -7.4189453125 1120.27441406 -20.38671875 1138.00097656 -25 c 1
 1182.85351562 14.8486328125 1269.85449219 141.978515625 1270.00097656 274 c 0
 1270.25195312 499.984375 1100.73242188 584.138671875 942 583.5 c 0
 746.793945312 582.713867188 593.322265625 425.555664062 593.000976562 205 c 0
 592.829101562 87.1533203125 639.435546875 -19.1904296875 753.000976562 -19 c 0
 869.47265625 -18.8046875 937.838867188 83.927734375 938.000976562 206 c 0
 938.307617188 436.872070312 707.002929688 587.73046875 471.000976562 585 c 0
 259.950195312 582.55859375 81.4267578125 452.301757812 80 239 c 0
EndSplineSet
Substitution2: "Single Substitution lookup 24 subtable" tml_MatraAi.alt
Colour: ffffff
EndChar

StartChar: tml_MatraAu
Encoding: 48 3020 47
GlifName: tml_M_atraA_u
Width: 1279
VWidth: 0
Flags: HMW
LayerCount: 2
Fore
SplineSet
648 0 m 1
 648 0 647.872070312 138.272460938 648 344 c 0
 648.008789062 358.879882812 691.067382812 334.216796875 691 350 c 0
 690.696289062 420.999023438 691.577148438 497.514648438 689 553 c 1
 826.815429688 553.265625 1076.48339844 553.47265625 1230 563 c 1
 1235.4296875 552.666992188 1242.40429688 528.333007812 1244 511 c 1
 1203.28613281 511.266601562 1100.19628906 510.958984375 1057 511 c 1
 1057 0 l 1
 1026.10839844 -0.12890625 994.163085938 -0.1416015625 968 0 c 1
 970 370 l 2
 970.70703125 433.681640625 971.791015625 466.51171875 971 511 c 1
 871.202148438 511.69140625 789.405273438 511.171875 736.607421875 511 c 1
 736.98828125 458.611328125 736 409.990234375 737 347 c 1
 737 0 l 1
 648 0 l 1
80 238 m 0
 80.4267578125 439.301757812 222.153320312 576 407 576 c 0
 593 576 705.668945312 458.885742188 732 342 c 1
 655 296 l 1
 646.583007812 416.264648438 539.70703125 519.577148438 394 521 c 0
 248.002929688 522.42578125 126.763671875 407.411132812 128 241 c 0
 128.998046875 106.65625 225.891601562 28.9775390625 329 29 c 0
 413.802734375 29.0185546875 454.669921875 83.4541015625 455 136 c 0
 455.323242188 187.50390625 413.131835938 226.834960938 359 227 c 0
 310.694335938 227.147460938 251.918945312 187.979492188 249 120 c 0
 247.03125 71.490234375 252.935546875 50.80078125 268 25 c 1
 251 9 l 1
 230.970703125 31.0234375 209.15234375 51.91796875 210.252929688 118 c 0
 211.935546875 219.059570312 279.18359375 297.688476562 380 297 c 0
 465.931640625 296.413085938 529.66015625 237.987304688 529 148 c 0
 528.455078125 73.751953125 477.380859375 -27.810546875 347 -28 c 0
 182.833984375 -28.23828125 79.701171875 97.0546875 80 238 c 0
EndSplineSet
Colour: ffffff
EndChar

StartChar: tml_Virama
Encoding: 49 3021 48
GlifName: tml_V_irama
Width: 0
VWidth: 0
GlyphClass: 4
Flags: HMW
AnchorPoint: "Anchor-0" -0.0576172 713.235 mark 0
LayerCount: 2
Fore
SplineSet
-69.0576171875 715.1953125 m 4
 -70.248046875 752.036132812 -35.5927734375 780.979492188 1.5029296875 782.39453125 c 4
 35.0615234375 783.67578125 65.24609375 754.127929688 66.1826171875 721.075195312 c 4
 67.23828125 683.797851562 36.345703125 652.73046875 -1.017578125 651.35546875 c 4
 -37.53125 650.010742188 -67.9140625 679.80859375 -69.0576171875 715.1953125 c 4
EndSplineSet
Colour: ffffff
EndChar

StartChar: tml_Om
Encoding: 50 3024 49
GlifName: tml_O_m
Width: 898
VWidth: 0
Flags: HMW
AnchorPoint: "Anchor-0" 449 751 basechar 0
LayerCount: 2
Back
SplineSet
348 -6 m 2
 348 -9.33333333333 347.333333333 -12.5 346 -15.5 c 128
 344.666666667 -18.5 343 -20.8333333333 341 -22.5 c 128
 339 -24.1666666667 336.5 -25.6666666667 333.5 -27 c 128
 330.5 -28.3333333333 327.333333333 -29 324 -29 c 128
 320.666666667 -29 317.833333333 -28.3333333333 315.5 -27 c 128
 313.166666667 -25.6666666667 310.833333333 -24 308.5 -22 c 128
 306.166666667 -20 304.333333333 -17.3333333333 303 -14 c 128
 301.666666667 -10.6666666667 301 -7.33333333333 301 -4 c 128
 301 -0.666666666667 301.666666667 2.5 303 5.5 c 128
 304.333333333 8.5 306.166666667 11.3333333333 308.5 14 c 128
 310.833333333 16.6666666667 313.333333333 18.5 316 19.5 c 128
 318.666666667 20.5 321.333333333 21 324 21 c 0
 327.333333333 21 330.5 20.5 333.5 19.5 c 128
 336.5 18.5 339 16.8333333333 341 14.5 c 128
 343 12.1666666667 344.666666667 9.33333333333 346 6 c 128
 347.333333333 2.66666666667 348 -0.666666666667 348 -4 c 2
 348 -6 l 2
360 -160 m 1
 375.333333333 -136.666666667 376 -116 362 -98 c 0
 347.333333333 -82 333 -81.1666666667 319 -95.5 c 128
 305 -109.833333333 303.666666667 -131 315 -159 c 1
 360 -160 l 1
261 -283 m 0
 349.666666667 -287.666666667 414.333333333 -245.666666667 455 -157 c 1
 474.333333333 -102.333333333 503 -66 541 -48 c 1
 505 -34.6666666667 476 -13.6666666667 454 15 c 128
 432 43.6666666667 421 74.6666666667 421 108 c 0
 421 154 439.833333333 193.5 477.5 226.5 c 128
 515.166666667 259.5 560.333333333 276 613 276 c 1
 598.333333333 258 586.666666667 238.666666667 578 218 c 128
 569.333333333 197.333333333 565 176.666666667 565 156 c 256
 565 136 573.166666667 119 589.5 105 c 128
 605.833333333 91 625.666666667 84 649 84 c 256
 672.333333333 84 692.166666667 93.5 708.5 112.5 c 128
 724.833333333 131.5 733 154 733 180 c 0
 733 256 701.5 321 638.5 375 c 128
 575.5 429 499 456 409 456 c 0
 322.333333333 456 248.833333333 431.5 188.5 382.5 c 128
 128.166666667 333.5 98 274 98 204 c 0
 98 190.666666667 99 178 101 166 c 128
 103 154 105.666666667 142.666666667 109 132 c 1
 109 170.666666667 120.833333333 203.5 144.5 230.5 c 128
 168.166666667 257.5 196.333333333 271 229 271 c 0
 261.666666667 271 290 258.333333333 314 233 c 128
 338 207.666666667 350 178.333333333 350 145 c 0
 350 107.666666667 338 76.1666666667 314 50.5 c 128
 290 24.8333333333 261.666666667 12 229 12 c 0
 179.666666667 12 137.333333333 30.8333333333 102 68.5 c 128
 66.6666666667 106.166666667 49 151.333333333 49 204 c 0
 49 287.333333333 84.3333333333 358.166666667 155 416.5 c 128
 225.666666667 474.833333333 310.333333333 504 409 504 c 0
 515 504 605.666666667 472.333333333 681 409 c 128
 756.333333333 345.666666667 794 269.333333333 794 180 c 0
 794 140 780 106 752 78 c 128
 724 50 689.666666667 36 649 36 c 0
 611.666666667 36 580.5 47.6666666667 555.5 71 c 128
 530.5 94.3333333333 518 122.666666667 518 156 c 0
 518 162.666666667 520.5 172.166666667 525.5 184.5 c 128
 530.5 196.833333333 538 211.666666667 548 229 c 1
 524 215 505 197.166666667 491 175.5 c 128
 477 153.833333333 470 131.333333333 470 108 c 0
 470 70.6666666667 486.166666667 39.3333333333 518.5 14 c 128
 550.833333333 -11.3333333333 590.666666667 -24 638 -24 c 2
 770 -24 l 1
 770 -72 l 1
 593 -72 l 2
 579.666666667 -72 562 -81.6666666667 540 -101 c 0
 526 -113.666666667 513.666666667 -133 503 -159 c 0
 460.333333333 -271.666666667 380.333333333 -325.666666667 263 -321 c 0
 111.666666667 -315 34.3333333333 -258.666666667 31 -152 c 0
 29.6666666667 -120.666666667 37.3333333333 -92.3333333333 54 -67 c 0
 68.6666666667 -43.6666666667 90.6666666667 -32 120 -32 c 0
 137.333333333 -32 152 -38.6666666667 164 -52 c 0
 178.666666667 -70.6666666667 186.333333333 -107 187 -161 c 1
 218.333333333 -161.666666667 247.666666667 -161.666666667 275 -161 c 1
 267.666666667 -119.666666667 274.666666667 -89 296 -69 c 0
 318.666666667 -48.3333333333 345.333333333 -46.6666666667 376 -64 c 0
 398.666666667 -77.3333333333 408 -102.666666667 404 -140 c 0
 401.333333333 -168.666666667 395.333333333 -186.666666667 386 -194 c 1
 145 -194 l 1
 155 -139.333333333 150.666666667 -103 132 -85 c 0
 116 -68.3333333333 100.666666667 -68.6666666667 86 -86 c 0
 72.6666666667 -100.666666667 67.6666666667 -128.666666667 71 -170 c 0
 76.3333333333 -238.666666667 139.666666667 -276.333333333 261 -283 c 0
169 145 m 0
 169 121.666666667 174.833333333 101.666666667 186.5 85 c 128
 198.166666667 68.3333333333 212.333333333 60 229 60 c 256
 245.666666667 60 259.833333333 68.1666666667 271.5 84.5 c 128
 283.166666667 100.833333333 289 121 289 145 c 0
 289 165 283.333333333 181.833333333 272 195.5 c 128
 260.666666667 209.166666667 246.333333333 216 229 216 c 256
 212.333333333 216 198.166666667 209.166666667 186.5 195.5 c 128
 174.833333333 181.833333333 169 165 169 145 c 0
EndSplineSet
Fore
SplineSet
276.611328125 80.244140625 m 0
 276.611328125 92.345703125 285.919921875 101.655273438 298.021484375 101.655273438 c 0
 310.124023438 101.655273438 319.43359375 92.345703125 319.43359375 80.244140625 c 0
 319.43359375 68.142578125 310.124023438 58.8330078125 298.021484375 58.8330078125 c 0
 285.919921875 58.8330078125 276.611328125 68.142578125 276.611328125 80.244140625 c 0
93 -60 m 0
 92.830078125 -6.8037109375 123.682617188 32.5869140625 168 32 c 0
 237.788085938 31.076171875 242.658203125 -57.2421875 245.791015625 -95.8603515625 c 1
 342.283203125 -94.009765625 l 2
 374.926757812 -93.36328125 386.640625 -74.8447265625 387.1640625 -48.763671875 c 0
 387.70703125 -22.748046875 369.92578125 2.9970703125 347.61328125 3.208984375 c 0
 338.77734375 3.294921875 330.379882812 -4.2900390625 330.192382812 -19.505859375 c 2
 329.08203125 -104.6328125 l 1
 291.140625 -114.6328125 l 1
 292.62109375 -25.654296875 l 2
 293.260742188 14.9521484375 315.725585938 30.3681640625 342.211914062 30.67578125 c 0
 386.932617188 31.18359375 417.294921875 -6.6083984375 417.001953125 -48.763671875 c 0
 416.682617188 -97.4248046875 392.80078125 -127.587890625 333.737304688 -127.587890625 c 2
 209.258789062 -127.587890625 l 1
 210.853515625 -102.232421875 213.571289062 -3.1494140625 164 -4 c 0
 134.7890625 -4.5078125 129 -36.3935546875 129 -53 c 0
 129 -118.708007812 173.294921875 -186.142578125 312 -185 c 0
 367.359375 -184.537109375 401.916992188 -163.653320312 432 -122 c 0
 471 -68 507.704101562 -5.5400390625 603 -3 c 1
 632 -3 l 1
 709 -52 l 1
 675.965820312 -52.267578125 642.772460938 -51.67578125 619 -52 c 1
 509.166992188 -59.4150390625 501.2421875 -230.182617188 312 -234 c 0
 182.404296875 -236.614257812 93.36328125 -168.114257812 93 -60 c 0
80 305 m 0
 81.7421875 480.4921875 214.588867188 633.306640625 440 635 c 0
 614.609375 636.311523438 812.45703125 530.696289062 818 313 c 0
 821.448242188 177.591796875 753.774414062 85 642 85 c 0
 568.43359375 85 520.573242188 138.876953125 520.356445312 204 c 0
 520.19921875 251.172851562 534.291015625 273.55078125 545 295 c 0
 547.020507812 299.046875 546.224609375 273.060546875 549 277 c 1
 505.788085938 259.651367188 476.365234375 199.063476562 478 145 c 0
 480.47265625 63.24609375 588.395507812 5 671 5 c 0
 696 5 736 7 762 9 c 1
 763 -4.8125 762 -37 759 -52 c 1
 661 -52 l 2
 516 -52 425.875 50.9033203125 425 140 c 0
 423.920898438 249.905273438 502.083984375 319.861328125 562 330 c 1
 589 295 l 1
 579.546875 274.734375 566.836914062 243.595703125 567.38671875 213 c 0
 568.008789062 178.3515625 596.203125 141 642 141 c 0
 699.255859375 141 732.711914062 228.016601562 733 314 c 0
 733.48828125 459.868164062 612.366210938 578.197265625 436 579 c 0
 260.7421875 579.796875 132.083984375 473.653320312 129 301 c 0
 127.78125 236.651367188 174.060546875 180.970703125 236 181 c 0
 290.232421875 181.025390625 308.642578125 215.893554688 309 248 c 0
 309.407226562 287.350585938 277.887695312 325.196289062 229 325.82421875 c 0
 184.298828125 326.354492188 142.73046875 294.009765625 124 249 c 1
 106 286 l 1
 132.600585938 345.479492188 198.006835938 379.991210938 247 379.948242188 c 0
 322.22265625 379.881835938 376 324.076171875 376 260 c 0
 376 187.581054688 325.177734375 128.545898438 242 128 c 0
 150.4609375 127.41796875 78.853515625 194.811523438 80 305 c 0
EndSplineSet
Colour: ffffff
EndChar

StartChar: tml_AuLengthmark
Encoding: 51 3031 50
GlifName: tml_A_uL_engthmark
Width: 0
Flags: HMW
LayerCount: 2
Back
SplineSet
199 145 m 1
 199 118.333333333 206 95.5 220 76.5 c 128
 234 57.5 251 48 271 48 c 256
 291 48 308.166666667 57.3333333333 322.5 76 c 128
 336.833333333 94.6666666667 344 117.666666667 344 145 c 0
 344 168.333333333 337 188.166666667 323 204.5 c 128
 309 220.833333333 291.666666667 229 271 229 c 256
 251 229 234 220.666666667 220 204 c 128
 206 187.333333333 199 167.666666667 199 145 c 1
 199 145 l 1
476 480 m 1
 896 480 l 1
 896 433 l 1
 764 433 l 1
 764 0 l 1
 703 0 l 1
 703 433 l 1
 523 433 l 1
 523 0 l 1
 464 0 l 1
 464 240 l 2
 464 296 446.166666667 344 410.5 384 c 128
 374.833333333 424 332.333333333 444 283 444 c 256
 233.666666667 444 191.5 423 156.5 381 c 128
 121.5 339 104 288.333333333 104 229 c 0
 104 198.333333333 110.166666667 169.333333333 122.5 142 c 128
 134.833333333 114.666666667 152.333333333 91.3333333333 175 72 c 1
 167 86 161 99.1666666667 157 111.5 c 128
 153 123.833333333 151 135 151 145 c 0
 151 182.333333333 162.833333333 213.5 186.5 238.5 c 128
 210.166666667 263.5 238.333333333 276 271 276 c 0
 303.666666667 276 332 263.166666667 356 237.5 c 128
 380 211.833333333 392 181 392 145 c 0
 392 102.333333333 378 65.5 350 34.5 c 128
 322 3.5 287.666666667 -12 247 -12 c 0
 194.333333333 -12 149.333333333 11.5 112 58.5 c 128
 74.6666666667 105.5 56 162.333333333 56 229 c 0
 56 301.666666667 78 363.666666667 122 415 c 128
 166 466.333333333 219.666666667 492 283 492 c 0
 325 492 363.333333333 483.333333333 398 466 c 128
 432.666666667 448.666666667 458.666666667 425.333333333 476 396 c 1
 476 480 l 1
 476 480 l 1
EndSplineSet
Colour: ff0000
EndChar

StartChar: tml_Zero
Encoding: 52 3046 51
GlifName: tml_Z_ero
Width: 0
Flags: HMW
LayerCount: 2
Back
SplineSet
59 315 m 1
 59 397.666666667 79.5 469.833333333 120.5 531.5 c 128
 161.5 593.166666667 216.666666667 624 286 624 c 256
 355.333333333 624 410.5 593.166666667 451.5 531.5 c 128
 492.5 469.833333333 513 397.666666667 513 315 c 0
 513 230.333333333 492.833333333 156.666666667 452.5 94 c 128
 412.166666667 31.3333333333 356.666666667 0 286 0 c 256
 216 0 160.666666667 31.3333333333 120 94 c 128
 79.3333333333 156.666666667 59 230.333333333 59 315 c 1
 59 315 l 1
122 315 m 1
 122 247 135.833333333 188 163.5 138 c 128
 191.166666667 88 232 63 286 63 c 0
 339.333333333 63 380 88.1666666667 408 138.5 c 128
 436 188.833333333 450 247.666666667 450 315 c 0
 450 381 435.833333333 438.5 407.5 487.5 c 128
 379.166666667 536.5 338.666666667 561 286 561 c 256
 233.333333333 561 192.833333333 536.5 164.5 487.5 c 128
 136.166666667 438.5 122 381 122 315 c 1
 122 315 l 1
EndSplineSet
Colour: ff0000
EndChar

StartChar: tml_One
Encoding: 53 3047 52
GlifName: tml_O_ne
Width: 0
Flags: HMW
LayerCount: 2
Back
SplineSet
240 264 m 1
 360 264 l 1
 360 433 l 1
 240 433 l 1
 240 264 l 1
 240 264 l 1
120 156 m 1
 120 123.333333333 132.833333333 95.1666666667 158.5 71.5 c 128
 184.166666667 47.8333333333 215.333333333 36 252 36 c 0
 281.333333333 36 306.666666667 45.5 328 64.5 c 128
 349.333333333 83.5 360 106 360 132 c 2
 360 216 l 1
 180 216 l 2
 163.333333333 216 149.166666667 210.333333333 137.5 199 c 128
 125.833333333 187.666666667 120 173.333333333 120 156 c 1
 120 156 l 1
180 480 m 1
 552 480 l 1
 552 433 l 1
 420 433 l 1
 420 264 l 1
 492 264 l 2
 529.333333333 264 560.666666667 251.333333333 586 226 c 128
 611.333333333 200.666666667 624 169.333333333 624 132 c 0
 624 92 612.333333333 58 589 30 c 128
 565.666666667 2 537.333333333 -12 504 -12 c 0
 494.666666667 -12 485.166666667 -11 475.5 -9 c 128
 465.833333333 -7 455.333333333 -4 444 0 c 1
 456 48 l 1
 463.333333333 44 471 41 479 39 c 128
 487 37 495.333333333 36 504 36 c 0
 520.666666667 36 534.833333333 45.5 546.5 64.5 c 128
 558.166666667 83.5 564 106 564 132 c 0
 564 155.333333333 557 175.166666667 543 191.5 c 128
 529 207.833333333 512 216 492 216 c 2
 420 216 l 1
 420 132 l 2
 420 92 403.5 58 370.5 30 c 128
 337.5 2 298 -12 252 -12 c 0
 199.333333333 -12 154.166666667 4.5 116.5 37.5 c 128
 78.8333333333 70.5 60 110 60 156 c 0
 60 185.333333333 71.8333333333 210.666666667 95.5 232 c 128
 119.166666667 253.333333333 147.333333333 264 180 264 c 1
 180 480 l 1
 180 480 l 1
EndSplineSet
Colour: ff0000
EndChar

StartChar: tml_Two
Encoding: 54 3048 53
GlifName: tml_T_wo
Width: 0
Flags: HMW
LayerCount: 2
Back
SplineSet
108 336 m 1
 108 319.333333333 113.833333333 305.166666667 125.5 293.5 c 128
 137.166666667 281.833333333 151.333333333 276 168 276 c 256
 184.666666667 276 199 281.833333333 211 293.5 c 128
 223 305.166666667 229 319.333333333 229 336 c 0
 229 356 223 373 211 387 c 128
 199 401 184.666666667 408 168 408 c 256
 151.333333333 408 137.166666667 401 125.5 387 c 128
 113.833333333 373 108 356 108 336 c 1
 108 336 l 1
60 348 m 1
 60 388 80 422 120 450 c 128
 160 478 208 492 264 492 c 0
 330.666666667 492 387.333333333 473.166666667 434 435.5 c 128
 480.666666667 397.833333333 504 352.666666667 504 300 c 0
 504 250.666666667 484 208.333333333 444 173 c 128
 404 137.666666667 356 120 300 120 c 2
 168 120 l 2
 154 120 142.5 116.5 133.5 109.5 c 128
 124.5 102.5 120 94 120 84 c 256
 120 74 124.5 65.5 133.5 58.5 c 128
 142.5 51.5 154 48 168 48 c 2
 648 48 l 1
 648 0 l 1
 168 0 l 2
 138.666666667 0 113.333333333 8.16666666667 92 24.5 c 128
 70.6666666667 40.8333333333 60 60.6666666667 60 84 c 256
 60 107.333333333 70.6666666667 127.166666667 92 143.5 c 128
 113.333333333 159.833333333 138.666666667 168 168 168 c 2
 300 168 l 2
 340 168 374 180.833333333 402 206.5 c 128
 430 232.166666667 444 263.333333333 444 300 c 0
 444 340 426.5 374 391.5 402 c 128
 356.5 430 314 444 264 444 c 2
 192 444 l 1
 217.333333333 434.666666667 237.666666667 420.166666667 253 400.5 c 128
 268.333333333 380.833333333 276 359.333333333 276 336 c 0
 276 306.666666667 265.5 281.5 244.5 260.5 c 128
 223.5 239.5 198 229 168 229 c 0
 138.666666667 229 113.333333333 240.666666667 92 264 c 128
 70.6666666667 287.333333333 60 315.333333333 60 348 c 1
 60 348 l 1
EndSplineSet
Colour: ff0000
EndChar

StartChar: tml_Three
Encoding: 55 3049 54
GlifName: tml_T_hree
Width: 0
Flags: HMW
LayerCount: 2
Back
SplineSet
60 0 m 1
 60 480 l 1
 492 480 l 1
 492 433 l 1
 324 433 l 1
 324 258 l 1
 335.333333333 269.333333333 348.5 278.166666667 363.5 284.5 c 128
 378.5 290.833333333 393.333333333 294 408 294 c 0
 450.666666667 294 487.333333333 280.666666667 518 254 c 128
 548.666666667 227.333333333 564 194.666666667 564 156 c 0
 564 134.666666667 559.833333333 114.5 551.5 95.5 c 128
 543.166666667 76.5 531.666666667 60.6666666667 517 48 c 1
 702 48 l 1
 702 0 l 1
 264 0 l 1
 264 48 l 1
 396 48 l 2
 425.333333333 48 450.666666667 58.5 472 79.5 c 128
 493.333333333 100.5 504 126 504 156 c 0
 504 179.333333333 494.666666667 199.166666667 476 215.5 c 128
 457.333333333 231.833333333 434.666666667 240 408 240 c 0
 394 240 379.833333333 235.833333333 365.5 227.5 c 128
 351.166666667 219.166666667 337.333333333 207.333333333 324 192 c 1
 324 96 l 1
 264 96 l 1
 264 433 l 1
 120 433 l 1
 120 0 l 1
 60 0 l 1
 60 0 l 1
EndSplineSet
Colour: ff0000
EndChar

StartChar: tml_Four
Encoding: 56 3050 55
GlifName: tml_F_our
Width: 0
Flags: HMW
LayerCount: 2
Back
SplineSet
240 264 m 1
 360 264 l 1
 360 433 l 1
 240 433 l 1
 240 264 l 1
 240 264 l 1
120 156 m 1
 120 123.333333333 132.833333333 95.1666666667 158.5 71.5 c 128
 184.166666667 47.8333333333 215.333333333 36 252 36 c 0
 281.333333333 36 306.666666667 45.5 328 64.5 c 128
 349.333333333 83.5 360 106 360 132 c 2
 360 216 l 1
 180 216 l 2
 163.333333333 216 149.166666667 210.333333333 137.5 199 c 128
 125.833333333 187.666666667 120 173.333333333 120 156 c 1
 120 156 l 1
180 480 m 1
 564 480 l 1
 564 433 l 1
 420 433 l 1
 420 264 l 1
 528 264 l 1
 528 324 l 1
 588 324 l 1
 588 216 l 1
 420 216 l 1
 420 132 l 2
 420 92 403.5 58 370.5 30 c 128
 337.5 2 298 -12 252 -12 c 0
 199.333333333 -12 154.166666667 4.5 116.5 37.5 c 128
 78.8333333333 70.5 60 110 60 156 c 0
 60 185.333333333 71.8333333333 210.666666667 95.5 232 c 128
 119.166666667 253.333333333 147.333333333 264 180 264 c 1
 180 480 l 1
 180 480 l 1
EndSplineSet
Colour: ff0000
EndChar

StartChar: tml_Five
Encoding: 57 3051 56
GlifName: tml_F_ive
Width: 0
Flags: HMW
LayerCount: 2
Back
SplineSet
433 -216 m 1
 523 -216 599.333333333 -183.333333333 662 -118 c 128
 724.666666667 -52.6666666667 756 26.6666666667 756 120 c 0
 756 157.333333333 744.833333333 188.666666667 722.5 214 c 128
 700.166666667 239.333333333 673.666666667 252 643 252 c 0
 631 252 618 247.833333333 604 239.5 c 128
 590 231.166666667 576.666666667 219.333333333 564 204 c 1
 564 0 l 1
 504 0 l 1
 504 433 l 1
 360 433 l 1
 360 0 l 1
 300 0 l 1
 300 480 l 1
 660 480 l 1
 660 433 l 1
 564 433 l 1
 564 264 l 1
 570.666666667 275.333333333 581.5 284.166666667 596.5 290.5 c 128
 611.5 296.833333333 628.666666667 300 648 300 c 0
 694 300 733.5 282.333333333 766.5 247 c 128
 799.5 211.666666667 816 169.333333333 816 120 c 0
 816 14 778.666666667 -76.5 704 -151.5 c 128
 629.333333333 -226.5 539 -264 433 -264 c 0
 331 -264 243.333333333 -217.666666667 170 -125 c 128
 96.6666666667 -32.3333333333 60 79.3333333333 60 210 c 0
 60 350.666666667 99.8333333333 471 179.5 571 c 128
 259.166666667 671 355.333333333 721 468 721 c 0
 561.333333333 721 640.833333333 690.5 706.5 629.5 c 128
 772.166666667 568.5 805 494.666666667 805 408 c 1
 744 408 l 1
 744 480.666666667 717 542.833333333 663 594.5 c 128
 609 646.166666667 544 672 468 672 c 0
 370.666666667 672 287.333333333 626.833333333 218 536.5 c 128
 148.666666667 446.166666667 114 337.333333333 114 210 c 0
 114 92 145 -8.5 207 -91.5 c 128
 269 -174.5 344.333333333 -216 433 -216 c 1
 433 -216 l 1
EndSplineSet
Colour: ff0000
EndChar

StartChar: tml_Six
Encoding: 58 3052 57
GlifName: tml_S_ix
Width: 0
Flags: HMW
LayerCount: 2
Back
SplineSet
240 433 m 1
 240 264 l 1
 360 264 l 1
 360 433 l 1
 240 433 l 1
 240 433 l 1
120 156 m 1
 120 123.333333333 132.833333333 95.1666666667 158.5 71.5 c 128
 184.166666667 47.8333333333 215.333333333 36 252 36 c 0
 281.333333333 36 306.666666667 45.5 328 64.5 c 128
 349.333333333 83.5 360 106 360 132 c 2
 360 216 l 1
 180 216 l 2
 163.333333333 216 149.166666667 210.333333333 137.5 199 c 128
 125.833333333 187.666666667 120 173.333333333 120 156 c 1
 120 156 l 1
60 156 m 1
 60 185.333333333 71.8333333333 210.666666667 95.5 232 c 128
 119.166666667 253.333333333 147.333333333 264 180 264 c 1
 180 480 l 1
 588 480 l 1
 588 433 l 1
 420 433 l 1
 420 264 l 1
 750 264 l 1
 750 216 l 1
 685 216 l 1
 685 0 l 1
 624 0 l 1
 624 216 l 1
 552 216 l 1
 552 0 l 1
 492 0 l 1
 492 216 l 1
 420 216 l 1
 420 132 l 2
 420 92 403.5 58 370.5 30 c 128
 337.5 2 298 -12 252 -12 c 0
 199.333333333 -12 154.166666667 4.5 116.5 37.5 c 128
 78.8333333333 70.5 60 110 60 156 c 1
 60 156 l 1
EndSplineSet
Colour: ff0000
EndChar

StartChar: tml_Seven
Encoding: 59 3053 58
GlifName: tml_S_even
Width: 0
Flags: HMW
LayerCount: 2
Back
SplineSet
216 132 m 1
 216 105.333333333 223 82.6666666667 237 64 c 128
 251 45.3333333333 268 36 288 36 c 256
 308 36 325 45.5 339 64.5 c 128
 353 83.5 360 106 360 132 c 0
 360 155.333333333 353 175.166666667 339 191.5 c 128
 325 207.833333333 308 216 288 216 c 256
 268 216 251 207.833333333 237 191.5 c 128
 223 175.166666667 216 155.333333333 216 132 c 1
 216 132 l 1
552 433 m 1
 312 433 l 2
 256 433 208 411.833333333 168 369.5 c 128
 128 327.166666667 108 276 108 216 c 0
 108 180.666666667 116.5 148 133.5 118 c 128
 150.5 88 174 64.6666666667 204 48 c 1
 192 62 183 76 177 90 c 128
 171 104 168 118 168 132 c 0
 168 169.333333333 179.833333333 200.666666667 203.5 226 c 128
 227.166666667 251.333333333 255.333333333 264 288 264 c 0
 325.333333333 264 356.666666667 251.333333333 382 226 c 128
 407.333333333 200.666666667 420 169.333333333 420 132 c 0
 420 92 404.833333333 58 374.5 30 c 128
 344.166666667 2 307.333333333 -12 264 -12 c 0
 208 -12 160 10.1666666667 120 54.5 c 128
 80 98.8333333333 60 152.666666667 60 216 c 0
 60 288.666666667 84.6666666667 350.833333333 134 402.5 c 128
 183.333333333 454.166666667 242.666666667 480 312 480 c 2
 690 480 l 1
 690 433 l 1
 612 433 l 1
 612 0 l 1
 552 0 l 1
 552 433 l 1
 552 433 l 1
EndSplineSet
Colour: ff0000
EndChar

StartChar: tml_Eight
Encoding: 60 3054 59
GlifName: tml_E_ight
Width: 0
Flags: HMW
LayerCount: 2
Back
SplineSet
876 -60 m 1
 876 132 l 1
 756 132 l 1
 732 66.6666666667 688.833333333 14.3333333333 626.5 -25 c 128
 564.166666667 -64.3333333333 493.333333333 -84 414 -84 c 0
 359.333333333 -84 308 -75.8333333333 260 -59.5 c 128
 212 -43.1666666667 169.333333333 -19.3333333333 132 12 c 0
 108.666666667 31.3333333333 90.8333333333 50.5 78.5 69.5 c 128
 66.1666666667 88.5 60 105.333333333 60 120 c 0
 60 136.666666667 67 150.833333333 81 162.5 c 128
 95 174.166666667 112 180 132 180 c 2
 330 182 l 1
 308.666666667 190 291.333333333 205.333333333 278 228 c 128
 264.666666667 250.666666667 258 276.666666667 258 306 c 0
 258 357.333333333 282 401.166666667 330 437.5 c 128
 378 473.833333333 436 492 504 492 c 0
 580 492 645 468.666666667 699 422 c 128
 753 375.333333333 780 318.666666667 780 252 c 0
 780 238.666666667 779 226.166666667 777 214.5 c 128
 775 202.833333333 772.333333333 191.333333333 769 180 c 1
 876 180 l 1
 876 480 l 1
 937 480 l 1
 937 -60 l 1
 876 -60 l 1
 876 -60 l 1
312 306 m 1
 312 271.333333333 325.5 241.666666667 352.5 217 c 128
 379.5 192.333333333 412 180 450 180 c 0
 487.333333333 180 518.666666667 191.833333333 544 215.5 c 128
 569.333333333 239.166666667 582 267.333333333 582 300 c 0
 582 337.333333333 569.333333333 368.833333333 544 394.5 c 128
 518.666666667 420.166666667 487.333333333 433 450 433 c 0
 411.333333333 433 378.666666667 420.333333333 352 395 c 128
 325.333333333 369.666666667 312 340 312 306 c 1
 312 306 l 1
696 132 m 1
 145 132 l 2
 138.333333333 132 132.5 129.5 127.5 124.5 c 128
 122.5 119.5 120 114 120 108 c 0
 120 104 122 99 126 93 c 128
 130 87 136.333333333 80 145 72 c 0
 179.666666667 37.3333333333 219.833333333 10.6666666667 265.5 -8 c 128
 311.166666667 -26.6666666667 358.666666667 -36 408 -36 c 0
 476 -36 536.5 -20.5 589.5 10.5 c 128
 642.5 41.5 678 82 696 132 c 1
 696 132 l 1
576 180 m 1
 708 180 l 1
 712 191.333333333 715.166666667 202.833333333 717.5 214.5 c 128
 719.833333333 226.166666667 721 238.666666667 721 252 c 0
 721 302 704.5 346.333333333 671.5 385 c 128
 638.5 423.666666667 596.666666667 447.333333333 546 456 c 1
 574 436 596.166666667 412.333333333 612.5 385 c 128
 628.833333333 357.666666667 637 329.333333333 637 300 c 0
 637 275.333333333 631.666666667 252.333333333 621 231 c 128
 610.333333333 209.666666667 595.333333333 192.666666667 576 180 c 1
 576 180 l 1
EndSplineSet
Colour: ff0000
EndChar

StartChar: tml_Nine
Encoding: 61 3055 60
GlifName: tml_N_ine
Width: 0
Flags: HMW
LayerCount: 2
Back
SplineSet
240 264 m 1
 360 264 l 1
 360 433 l 1
 240 433 l 1
 240 264 l 1
 240 264 l 1
120 156 m 1
 120 126.666666667 132.833333333 101.333333333 158.5 80 c 128
 184.166666667 58.6666666667 215.333333333 48 252 48 c 0
 281.333333333 48 306.666666667 56.3333333333 328 73 c 128
 349.333333333 89.6666666667 360 109.333333333 360 132 c 2
 360 216 l 1
 180 216 l 2
 163.333333333 216 149.166666667 210.333333333 137.5 199 c 128
 125.833333333 187.666666667 120 173.333333333 120 156 c 1
 120 156 l 1
540 120 m 1
 540 96.6666666667 544.5 76.8333333333 553.5 60.5 c 128
 562.5 44.1666666667 574 36 588 36 c 256
 602 36 613.666666667 44.1666666667 623 60.5 c 128
 632.333333333 76.8333333333 637 96.6666666667 637 120 c 0
 637 140.666666667 630.333333333 159.833333333 617 177.5 c 128
 603.666666667 195.166666667 586 208 564 216 c 1
 556 202 550 186.833333333 546 170.5 c 128
 542 154.166666667 540 137.333333333 540 120 c 1
 540 120 l 1
60 156 m 1
 60 185.333333333 71.8333333333 210.666666667 95.5 232 c 128
 119.166666667 253.333333333 147.333333333 264 180 264 c 1
 180 480 l 1
 534 480 l 1
 534 433 l 1
 420 433 l 1
 420 264 l 1
 540 264 l 1
 556 286 577.333333333 303.5 604 316.5 c 128
 630.666666667 329.5 659.333333333 336 690 336 c 0
 738 336 779 319.5 813 286.5 c 128
 847 253.5 864 214 864 168 c 0
 864 136.666666667 858.833333333 106.666666667 848.5 78 c 128
 838.166666667 49.3333333333 823.666666667 23.3333333333 805 0 c 1
 738 0 l 1
 759.333333333 25.3333333333 775.833333333 52.5 787.5 81.5 c 128
 799.166666667 110.5 805 139.333333333 805 168 c 0
 805 200.666666667 793.666666667 228.833333333 771 252.5 c 128
 748.333333333 276.166666667 721.333333333 288 690 288 c 0
 669.333333333 288 650.5 284.833333333 633.5 278.5 c 128
 616.5 272.166666667 603.333333333 263.333333333 594 252 c 1
 621.333333333 242 643.333333333 224.833333333 660 200.5 c 128
 676.666666667 176.166666667 685 149.333333333 685 120 c 0
 685 82.6666666667 675.5 51.3333333333 656.5 26 c 128
 637.5 0.666666666667 614.666666667 -12 588 -12 c 256
 561.333333333 -12 538.666666667 0.666666666667 520 26 c 128
 501.333333333 51.3333333333 492 82.6666666667 492 120 c 0
 492 137.333333333 494 154.166666667 498 170.5 c 128
 502 186.833333333 508.333333333 202 517 216 c 1
 420 216 l 1
 420 132 l 2
 420 92 403.5 58 370.5 30 c 128
 337.5 2 298 -12 252 -12 c 0
 199.333333333 -12 154.166666667 4.5 116.5 37.5 c 128
 78.8333333333 70.5 60 110 60 156 c 1
 60 156 l 1
EndSplineSet
Colour: ff0000
EndChar

StartChar: tml_Ten
Encoding: 62 3056 61
GlifName: tml_T_en
Width: 0
Flags: HMW
LayerCount: 2
Back
SplineSet
304 48 m 1
 288 28.6666666667 270.666666667 13.8333333333 252 3.5 c 128
 233.333333333 -6.83333333333 214.333333333 -12 195 -12 c 0
 157.666666667 -12 126.333333333 0.666666666667 101 26 c 128
 75.6666666667 51.3333333333 63 82.6666666667 63 120 c 2
 63 360 l 1
 124 360 l 1
 124 120 l 2
 124 96.6666666667 131 76.8333333333 145 60.5 c 128
 159 44.1666666667 175.666666667 36 195 36 c 0
 215 36 232.166666667 44.1666666667 246.5 60.5 c 128
 260.833333333 76.8333333333 268 96.6666666667 268 120 c 2
 268 360 l 1
 328 360 l 1
 328 120 l 1
 337.333333333 94.6666666667 350.666666667 74.3333333333 368 59 c 128
 385.333333333 43.6666666667 404 36 424 36 c 0
 453.333333333 36 478.666666667 52.5 500 85.5 c 128
 521.333333333 118.5 532 158 532 204 c 0
 532 267.333333333 513.166666667 321.333333333 475.5 366 c 128
 437.833333333 410.666666667 392.666666667 433 340 433 c 2
 184 433 l 1
 184 480 l 1
 340 480 l 2
 409.333333333 480 468.666666667 453 518 399 c 128
 567.333333333 345 592 280 592 204 c 0
 592 144 575.5 93 542.5 51 c 128
 509.5 9 470 -12 424 -12 c 0
 396 -12 371.166666667 -6.5 349.5 4.5 c 128
 327.833333333 15.5 312.666666667 30 304 48 c 1
 304 48 l 1
EndSplineSet
Colour: ff0000
EndChar

StartChar: tml_Hundred
Encoding: 63 3057 62
GlifName: tml_H_undred
Width: 0
Flags: HMW
LayerCount: 2
Back
SplineSet
326 433 m 1
 335.333333333 451 350.666666667 465.333333333 372 476 c 128
 393.333333333 486.666666667 418 492 446 492 c 2
 663 492 l 1
 663 438 l 1
 566 438 l 1
 566 0 l 1
 507 0 l 1
 507 438 l 1
 446 438 l 2
 426 438 407.166666667 430.833333333 389.5 416.5 c 128
 371.833333333 402.166666667 359 383.333333333 351 360 c 1
 351 0 l 1
 290 0 l 1
 290 360 l 2
 290 383.333333333 283 403.166666667 269 419.5 c 128
 255 435.833333333 238.333333333 444 219 444 c 0
 199 444 181.833333333 435.833333333 167.5 419.5 c 128
 153.166666667 403.166666667 146 383.333333333 146 360 c 2
 146 0 l 1
 87 0 l 1
 87 360 l 2
 87 397.333333333 99.6666666667 428.666666667 125 454 c 128
 150.333333333 479.333333333 181.666666667 492 219 492 c 0
 237 492 255.5 486.833333333 274.5 476.5 c 128
 293.5 466.166666667 310.666666667 451.666666667 326 433 c 1
 326 433 l 1
EndSplineSet
Colour: ff0000
EndChar

StartChar: tml_Thousand
Encoding: 64 3058 63
GlifName: tml_T_housand
Width: 0
Flags: HMW
LayerCount: 2
Back
SplineSet
214 433 m 1
 214 264 l 1
 334 264 l 1
 334 433 l 1
 214 433 l 1
 214 433 l 1
94 156 m 1
 94 123.333333333 106.833333333 95.1666666667 132.5 71.5 c 128
 158.166666667 47.8333333333 189.333333333 36 226 36 c 0
 255.333333333 36 280.666666667 45.5 302 64.5 c 128
 323.333333333 83.5 334 106 334 132 c 2
 334 216 l 1
 153 216 l 2
 136.333333333 216 122.333333333 210.333333333 111 199 c 128
 99.6666666667 187.666666667 94 173.333333333 94 156 c 1
 94 156 l 1
33 156 m 1
 33 185.333333333 44.8333333333 210.666666667 68.5 232 c 128
 92.1666666667 253.333333333 120.333333333 264 153 264 c 1
 153 480 l 1
 562 480 l 1
 562 433 l 1
 394 433 l 1
 394 264 l 1
 634 264 l 1
 634 216 l 1
 502 216 l 1
 502 132 l 1
 512 143.333333333 524.333333333 152.166666667 539 158.5 c 128
 553.666666667 164.833333333 569.333333333 168 586 168 c 0
 623.333333333 168 654.666666667 152.833333333 680 122.5 c 128
 705.333333333 92.1666666667 718 55.3333333333 718 12 c 0
 718 -34 695.833333333 -73.5 651.5 -106.5 c 128
 607.166666667 -139.5 553.333333333 -156 490 -156 c 2
 153 -156 l 2
 126.333333333 -156 103.833333333 -167.833333333 85.5 -191.5 c 128
 67.1666666667 -215.166666667 58 -243.333333333 58 -276 c 1
 10 -276 l 1
 10 -230 24 -190.5 52 -157.5 c 128
 80 -124.5 113.666666667 -108 153 -108 c 2
 490 -108 l 2
 536 -108 575.5 -96.1666666667 608.5 -72.5 c 128
 641.5 -48.8333333333 658 -20.6666666667 658 12 c 0
 658 41.3333333333 651 66.6666666667 637 88 c 128
 623 109.333333333 606 120 586 120 c 0
 566.666666667 120 549.166666667 113.833333333 533.5 101.5 c 128
 517.833333333 89.1666666667 507.333333333 73.3333333333 502 54 c 1
 502 0 l 1
 441 0 l 1
 441 216 l 1
 394 216 l 1
 394 132 l 2
 394 92 377.5 58 344.5 30 c 128
 311.5 2 272 -12 226 -12 c 0
 173.333333333 -12 128 4.5 90 37.5 c 128
 52 70.5 33 110 33 156 c 1
 33 156 l 1
EndSplineSet
Colour: ff0000
EndChar

StartChar: tml_Day
Encoding: 65 3059 64
GlifName: tml_D_ay
Width: 0
Flags: HMW
LayerCount: 2
Back
SplineSet
195 132 m 1
 195 105.333333333 203.333333333 82.6666666667 220 64 c 128
 236.666666667 45.3333333333 256.333333333 36 279 36 c 0
 305.666666667 36 328.5 45.5 347.5 64.5 c 128
 366.5 83.5 376 106 376 132 c 0
 376 158.666666667 366.5 181.5 347.5 200.5 c 128
 328.5 219.5 305.666666667 229 279 229 c 0
 255.666666667 229 235.833333333 219.5 219.5 200.5 c 128
 203.166666667 181.5 195 158.666666667 195 132 c 1
 195 132 l 1
52 229 m 1
 52 301.666666667 77.6666666667 363.666666667 129 415 c 128
 180.333333333 466.333333333 242.333333333 492 315 492 c 0
 391 492 456.166666667 466.166666667 510.5 414.5 c 128
 564.833333333 362.833333333 592 301 592 229 c 0
 592 197 587.833333333 165.666666667 579.5 135 c 128
 571.166666667 104.333333333 559.333333333 75.3333333333 544 48 c 1
 880 48 l 1
 880 0 l 1
 472 0 l 1
 472 36 l 1
 491.333333333 59.3333333333 506.166666667 87.3333333333 516.5 120 c 128
 526.833333333 152.666666667 532 189 532 229 c 0
 532 289 511 339.833333333 469 381.5 c 128
 427 423.166666667 375.666666667 444 315 444 c 0
 255 444 204.166666667 423 162.5 381 c 128
 120.833333333 339 100 288.333333333 100 229 c 0
 100 201.666666667 105.166666667 174.333333333 115.5 147 c 128
 125.833333333 119.666666667 140.333333333 94.6666666667 159 72 c 1
 155 83.3333333333 152 94 150 104 c 128
 148 114 147 123.333333333 147 132 c 0
 147 172 160 206 186 234 c 128
 212 262 243 276 279 276 c 0
 319 276 353.166666667 262 381.5 234 c 128
 409.833333333 206 424 172 424 132 c 0
 424 92 410 58 382 30 c 128
 354 2 319.666666667 -12 279 -12 c 0
 215.666666667 -12 162 11.5 118 58.5 c 128
 74 105.5 52 162.333333333 52 229 c 1
 52 229 l 1
EndSplineSet
Colour: ff0000
EndChar

StartChar: tml_Month
Encoding: 66 3060 65
GlifName: tml_M_onth
Width: 0
Flags: HMW
LayerCount: 2
Back
SplineSet
438 360 m 1
 438 48 l 1
 606 48 l 2
 629.333333333 48 649.166666667 60.8333333333 665.5 86.5 c 128
 681.833333333 112.166666667 690 143.333333333 690 180 c 0
 690 252.666666667 672.5 314.833333333 637.5 366.5 c 128
 602.5 418.166666667 560 444 510 444 c 0
 490 444 473 435.833333333 459 419.5 c 128
 445 403.166666667 438 383.333333333 438 360 c 1
 438 360 l 1
498 492 m 1
 472.666666667 506.666666667 452.333333333 527 437 553 c 128
 421.666666667 579 414 607 414 637 c 0
 414 683 431.666666667 722.5 467 755.5 c 128
 502.333333333 788.5 544.666666667 805 594 805 c 0
 610 805 623.833333333 804.166666667 635.5 802.5 c 128
 647.166666667 800.833333333 657 798.666666667 665 796 c 1
 686.333333333 810 708.5 820.5 731.5 827.5 c 128
 754.5 834.5 776.333333333 838 797 838 c 0
 821.666666667 838 844.666666667 832.666666667 866 822 c 128
 887.333333333 811.333333333 904.333333333 796.666666667 917 778 c 1
 931.666666667 797.333333333 949.833333333 812.166666667 971.5 822.5 c 128
 993.166666667 832.833333333 1015 838 1037 838 c 1
 1037 790 l 1
 1023 790 1009 785.833333333 995 777.5 c 128
 981 769.166666667 969 757.333333333 959 742 c 1
 969.666666667 728 977.5 715.166666667 982.5 703.5 c 128
 987.5 691.833333333 990 681.333333333 990 672 c 0
 990 651.333333333 983.5 633.833333333 970.5 619.5 c 128
 957.5 605.166666667 941.333333333 598 922 598 c 256
 902.666666667 598 886.166666667 605.166666667 872.5 619.5 c 128
 858.833333333 633.833333333 852 651.333333333 852 672 c 0
 852 683.333333333 855 695.333333333 861 708 c 128
 867 720.666666667 875.666666667 732.666666667 887 744 c 1
 875 758 861.166666667 769.166666667 845.5 777.5 c 128
 829.833333333 785.833333333 813.666666667 790 797 790 c 0
 781 790 765.666666667 788 751 784 c 128
 736.333333333 780 723 774 711 766 c 1
 731.666666667 752 748 735.5 760 716.5 c 128
 772 697.5 778 678.666666667 778 660 c 0
 778 630.666666667 766 605.333333333 742 584 c 128
 718 562.666666667 688.666666667 552 654 552 c 0
 627.333333333 552 604.833333333 561.333333333 586.5 580 c 128
 568.166666667 598.666666667 559 621.333333333 559 648 c 0
 559 670 564.333333333 690.833333333 575 710.5 c 128
 585.666666667 730.166666667 600 745.333333333 618 756 c 1
 594 756 l 2
 558.666666667 756 528.5 744.333333333 503.5 721 c 128
 478.5 697.666666667 466 669.666666667 466 637 c 0
 466 611.666666667 477.333333333 585 500 557 c 128
 522.666666667 529 554 503.333333333 594 480 c 1
 641.333333333 463.333333333 679.166666667 427.333333333 707.5 372 c 128
 735.833333333 316.666666667 750 252.666666667 750 180 c 0
 750 130.666666667 736 88.3333333333 708 53 c 128
 680 17.6666666667 646 0 606 0 c 2
 90 0 l 1
 90 480 l 1
 150 480 l 1
 150 48 l 1
 378 48 l 1
 378 360 l 2
 378 397.333333333 389.833333333 428.666666667 413.5 454 c 128
 437.166666667 479.333333333 465.333333333 492 498 492 c 1
 498 492 l 1
606 648 m 1
 606 634 610.666666667 622.666666667 620 614 c 128
 629.333333333 605.333333333 640.666666667 601 654 601 c 0
 674 601 691.166666667 606.666666667 705.5 618 c 128
 719.833333333 629.333333333 727 643.333333333 727 660 c 0
 727 676 722 691.166666667 712 705.5 c 128
 702 719.833333333 688.666666667 730.666666667 672 738 c 1
 652 728 636 715.166666667 624 699.5 c 128
 612 683.833333333 606 666.666666667 606 648 c 1
 606 648 l 1
900 672 m 1
 900 665.333333333 902.166666667 659.666666667 906.5 655 c 128
 910.833333333 650.333333333 916 648 922 648 c 256
 928 648 932.833333333 650.5 936.5 655.5 c 128
 940.166666667 660.5 942 666 942 672 c 0
 942 678.666666667 940.333333333 685.166666667 937 691.5 c 128
 933.666666667 697.833333333 928.666666667 703.333333333 922 708 c 1
 915.333333333 703.333333333 910 697.833333333 906 691.5 c 128
 902 685.166666667 900 678.666666667 900 672 c 1
 900 672 l 1
EndSplineSet
Colour: ff0000
EndChar

StartChar: tml_Year
Encoding: 67 3061 66
GlifName: tml_Y_ear
Width: 0
Flags: HMW
LayerCount: 2
Back
SplineSet
377 132 m 1
 377 105.333333333 384.833333333 82.6666666667 400.5 64 c 128
 416.166666667 45.3333333333 434.666666667 36 456 36 c 256
 477.333333333 36 495.833333333 45.5 511.5 64.5 c 128
 527.166666667 83.5 535 106 535 132 c 0
 535 158.666666667 527.166666667 181.5 511.5 200.5 c 128
 495.833333333 219.5 477.333333333 229 456 229 c 256
 434.666666667 229 416.166666667 219.5 400.5 200.5 c 128
 384.833333333 181.5 377 158.666666667 377 132 c 1
 377 132 l 1
907 48 m 1
 907 480 l 1
 1271 480 l 1
 1271 433 l 1
 1147 433 l 1
 1147 234 l 1
 1158.33333333 244 1170.33333333 251.5 1183 256.5 c 128
 1195.66666667 261.5 1208.33333333 264 1221 264 c 0
 1255 264 1283.66666667 247.666666667 1307 215 c 128
 1330.33333333 182.333333333 1342 142.666666667 1342 96 c 0
 1342 -16.6666666667 1279.66666667 -112.833333333 1155 -192.5 c 128
 1030.33333333 -272.166666667 879.333333333 -312 702 -312 c 0
 526 -312 375.5 -262.833333333 250.5 -164.5 c 128
 125.5 -66.1666666667 63 52.6666666667 63 192 c 0
 63 338 132.333333333 462.666666667 271 566 c 128
 409.666666667 669.333333333 577 721 773 721 c 0
 969 721 1136.16666667 685.666666667 1274.5 615 c 128
 1412.83333333 544.333333333 1482 459.333333333 1482 360 c 2
 1482 180 l 2
 1482 142.666666667 1490.5 111.333333333 1507.5 86 c 128
 1524.5 60.6666666667 1545 48 1569 48 c 0
 1598.33333333 48 1623.66666667 66.8333333333 1645 104.5 c 128
 1666.33333333 142.166666667 1677 187.333333333 1677 240 c 256
 1677 292.666666667 1667.66666667 338 1649 376 c 128
 1630.33333333 414 1607.33333333 433 1580 433 c 1
 1599 480 l 1
 1633.66666667 480 1663.33333333 456.666666667 1688 410 c 128
 1712.66666667 363.333333333 1725 306.666666667 1725 240 c 256
 1725 173.333333333 1709.83333333 116.666666667 1679.5 70 c 128
 1649.16666667 23.3333333333 1612.33333333 0 1569 0 c 0
 1529 0 1495 17.5 1467 52.5 c 128
 1439 87.5 1425 130 1425 180 c 2
 1425 360 l 2
 1425 446.666666667 1361.16666667 520.333333333 1233.5 581 c 128
 1105.83333333 641.666666667 951.666666667 672 771 672 c 256
 590.333333333 672 436 625.333333333 308 532 c 128
 180 438.666666667 116 325.333333333 116 192 c 0
 116 66.6666666667 173.166666667 -40.6666666667 287.5 -130 c 128
 401.833333333 -219.333333333 539.333333333 -264 700 -264 c 0
 861.333333333 -264 999 -228.833333333 1113 -158.5 c 128
 1227 -88.1666666667 1284 -3.33333333333 1284 96 c 0
 1284 127.333333333 1277.5 154.166666667 1264.5 176.5 c 128
 1251.5 198.833333333 1236 210 1218 210 c 0
 1198.66666667 210 1182 203 1168 189 c 128
 1154 175 1147 158 1147 138 c 2
 1147 0 l 1
 1090 0 l 1
 1090 433 l 1
 967 433 l 1
 967 0 l 1
 652 0 l 1
 652 36 l 1
 668.666666667 58 681.666666667 85.6666666667 691 119 c 128
 700.333333333 152.333333333 705 189 705 229 c 0
 705 289 684.666666667 339.833333333 644 381.5 c 128
 603.333333333 423.166666667 554.333333333 444 497 444 c 0
 440.333333333 444 391.666666667 423 351 381 c 128
 310.333333333 339 290 288.333333333 290 229 c 0
 290 199.666666667 294.166666667 171.5 302.5 144.5 c 128
 310.833333333 117.5 323.333333333 93.3333333333 340 72 c 1
 336.666666667 83.3333333333 334 94 332 104 c 128
 330 114 329 123.333333333 329 132 c 0
 329 172 340.666666667 206 364 234 c 128
 387.333333333 262 416 276 450 276 c 0
 487.333333333 276 518.833333333 262 544.5 234 c 128
 570.166666667 206 583 172 583 132 c 0
 583 92 570.166666667 58 544.5 30 c 128
 518.833333333 2 487.333333333 -12 450 -12 c 0
 383.333333333 -12 330 9.83333333333 290 53.5 c 128
 250 97.1666666667 230 155.666666667 230 229 c 256
 230 301.666666667 256.166666667 363.666666667 308.5 415 c 128
 360.833333333 466.333333333 423.666666667 492 497 492 c 256
 570.333333333 492 633.166666667 466.166666667 685.5 414.5 c 128
 737.833333333 362.833333333 764 301 764 229 c 0
 764 197 760.333333333 165.666666667 753 135 c 128
 745.666666667 104.333333333 735.333333333 75.3333333333 722 48 c 1
 907 48 l 1
 907 48 l 1
EndSplineSet
Colour: ff0000
EndChar

StartChar: tml_Debit
Encoding: 68 3062 67
GlifName: tml_D_ebit
Width: 0
Flags: HMW
LayerCount: 2
Back
SplineSet
83 132 m 1
 83 480 l 1
 143 480 l 1
 143 132 l 2
 143 105.333333333 151.166666667 82.6666666667 167.5 64 c 128
 183.833333333 45.3333333333 203.666666667 36 227 36 c 0
 256.333333333 36 281.666666667 46.6666666667 303 68 c 128
 324.333333333 89.3333333333 335 115 335 145 c 2
 335 480 l 1
 395 480 l 1
 395 -60 l 1
 623 -60 l 1
 623 480 l 1
 683 480 l 1
 683 -108 l 1
 395 -108 l 1
 395 -180 l 2
 395 -212.666666667 383.833333333 -240.833333333 361.5 -264.5 c 128
 339.166666667 -288.166666667 312.333333333 -300 281 -300 c 2
 197 -300 l 2
 164.333333333 -300 136.166666667 -288.166666667 112.5 -264.5 c 128
 88.8333333333 -240.833333333 77 -212.666666667 77 -180 c 0
 77 -147.333333333 88.6666666667 -119.166666667 112 -95.5 c 128
 135.333333333 -71.8333333333 163.666666667 -60 197 -60 c 2
 335 -60 l 1
 335 36 l 1
 325.666666667 21.3333333333 311.5 9.66666666667 292.5 1 c 128
 273.5 -7.66666666667 251.666666667 -12 227 -12 c 0
 187 -12 153 2 125 30 c 128
 97 58 83 92 83 132 c 1
 83 132 l 1
137 -180 m 1
 137 -200 142.833333333 -217 154.5 -231 c 128
 166.166666667 -245 180.333333333 -252 197 -252 c 2
 281 -252 l 2
 295.666666667 -252 308.333333333 -245 319 -231 c 128
 329.666666667 -217 335 -200 335 -180 c 2
 335 -108 l 1
 197 -108 l 2
 180.333333333 -108 166.166666667 -115 154.5 -129 c 128
 142.833333333 -143 137 -160 137 -180 c 1
 137 -180 l 1
EndSplineSet
Colour: ff0000
EndChar

StartChar: tml_Credit
Encoding: 69 3063 68
GlifName: tml_C_redit
Width: 0
Flags: HMW
LayerCount: 2
Back
SplineSet
209 132 m 1
 209 105.333333333 216 82.6666666667 230 64 c 128
 244 45.3333333333 261 36 281 36 c 256
 301 36 318 45.5 332 64.5 c 128
 346 83.5 353 106 353 132 c 0
 353 155.333333333 346 175.166666667 332 191.5 c 128
 318 207.833333333 301 216 281 216 c 0
 261 216 244 207.833333333 230 191.5 c 128
 216 175.166666667 209 155.333333333 209 132 c 1
 209 132 l 1
53 216 m 1
 53 288.666666667 77.5 350.833333333 126.5 402.5 c 128
 175.5 454.166666667 235 480 305 480 c 2
 725 480 l 1
 725 433 l 1
 605 433 l 1
 605 142 l 1
 617 156 631 169 647 181 c 128
 663 193 680.666666667 203.666666667 700 213 c 1
 710.666666667 255.666666667 733.5 290.666666667 768.5 318 c 128
 803.5 345.333333333 843 359 887 359 c 0
 942.333333333 359 989.666666667 340.166666667 1029 302.5 c 128
 1068.33333333 264.833333333 1088 219.666666667 1088 167 c 0
 1088 143 1085.16666667 119.666666667 1079.5 97 c 128
 1073.83333333 74.3333333333 1065.33333333 53.6666666667 1054 35 c 1
 1298 35 l 1
 1298 0 l 1
 1000 0 l 1
 1000 26 l 1
 1014 42.6666666667 1024.66666667 63.1666666667 1032 87.5 c 128
 1039.33333333 111.833333333 1043 138.333333333 1043 167 c 0
 1043 209.666666667 1027.83333333 246.5 997.5 277.5 c 128
 967.166666667 308.5 930.333333333 324 887 324 c 0
 855.666666667 324 827.166666667 315.166666667 801.5 297.5 c 128
 775.833333333 279.833333333 756.333333333 256.333333333 743 227 c 1
 756.333333333 230.333333333 769.166666667 232.666666667 781.5 234 c 128
 793.833333333 235.333333333 805.666666667 236 817 236 c 0
 858.333333333 236 893.666666667 223.5 923 198.5 c 128
 952.333333333 173.5 967 143.333333333 967 108 c 0
 967 76 954.833333333 48.5 930.5 25.5 c 128
 906.166666667 2.5 876.666666667 -9 842 -9 c 0
 800.666666667 -9 765.666666667 8.33333333333 737 43 c 128
 708.333333333 77.6666666667 694 119 694 167 c 1
 673.333333333 155 655.166666667 140.833333333 639.5 124.5 c 128
 623.833333333 108.166666667 612.333333333 89.6666666667 605 69 c 1
 605 0 l 1
 545 0 l 1
 545 433 l 1
 305 433 l 2
 249 433 201 411.833333333 161 369.5 c 128
 121 327.166666667 101 276 101 216 c 0
 101 180.666666667 109.5 148 126.5 118 c 128
 143.5 88 167 64.6666666667 197 48 c 1
 185 62 176 76 170 90 c 128
 164 104 161 118 161 132 c 0
 161 169.333333333 172.666666667 200.666666667 196 226 c 128
 219.333333333 251.333333333 247.666666667 264 281 264 c 0
 318.333333333 264 349.666666667 251.333333333 375 226 c 128
 400.333333333 200.666666667 413 169.333333333 413 132 c 0
 413 92 397.666666667 58 367 30 c 128
 336.333333333 2 299.666666667 -12 257 -12 c 0
 201 -12 153 10.1666666667 113 54.5 c 128
 73 98.8333333333 53 152.666666667 53 216 c 1
 53 216 l 1
731 183 m 1
 731 141.666666667 741.833333333 106.166666667 763.5 76.5 c 128
 785.166666667 46.8333333333 811.333333333 32 842 32 c 0
 863.333333333 32 881.333333333 39.5 896 54.5 c 128
 910.666666667 69.5 918 87.3333333333 918 108 c 0
 918 132.666666667 908.166666667 153.666666667 888.5 171 c 128
 868.833333333 188.333333333 845 197 817 197 c 0
 803 197 788.666666667 195.666666667 774 193 c 128
 759.333333333 190.333333333 745 187 731 183 c 1
 731 183 l 1
EndSplineSet
Colour: ff0000
EndChar

StartChar: tml_Above
Encoding: 70 3064 69
GlifName: tml_A_bove
Width: 0
Flags: HMW
LayerCount: 2
Back
SplineSet
60 300 m 1
 60 398.666666667 95.1666666667 483.333333333 165.5 554 c 128
 235.833333333 624.666666667 320.666666667 660 420 660 c 0
 493.333333333 660 561.5 635.833333333 624.5 587.5 c 128
 687.5 539.166666667 733.666666667 475.333333333 763 396 c 1
 774.333333333 400 786.166666667 403 798.5 405 c 128
 810.833333333 407 825 408 841 408 c 0
 890.333333333 408 932.666666667 389.166666667 968 351.5 c 128
 1003.33333333 313.833333333 1021 268.666666667 1021 216 c 0
 1021 178 1015.66666667 144.5 1005 115.5 c 128
 994.333333333 86.5 979.333333333 64 960 48 c 1
 1188 48 l 1
 1158.66666667 62 1135.5 83 1118.5 111 c 128
 1101.5 139 1093 170 1093 204 c 0
 1093 241.333333333 1107 272.666666667 1135 298 c 128
 1163 323.333333333 1196.66666667 336 1236 336 c 256
 1276 336 1310.16666667 323.333333333 1338.5 298 c 128
 1366.83333333 272.666666667 1381 241.333333333 1381 204 c 2
 1381 48 l 1
 1549 48 l 1
 1549 0 l 1
 1381 0 l 1
 1381 -288 l 1
 1320 -288 l 1
 1320 0 l 1
 853 0 l 1
 853 36 l 1
 885.666666667 48 911.666666667 70.3333333333 931 103 c 128
 950.333333333 135.666666667 960 173.333333333 960 216 c 0
 960 256 947.333333333 290 922 318 c 128
 896.666666667 346 865.333333333 360 828 360 c 0
 814.666666667 360 803.666666667 359.333333333 795 358 c 128
 786.333333333 356.666666667 779.333333333 355.333333333 774 354 c 1
 775.333333333 348 776.666666667 340.666666667 778 332 c 128
 779.333333333 323.333333333 780 312.666666667 780 300 c 0
 780 216.666666667 764.833333333 145.833333333 734.5 87.5 c 128
 704.166666667 29.1666666667 667.333333333 0 624 0 c 0
 600.666666667 0 580.833333333 11.8333333333 564.5 35.5 c 128
 548.166666667 59.1666666667 540 87.3333333333 540 120 c 0
 540 180 554.833333333 233.666666667 584.5 281 c 128
 614.166666667 328.333333333 653.333333333 360.666666667 702 378 c 1
 676.666666667 448 638.166666667 504.5 586.5 547.5 c 128
 534.833333333 590.5 479.333333333 612 420 612 c 0
 335.333333333 612 263.166666667 581.666666667 203.5 521 c 128
 143.833333333 460.333333333 114 386.666666667 114 300 c 0
 114 272 118.666666667 242.666666667 128 212 c 128
 137.333333333 181.333333333 150.666666667 150.666666667 168 120 c 1
 164 161.333333333 175.166666667 197.666666667 201.5 229 c 128
 227.833333333 260.333333333 260.666666667 276 300 276 c 0
 340 276 374 262 402 234 c 128
 430 206 444 172 444 132 c 0
 444 92 430 58 402 30 c 128
 374 2 340 -12 300 -12 c 0
 233.333333333 -12 176.666666667 18.5 130 79.5 c 128
 83.3333333333 140.5 60 214 60 300 c 1
 60 300 l 1
216 132 m 1
 216 105.333333333 224.333333333 82.6666666667 241 64 c 128
 257.666666667 45.3333333333 277.333333333 36 300 36 c 0
 323.333333333 36 343.166666667 45.5 359.5 64.5 c 128
 375.833333333 83.5 384 106 384 132 c 0
 384 158.666666667 375.166666667 181.5 357.5 200.5 c 128
 339.833333333 219.5 318.666666667 229 294 229 c 0
 272.666666667 229 254.333333333 219.5 239 200.5 c 128
 223.666666667 181.5 216 158.666666667 216 132 c 1
 216 132 l 1
601 120 m 1
 601 100 603.166666667 83 607.5 69 c 128
 611.833333333 55 617.333333333 48 624 48 c 0
 648.666666667 48 669.833333333 72.5 687.5 121.5 c 128
 705.166666667 170.5 714 230 714 300 c 2
 714 336 l 1
 679.333333333 322.666666667 651.833333333 296.333333333 631.5 257 c 128
 611.166666667 217.666666667 601 172 601 120 c 1
 601 120 l 1
1152 204 m 1
 1152 161.333333333 1168.5 124.666666667 1201.5 94 c 128
 1234.5 63.3333333333 1274 48 1320 48 c 1
 1320 204 l 2
 1320 227.333333333 1311.83333333 247.166666667 1295.5 263.5 c 128
 1279.16666667 279.833333333 1259.33333333 288 1236 288 c 256
 1212.66666667 288 1192.83333333 279.833333333 1176.5 263.5 c 128
 1160.16666667 247.166666667 1152 227.333333333 1152 204 c 1
 1152 204 l 1
EndSplineSet
Colour: ff0000
EndChar

StartChar: tml_Rupee
Encoding: 71 3065 70
GlifName: tml_R_upee
Width: 0
Flags: HMW
LayerCount: 2
Back
SplineSet
446 -216 m 1
 536 -216 612.666666667 -183.333333333 676 -118 c 128
 739.333333333 -52.6666666667 771 26.6666666667 771 120 c 0
 771 157.333333333 759.666666667 188.666666667 737 214 c 128
 714.333333333 239.333333333 687.333333333 252 656 252 c 0
 644 252 631.333333333 247.833333333 618 239.5 c 128
 604.666666667 231.166666667 591.666666667 219.333333333 579 204 c 1
 579 0 l 1
 519 0 l 1
 519 433 l 1
 375 433 l 1
 375 0 l 1
 314 0 l 1
 314 480 l 1
 675 480 l 1
 675 433 l 1
 579 433 l 1
 579 264 l 1
 585.666666667 275.333333333 596.5 284.166666667 611.5 290.5 c 128
 626.5 296.833333333 643.666666667 300 663 300 c 0
 709 300 748.5 282.333333333 781.5 247 c 128
 814.5 211.666666667 831 169.333333333 831 120 c 0
 831 14 793.5 -76.5 718.5 -151.5 c 128
 643.5 -226.5 552.666666667 -264 446 -264 c 0
 344 -264 256.5 -217.666666667 183.5 -125 c 128
 110.5 -32.3333333333 74 79.3333333333 74 210 c 0
 74 350.666666667 113.833333333 471 193.5 571 c 128
 273.166666667 671 369.333333333 721 482 721 c 0
 556 721 624 698.833333333 686 654.5 c 128
 748 610.166666667 792 552 818 480 c 1
 829.333333333 508.666666667 848.333333333 531.833333333 875 549.5 c 128
 901.666666667 567.166666667 931 576 963 576 c 0
 1003 576 1036.83333333 564.333333333 1064.5 541 c 128
 1092.16666667 517.666666667 1106 489.333333333 1106 456 c 1
 1203 456 l 1
 1203 408 l 1
 1059 408 l 1
 1059 440.666666667 1049.5 468.833333333 1030.5 492.5 c 128
 1011.5 516.166666667 989 528 963 528 c 0
 930.333333333 528 902.166666667 514 878.5 486 c 128
 854.833333333 458 843 424 843 384 c 1
 782 384 l 1
 782 463.333333333 752.833333333 531.166666667 694.5 587.5 c 128
 636.166666667 643.833333333 565.333333333 672 482 672 c 0
 384.666666667 672 301.5 626.833333333 232.5 536.5 c 128
 163.5 446.166666667 129 337.333333333 129 210 c 0
 129 92 159.833333333 -8.5 221.5 -91.5 c 128
 283.166666667 -174.5 358 -216 446 -216 c 1
 446 -216 l 1
EndSplineSet
Colour: ff0000
EndChar

StartChar: tml_Number
Encoding: 72 3066 71
GlifName: tml_N_umber
Width: 0
Flags: HMW
LayerCount: 2
Back
SplineSet
672 336 m 1
 672 319.333333333 677.833333333 305.166666667 689.5 293.5 c 128
 701.166666667 281.833333333 715.333333333 276 732 276 c 0
 746.666666667 276 759.333333333 281.833333333 770 293.5 c 128
 780.666666667 305.166666667 786 319.333333333 786 336 c 0
 786 359.333333333 785 379.333333333 783 396 c 128
 781 412.666666667 778 426.666666667 774 438 c 1
 743.333333333 430 718.666666667 416.666666667 700 398 c 128
 681.333333333 379.333333333 672 358.666666667 672 336 c 1
 672 336 l 1
90 0 m 1
 90 480 l 1
 378 480 l 1
 368 489.333333333 360.5 502.333333333 355.5 519 c 128
 350.5 535.666666667 348 554.666666667 348 576 c 0
 348 614.666666667 367.5 647.333333333 406.5 674 c 128
 445.5 700.666666667 492 714 546 714 c 0
 606 714 660.666666667 693.333333333 710 652 c 128
 759.333333333 610.666666667 793 557 811 491 c 1
 828 492 l 1
 893.333333333 492 948.666666667 473.166666667 994 435.5 c 128
 1039.33333333 397.833333333 1062 352.666666667 1062 300 c 0
 1062 252 1047.16666667 205.666666667 1017.5 161 c 128
 987.833333333 116.333333333 947 78.6666666667 895 48 c 1
 1158 48 l 1
 1158 0 l 1
 696 0 l 1
 790 34.6666666667 865.666666667 79.3333333333 923 134 c 128
 980.333333333 188.666666667 1009 244 1009 300 c 0
 1009 340 991.166666667 374 955.5 402 c 128
 919.833333333 430 877.333333333 444 828 444 c 1
 832.666666667 433.333333333 836.333333333 419.166666667 839 401.5 c 128
 841.666666667 383.833333333 843 362 843 336 c 0
 843 306.666666667 832.166666667 281.5 810.5 260.5 c 128
 788.833333333 239.5 762.666666667 229 732 229 c 0
 700.666666667 229 673.833333333 239.5 651.5 260.5 c 128
 629.166666667 281.5 618 306.666666667 618 336 c 0
 618 372 631 403.833333333 657 431.5 c 128
 683 459.166666667 716 476.333333333 756 483 c 1
 742 536.333333333 715.333333333 580.166666667 676 614.5 c 128
 636.666666667 648.833333333 593.333333333 666 546 666 c 0
 506 666 472 657.166666667 444 639.5 c 128
 416 621.833333333 402 600.666666667 402 576 c 0
 402 555.333333333 405.166666667 536.5 411.5 519.5 c 128
 417.833333333 502.5 426.666666667 489.333333333 438 480 c 1
 522 480 l 1
 522 433 l 1
 354 433 l 1
 354 258 l 1
 364 269.333333333 376.333333333 278.166666667 391 284.5 c 128
 405.666666667 290.833333333 421.333333333 294 438 294 c 0
 480.666666667 294 517.333333333 280.666666667 548 254 c 128
 578.666666667 227.333333333 594 194.666666667 594 156 c 0
 594 113.333333333 577.666666667 76.6666666667 545 46 c 128
 512.333333333 15.3333333333 472.666666667 0 426 0 c 2
 294 0 l 1
 294 48 l 1
 426 48 l 2
 455.333333333 48 480.666666667 58.5 502 79.5 c 128
 523.333333333 100.5 534 126 534 156 c 0
 534 179.333333333 524.666666667 199.166666667 506 215.5 c 128
 487.333333333 231.833333333 464.666666667 240 438 240 c 0
 424 240 409.666666667 235.833333333 395 227.5 c 128
 380.333333333 219.166666667 366.666666667 207.333333333 354 192 c 1
 354 96 l 1
 294 96 l 1
 294 433 l 1
 150 433 l 1
 150 0 l 1
 90 0 l 1
 90 0 l 1
EndSplineSet
Colour: ff0000
EndChar

StartChar: tml_TtI
Encoding: 76 -1 72
GlifName: tml_T_tI_
Width: 1003
VWidth: 0
Flags: HMW
LayerCount: 2
Back
SplineSet
90 560 m 5
 177 560 l 5
 172 0 l 5
 90 0 l 5
 90 560 l 5
110 56 m 5
 951 56 l 5
 951 0 l 5
 110 0 l 5
 110 56 l 5
571.955078125 571.30859375 m 4
 676.766899368 571.30859375 750 500.99311364 750 380 c 6
 750 -194 l 5
 668 -194 l 5
 667 379 l 5
 668.162083225 444.836624509 635.262146013 506.494140625 557.181640625 506.494140625 c 4
 488.661629365 506.494140625 430.384765625 438.537963249 430.384765625 326.685546875 c 4
 430.384765625 198.144782846 526.893122731 60.8254195319 645 50 c 5
 637 14 l 5
 633.72692721 13.8559516786 630.448347555 13.6564474875 627.174804688 13.7841796875 c 4
 474.874799009 19.1770042188 364.876362765 185.503549275 367.9609375 331.596679688 c 4
 371.192158378 463.545327039 445.431280924 571.30859375 571.955078125 571.30859375 c 4
EndSplineSet
Fore
SplineSet
88 0 m 1
 90.556640625 25.4814453125 94 103.978515625 94 147 c 2
 94 554 l 1
 112.333984375 557.639648438 158.322265625 561.139648438 184 561 c 1
 184 56 l 1
 397 56 l 2
 535.815429688 56.99609375 795.483398438 54.47265625 954 66 c 1
 960.4296875 53.6904296875 967.404296875 21 968 0 c 1
 927.286132812 0.2666015625 697.196289062 -0.041015625 654 0 c 2
 88 0 l 1
395.9609375 305.596679688 m 0
 397.680855947 425.76422718 478.129535693 519.30859375 591.955078125 519.30859375 c 0
 694.412109375 519.30859375 763 459.360351562 763 339 c 2
 763 -194 l 1
 676 -194 l 1
 675 339 l 2
 674.284438473 407.934570312 645.764720425 461.494140625 572.181640625 461.494140625 c 0
 517.703925341 461.494140625 453.384765625 409.884274648 453.384765625 298.685546875 c 0
 453.384765625 181.987825093 546.162394089 53.6498194939 668 53 c 1
 643 21 l 1
 639.7265625 20.85546875 636.449160722 20.8847204489 633.174804688 20.7841796875 c 0
 484.720035826 16.1478300049 393.985620973 166.350501547 395.9609375 305.596679688 c 0
EndSplineSet
LCarets2: 1 0
Ligature2: "'abvs' Above Base Substitutions lookup 1 subtable" tml_Tta tml_MatraI
Colour: ffffff
EndChar

StartChar: tml_KU
Encoding: 77 -1 73
GlifName: tml_K_U_
Width: 1211
VWidth: 0
Flags: HMW
LayerCount: 2
Back
SplineSet
1008 85 m 1
 1007.35204506 193.4051277 952.283973215 286.443693792 852 288 c 1
 799 290 l 0
 771 286 l 1
 556 289 l 0
 460.796954315 289 399 249.2109375 399 169 c 0
 399 88.9052734375 472.675757883 41.5568709969 580 42 c 0
 698.527081404 42.4893841912 746.623383621 114.425537507 748 226 c 0
 749.787109375 295 l 1
 746.934570312 330 l 1
 748.309000115 383.212511914 748.999999955 469.804469274 747 505 c 1
 576 505 l 0
 576 294 l 0
 509 291 l 0
 509 562 l 1
 595.81744104 559.305664062 843.828214838 559.356445312 1007 561 c 1
 1009.51416489 536.353124322 1008.66938302 523.052151919 1004 505 c 0
 834 505 l 1
 834 427.631157636 834 324.876154557 834 233 c 1
 831.115735599 80.6787564767 746.080536913 -19 572 -19 c 0
 402.571254284 -19 336.040498534 75.3977858138 336.533203125 170 c 0
 337.025390625 264.502929688 411.448003697 341.844183394 530 345 c 0
 608.287346442 347.083984375 706.121828682 346.865234375 870 345 c 1
 1006.74898785 342.874433039 1111.98714308 259.500513991 1113 93 c 1
 1113.40157884 -144.75932344 956.611860852 -378 634 -378 c 0
 248.430328911 -378 80.8490159926 -111.51168379 80 148 c 0
 79.2773785341 369.277133306 193.650674625 519.082384017 285 599 c 1
 326 559 l 1
 217.135251017 461.409587981 148 321.290652697 148 153 c 0
 148 -83.6930530025 316.459341472 -298.4949117 628 -301 c 0
 861.734521736 -302.903200388 1007.18675385 -143.577424578 1008 85 c 1
EndSplineSet
Fore
SplineSet
90.8232421875 170 m 0
 87.79296875 -88.4169921875 268.818359375 -316 635 -316 c 0
 959.436523438 -316 1131.41503906 -107.442382812 1131 83 c 0
 1130.65136719 242.895507812 1009.50195312 322.958984375 884 325 c 0
 840.560546875 325.459960938 790.889648438 325.784179688 756 326.026367188 c 0
 643.811523438 326.807617188 566.728515625 326.538085938 500 325 c 0
 385.479492188 322.360351562 315.055664062 268.076171875 313.533203125 164 c 0
 312.201171875 73.35546875 384.81640625 -23 553 -23 c 0
 719.107421875 -23 804.248046875 84.0673828125 807 223 c 1
 806 301 l 1
 806 511 l 1
 848.272460938 510.958984375 940.157226562 511.266601562 980 511 c 1
 978.404296875 528.333007812 971.4296875 559.666992188 966 570 c 1
 825.112304688 560.47265625 630.477539062 561.265625 464 561 c 1
 466.577148438 505.514648438 468.696289062 440.999023438 469 370 c 0
 469.213867188 320.028320312 462 291 462 291 c 1
 524 291 l 1
 524 364 l 2
 524 417 521.98828125 458.611328125 521.607421875 511 c 1
 564.984375 511.171875 632.008789062 511.69140625 714 511 c 1
 714 370 l 1
 712.934570312 301 l 1
 712.787109375 283 l 1
 712 223 l 2
 710.670898438 99.4140625 644.583984375 34.3564453125 543 34 c 0
 435.62109375 33.623046875 368 98.21875 368 167 c 0
 368 231.600585938 408.853515625 273 493 273 c 2
 727 273 l 1
 753 273 l 1
 849 273 l 1
 966.474609375 271.482421875 1021.30078125 189.735351562 1022 84 c 1
 1021.12988281 -131.036132812 862.920898438 -259.823242188 623 -258 c 0
 323.5546875 -255.724609375 140.495117188 -59.2333984375 142.772460938 174 c 0
 144.37109375 337.745117188 234.083007812 472.669921875 361 556 c 1
 347.844726562 575.758789062 330.510742188 594.452148438 312 602 c 1
 212.415039062 534.927734375 93.2529296875 377.166992188 90.8232421875 170 c 0
EndSplineSet
LCarets2: 1 0
Ligature2: "'psts' Post Base Substitutions lookup 3 subtable" tml_Ka tml_MatraU
Colour: ffffff
EndChar

StartChar: tml_CU
Encoding: 78 -1 74
GlifName: tml_C_U_
Width: 931
VWidth: 0
Flags: HMW
AnchorPoint: "Anchor-0" 507 751 basechar 0
LayerCount: 2
Back
SplineSet
214 433 m 1
 214 264 l 1
 334 264 l 1
 334 433 l 1
 214 433 l 1
 214 433 l 1
94 156 m 1
 94 123.333333333 106.833333333 95.1666666667 132.5 71.5 c 128
 158.166666667 47.8333333333 189.333333333 36 226 36 c 0
 255.333333333 36 280.666666667 45.5 302 64.5 c 128
 323.333333333 83.5 334 106 334 132 c 2
 334 216 l 1
 153 216 l 2
 136.333333333 216 122.333333333 210.333333333 111 199 c 128
 99.6666666667 187.666666667 94 173.333333333 94 156 c 1
 94 156 l 1
33 156 m 1
 33 185.333333333 44.8333333333 210.666666667 68.5 232 c 128
 92.1666666667 253.333333333 120.333333333 264 153 264 c 1
 153 480 l 1
 562 480 l 1
 562 433 l 1
 394 433 l 1
 394 264 l 1
 634 264 l 1
 634 216 l 1
 562 216 l 1
 562 0 l 1
 502 0 l 1
 502 216 l 1
 394 216 l 1
 394 132 l 2
 394 92 377.5 58 344.5 30 c 128
 311.5 2 272 -12 226 -12 c 0
 173.333333333 -12 128 4.5 90 37.5 c 128
 52 70.5 33 110 33 156 c 1
 33 156 l 1
EndSplineSet
Fore
SplineSet
675 0 m 9
 760 0 l 17
 761 307 l 1
 736.78125 307.139648438 698.291992188 305.639648438 681 302 c 1
 681 147 l 2
 681 103.978515625 677.556640625 25.4814453125 675 0 c 9
75.533203125 159 m 0
 74.20703125 68.35546875 151.81640625 -23 310 -23 c 0
 473.44921875 -23 553.291992188 84.0673828125 556 223 c 1
 555 301 l 1
 555 511 l 1
 598.196289062 510.958984375 701.286132812 511.266601562 742 511 c 1
 740.404296875 528.333007812 733.4296875 552.666992188 728 563 c 1
 587.112304688 553.47265625 352.477539062 553.265625 226 553 c 1
 228.577148438 497.514648438 230.696289062 440.999023438 231 370 c 0
 231.213867188 320.028320312 224 291 224 291 c 1
 280 291 l 1
 280 364 l 2
 280 417 278.98828125 458.611328125 278.607421875 511 c 1
 321.984375 511.171875 390.008789062 511.69140625 472 511 c 1
 472 370 l 1
 470.934570312 301 l 1
 472.787109375 283 l 1
 472 226 l 2
 470.670898438 102.4140625 406.583984375 30.3447265625 305 30 c 0
 194.62109375 29.625 118 85.21875 118 164 c 0
 118 234.600585938 170.853515625 283 255 283 c 2
 485 283 l 1
 511 282 l 1
 562.743164062 281.958984375 837.23046875 279.266601562 886 278 c 1
 886.404296875 295.333007812 882.4296875 322.666992188 879 333 c 1
 687.344726562 324.459960938 414.923828125 327.6015625 262 325 c 0
 147.46484375 323.092773438 77.0556640625 263.076171875 75.533203125 159 c 0
EndSplineSet
LCarets2: 1 0
Ligature2: "'psts' Post Base Substitutions lookup 3 subtable" tml_Ca tml_MatraU
Colour: ffffff
EndChar

StartChar: tml_NyU
Encoding: 79 -1 75
GlifName: tml_N_yU_
Width: 1358
VWidth: 0
Flags: HMW
LayerCount: 2
Back
SplineSet
205 132 m 1
 205 105.333333333 213.333333333 82.6666666667 230 64 c 128
 246.666666667 45.3333333333 266.333333333 36 289 36 c 0
 312.333333333 36 332.166666667 45.5 348.5 64.5 c 128
 364.833333333 83.5 373 106 373 132 c 0
 373 158.666666667 364.833333333 181.5 348.5 200.5 c 128
 332.166666667 219.5 312.333333333 229 289 229 c 256
 265.666666667 229 245.833333333 219.5 229.5 200.5 c 128
 213.166666667 181.5 205 158.666666667 205 132 c 1
 205 132 l 1
49 204 m 1
 49 280 78.3333333333 345 137 399 c 128
 195.666666667 453 266.666666667 480 350 480 c 2
 817 480 l 1
 817 433 l 1
 625 433 l 1
 625 264 l 1
 638.333333333 278.666666667 654.333333333 290.333333333 673 299 c 128
 691.666666667 307.666666667 711.666666667 312 733 312 c 0
 775.666666667 312 812.5 291.166666667 843.5 249.5 c 128
 874.5 207.833333333 890 156.666666667 890 96 c 0
 890 62 888 30.8333333333 884 2.5 c 128
 880 -25.8333333333 873.666666667 -50.6666666667 865 -72 c 1
 985 -72 l 1
 985 480 l 1
 1046 480 l 1
 1046 -120 l 1
 848 -120 l 1
 813.333333333 -179.333333333 757 -226.166666667 679 -260.5 c 128
 601 -294.833333333 511 -312 409 -312 c 0
 321.666666667 -312 246.833333333 -302.5 184.5 -283.5 c 128
 122.166666667 -264.5 79.3333333333 -238 56 -204 c 0
 46 -194 38.3333333333 -183.833333333 33 -173.5 c 128
 27.6666666667 -163.166666667 25 -153.666666667 25 -145 c 0
 25 -125 33.1666666667 -107.833333333 49.5 -93.5 c 128
 65.8333333333 -79.1666666667 85.6666666667 -72 109 -72 c 2
 806 -72 l 1
 814 -58 819.833333333 -37 823.5 -9 c 128
 827.166666667 19 829 54 829 96 c 0
 829 142 818.5 181.5 797.5 214.5 c 128
 776.5 247.5 751.333333333 264 722 264 c 0
 704 264 686.333333333 257 669 243 c 128
 651.666666667 229 637 210.333333333 625 187 c 1
 625 0 l 1
 565 0 l 1
 565 433 l 1
 350 433 l 2
 282 433 224 410.666666667 176 366 c 128
 128 321.333333333 104 267.333333333 104 204 c 0
 104 179.333333333 110.833333333 154.333333333 124.5 129 c 128
 138.166666667 103.666666667 157.333333333 80.6666666667 182 60 c 1
 174 74 167.833333333 87 163.5 99 c 128
 159.166666667 111 157 122 157 132 c 0
 157 172 169.833333333 206 195.5 234 c 128
 221.166666667 262 252.333333333 276 289 276 c 0
 326.333333333 276 357.666666667 262 383 234 c 128
 408.333333333 206 421 172 421 132 c 0
 421 92 408.333333333 58 383 30 c 128
 357.666666667 2 326.333333333 -12 289 -12 c 0
 222.333333333 -12 165.666666667 9 119 51 c 128
 72.3333333333 93 49 144 49 204 c 1
 49 204 l 1
85 -145 m 1
 85 -154.333333333 87.6666666667 -163 93 -171 c 128
 98.3333333333 -179 105.666666667 -186 115 -192 c 0
 149 -215.333333333 190.833333333 -233.166666667 240.5 -245.5 c 128
 290.166666667 -257.833333333 346.333333333 -264 409 -264 c 0
 499 -264 577.166666667 -251.333333333 643.5 -226 c 128
 709.833333333 -200.666666667 755.666666667 -165.333333333 781 -120 c 1
 109 -120 l 2
 102.333333333 -120 96.6666666667 -122.5 92 -127.5 c 128
 87.3333333333 -132.5 85 -138.333333333 85 -145 c 1
 85 -145 l 1
EndSplineSet
Fore
SplineSet
100 -167 m 0
 100 -115.814453125 147.081054688 -92.013671875 196 -91 c 2
 1167 -84 l 1
 1169.55664062 -58.5185546875 1173 -20.021484375 1173 23 c 2
 1173 552 l 1
 1190.29199219 555.639648438 1238.78125 560.139648438 1263 560 c 1
 1263 -137 l 1
 203 -137 l 2
 166.365234375 -137 152.872070312 -157.23046875 154 -177 c 0
 157.041992188 -220.909179688 300.508789062 -289.947265625 542 -290 c 0
 869.422851562 -290.067382812 939 -67.6630859375 939 111 c 0
 939 238.20703125 890.03125 293.881835938 830 295 c 0
 766.6875 296.1796875 730.7734375 252.642578125 729 209 c 1
 692 196 l 1
 695.389648438 287.595703125 768.4296875 347.432617188 854 347 c 0
 927.635742188 346.627929688 1037 289 1036 110 c 0
 1034.57226562 -150.860351562 885.09375 -343 545 -343 c 0
 349.200195312 -343 100 -290 100 -167 c 0
EndSplineSet
Refer: 8 2958 N 1 0 0 1 20 0 2
LCarets2: 1 0
Ligature2: "'psts' Post Base Substitutions lookup 3 subtable" tml_Nya tml_MatraU
Colour: ffffff
EndChar

StartChar: tml_TtU
Encoding: 80 -1 76
GlifName: tml_T_tU_
Width: 1267
VWidth: 0
Flags: HMW
LayerCount: 2
Back
SplineSet
131 192 m 1
 131 86 158.666666667 -4.5 214 -79.5 c 128
 269.333333333 -154.5 335.666666667 -192 413 -192 c 0
 473 -192 524 -166.166666667 566 -114.5 c 128
 608 -62.8333333333 629 -0.666666666667 629 72 c 0
 629 112 619.5 146 600.5 174 c 128
 581.5 202 559 216 533 216 c 0
 519 216 504.666666667 211.666666667 490 203 c 128
 475.333333333 194.333333333 461.666666667 182.666666667 449 168 c 1
 449 0 l 1
 389 0 l 1
 389 480 l 1
 449 480 l 1
 449 234 l 1
 463 244 478.166666667 251.5 494.5 256.5 c 128
 510.833333333 261.5 527.666666667 264 545 264 c 0
 585 264 619 245.166666667 647 207.5 c 128
 675 169.833333333 689 124.666666667 689 72 c 0
 689 -14.6666666667 662 -88.3333333333 608 -149 c 128
 554 -209.666666667 489 -240 413 -240 c 0
 319.666666667 -240 240.333333333 -197.666666667 175 -113 c 128
 109.666666667 -28.3333333333 77 73.3333333333 77 192 c 0
 77 352 109.666666667 480.166666667 175 576.5 c 128
 240.333333333 672.833333333 327.666666667 721 437 721 c 0
 549.666666667 721 640 677.333333333 708 590 c 128
 776 502.666666667 810 386 810 240 c 2
 810 0 l 1
 749 0 l 1
 749 240 l 2
 749 370 720.666666667 474.5 664 553.5 c 128
 607.333333333 632.5 531.666666667 672 437 672 c 0
 343.666666667 672 269.333333333 628.333333333 214 541 c 128
 158.666666667 453.666666667 131 337.333333333 131 192 c 1
 131 192 l 1
EndSplineSet
Fore
SplineSet
502 0 m 1
 504.556640625 25.4814453125 508 103.978515625 508 147 c 2
 508 552 l 1
 527.375976562 555.639648438 573.86328125 560.139648438 601 560 c 1
 601 3 l 1
 502 0 l 1
85 293 m 0
 86.03515625 615 301.174804688 896.194335938 670.116210938 896.194335938 c 0
 947.692382812 896.194335938 1188.20800781 673.53515625 1187.01269531 357.40234375 c 1
 1187 -1 l 1
 1113 -1 l 1
 1115.96191406 11.568359375 1121 69.478515625 1121 124 c 2
 1121 310 l 2
 1121.74707031 595.939453125 946.546875 800.891601562 629.521484375 797.466796875 c 0
 333.028320312 794.4375 147 579 147 302 c 0
 147 51.361328125 296.924804688 -175.568359375 561 -178 c 0
 743.721679688 -179.346679688 856.356445312 -89.86328125 857 95 c 1
 856.178710938 163.068359375 821.498046875 266.33984375 708 267.227539062 c 0
 669.334960938 267.53125 602.8125 243.956054688 570 163 c 1
 556 212 l 1
 583.130859375 290.9140625 653.211914062 333.282226562 739 332 c 0
 837.91015625 330.521484375 960.680664062 250.9140625 961 93 c 0
 961.334960938 -77.62109375 843.658203125 -245 566 -245 c 0
 234.583984375 -245 84.142578125 7.83984375 85 293 c 0
EndSplineSet
LCarets2: 1 0
Ligature2: "'psts' Post Base Substitutions lookup 3 subtable" tml_Tta tml_MatraU
EndChar

StartChar: tml_NnU
Encoding: 81 -1 77
GlifName: tml_N_nU_
Width: 2154
VWidth: 0
Flags: HMW
LayerCount: 2
Back
SplineSet
185 132 m 1
 185 105.333333333 192 82.6666666667 206 64 c 128
 220 45.3333333333 237 36 257 36 c 256
 277 36 294 45.5 308 64.5 c 128
 322 83.5 329 106 329 132 c 0
 329 158.666666667 322 181.5 308 200.5 c 128
 294 219.5 277 229 257 229 c 256
 237 229 220 219.5 206 200.5 c 128
 192 181.5 185 158.666666667 185 132 c 1
 185 132 l 1
473 192 m 1
 473 149.333333333 478.833333333 112.666666667 490.5 82 c 128
 502.166666667 51.3333333333 516.333333333 36 533 36 c 256
 549.666666667 36 563.833333333 51.1666666667 575.5 81.5 c 128
 587.166666667 111.833333333 593 148.666666667 593 192 c 0
 593 221.333333333 587.833333333 249.833333333 577.5 277.5 c 128
 567.166666667 305.166666667 552.333333333 330.666666667 533 354 c 1
 513.666666667 330.666666667 498.833333333 305.166666667 488.5 277.5 c 128
 478.166666667 249.833333333 473 221.333333333 473 192 c 1
 473 192 l 1
761 192 m 1
 761 149.333333333 766.833333333 112.666666667 778.5 82 c 128
 790.166666667 51.3333333333 804.333333333 36 821 36 c 256
 837.666666667 36 851.833333333 51.1666666667 863.5 81.5 c 128
 875.166666667 111.833333333 881 148.666666667 881 192 c 0
 881 223.333333333 875.833333333 253.333333333 865.5 282 c 128
 855.166666667 310.666666667 840.333333333 336.666666667 821 360 c 1
 801.666666667 336.666666667 786.833333333 310.666666667 776.5 282 c 128
 766.166666667 253.333333333 761 223.333333333 761 192 c 1
 761 192 l 1
953 480 m 1
 1016.33333333 480 1070.33333333 453 1115 399 c 128
 1159.66666667 345 1182 280 1182 204 c 0
 1182 152 1173.66666667 102.166666667 1157 54.5 c 128
 1140.33333333 6.83333333333 1116.33333333 -35.3333333333 1085 -72 c 1
 1253 -72 l 1
 1253 480 l 1
 1313 480 l 1
 1313 -120 l 1
 1037 -120 l 1
 985.666666667 -180.666666667 912.833333333 -227.833333333 818.5 -261.5 c 128
 724.166666667 -295.166666667 617 -312 497 -312 c 0
 419 -312 348 -302.833333333 284 -284.5 c 128
 220 -266.166666667 167 -239.333333333 125 -204 c 0
 110.333333333 -190.666666667 98.6666666667 -175.833333333 90 -159.5 c 128
 81.3333333333 -143.166666667 77 -126 77 -108 c 0
 77 -98 80.6666666667 -89.5 88 -82.5 c 128
 95.3333333333 -75.5 103.666666667 -72 113 -72 c 2
 1014 -72 l 1
 1049.33333333 -30.6666666667 1076 13.8333333333 1094 61.5 c 128
 1112 109.166666667 1121 156.666666667 1121 204 c 0
 1121 267.333333333 1104.5 321.333333333 1071.5 366 c 128
 1038.5 410.666666667 999 433 953 433 c 0
 939 433 923.833333333 430.333333333 907.5 425 c 128
 891.166666667 419.666666667 874.333333333 412 857 402 c 1
 884.333333333 370 905.166666667 337 919.5 303 c 128
 933.833333333 269 941 236 941 204 c 0
 941 144 929.166666667 93 905.5 51 c 128
 881.833333333 9 853.666666667 -12 821 -12 c 256
 788.333333333 -12 760.166666667 9 736.5 51 c 128
 712.833333333 93 701 144 701 204 c 0
 701 246 707.833333333 284.333333333 721.5 319 c 128
 735.166666667 353.666666667 754.333333333 381.333333333 779 402 c 1
 763 416 746.166666667 426.5 728.5 433.5 c 128
 710.833333333 440.5 693.666666667 444 677 444 c 256
 660.333333333 444 642.833333333 439.833333333 624.5 431.5 c 128
 606.166666667 423.166666667 587.666666667 411.333333333 569 396 c 1
 595.666666667 374 616.333333333 345.166666667 631 309.5 c 128
 645.666666667 273.833333333 653 234.666666667 653 192 c 0
 653 136 641.166666667 88 617.5 48 c 128
 593.833333333 8 565.666666667 -12 533 -12 c 256
 500.333333333 -12 472.166666667 8 448.5 48 c 128
 424.833333333 88 413 136 413 192 c 0
 413 230 419.833333333 266.833333333 433.5 302.5 c 128
 447.166666667 338.166666667 466.333333333 371.333333333 491 402 c 1
 475 416 455.166666667 426.5 431.5 433.5 c 128
 407.833333333 440.5 381.666666667 444 353 444 c 0
 283.666666667 444 224.333333333 420.666666667 175 374 c 128
 125.666666667 327.333333333 101 270.666666667 101 204 c 0
 101 168 106.833333333 135.333333333 118.5 106 c 128
 130.166666667 76.6666666667 146.333333333 53.3333333333 167 36 c 1
 157 52.6666666667 149.5 69.1666666667 144.5 85.5 c 128
 139.5 101.833333333 137 117.333333333 137 132 c 0
 137 172 148.833333333 206 172.5 234 c 128
 196.166666667 262 224.333333333 276 257 276 c 256
 289.666666667 276 317.833333333 262 341.5 234 c 128
 365.166666667 206 377 172 377 132 c 0
 377 92 363 58 335 30 c 128
 307 2 272.666666667 -12 232 -12 c 0
 182.666666667 -12 140.5 9 105.5 51 c 128
 70.5 93 53 144 53 204 c 0
 53 283.333333333 82.3333333333 351.166666667 141 407.5 c 128
 199.666666667 463.833333333 270.333333333 492 353 492 c 0
 391 492 425.333333333 487.5 456 478.5 c 128
 486.666666667 469.5 512.333333333 456 533 438 c 1
 553.666666667 455.333333333 576.5 468.666666667 601.5 478 c 128
 626.5 487.333333333 651.666666667 492 677 492 c 0
 705 492 731.833333333 487.5 757.5 478.5 c 128
 783.166666667 469.5 806.333333333 456 827 438 c 1
 843 452 861.833333333 462.5 883.5 469.5 c 128
 905.166666667 476.5 928.333333333 480 953 480 c 1
 953 480 l 1
161 -120 m 1
 154.333333333 -120 148.666666667 -121.833333333 144 -125.5 c 128
 139.333333333 -129.166666667 137 -133.333333333 137 -138 c 0
 137 -144 144.833333333 -152.833333333 160.5 -164.5 c 128
 176.166666667 -176.166666667 188.333333333 -185.333333333 197 -192 c 0
 225 -215.333333333 264.833333333 -233.166666667 316.5 -245.5 c 128
 368.166666667 -257.833333333 428.333333333 -264 497 -264 c 0
 593.666666667 -264 682.166666667 -251.5 762.5 -226.5 c 128
 842.833333333 -201.5 910.333333333 -166 965 -120 c 1
 161 -120 l 1
 161 -120 l 1
EndSplineSet
Fore
SplineSet
70 -175 m 0
 70 -318.538085938 487.01274845 -372.81457609 827 -371.498046875 c 0
 1313.9837267 -369.612304687 1764.37898713 -144.624929275 1766 243 c 0
 1766.88501748 449.563647389 1625.25156696 582 1444.00097656 582 c 0
 1229.08374566 582 1088.31634482 415.579258898 1088.00097656 189 c 0
 1087.82811977 62.1197835919 1145.8141291 -21.1826975128 1261.00097656 -21 c 0
 1386.41947757 -20.7869018396 1436.82894384 102.466924681 1437.00097656 208 c 0
 1437.32847227 404.419921875 1274.08240505 586.042410451 1035.0625 584.40234375 c 0
 808.521211976 582.745864589 652.316068304 408.3517394 652.000976562 185 c 0
 651.829101562 71.0548203656 702.260515264 -20.1852177593 816.000976562 -20 c 0
 932.89173969 -19.7968937655 1000.83796095 85.0080199445 1001.00097656 206 c 0
 1001.30561736 436.872070312 788.398568878 585.730243544 544.000976562 586 c 0
 332.936523438 586.231445312 142.426531939 447.301759256 141 224 c 0
 140.099609375 83.0576171875 236.833984424 -26.238314531 400 -26 c 0
 530.380859375 -25.8095703125 582.455308574 74.751951434 583 149 c 0
 583.66015625 238.987304688 515.931638406 296.412772408 433 297 c 0
 332.18359375 297.713867188 262.936060947 219.059561752 261.252929688 118 c 0
 260.15234375 51.91796875 283.970703125 31.0234375 304 9 c 1
 321 25 l 1
 305.935546875 50.80078125 299.917262201 71.4949946828 302 120 c 0
 304.918945312 187.979492188 357.694335373 222.147276025 406 222 c 0
 460.131835938 221.834960938 500.32353262 183.503904426 500 132 c 0
 499.669921875 79.4541015625 464.802734348 32.0186665571 389 32 c 0
 285.891601562 31.974609375 195.91082539 101.656247801 195 229 c 0
 193.6953125 411.41015625 362.003911362 532.244422693 541.000976562 529 c 0
 737.0078125 525.447265625 918.093635971 394.976563096 917.000976562 186 c 0
 916.542570153 102.903927365 875.47606434 40.0316442766 815.000976562 40 c 0
 756.627929688 39.9691833496 712.874871591 96.870727693 713.000976562 193 c 0
 713.272447005 418.240001493 870.843263517 528.204160618 1030.05273438 527.098632812 c 0
 1230.31214119 525.750976562 1349.9321859 369.850224254 1351.00097656 202 c 0
 1351.59162528 112.028065564 1314.60078644 39.0359020415 1253.00097656 39 c 0
 1197.83903702 38.966426209 1151.32001652 85.2679713552 1151.00097656 196 c 0
 1150.32715515 402.937861082 1269.63415059 527.199428952 1435.00097656 526 c 0
 1580.90332415 524.908458892 1673 414.7476516 1673 239 c 0
 1673 -127.677734375 1297.27507393 -303.441020457 829 -305.549804688 c 0
 481.381835938 -307.115234375 149.355538988 -254.432542874 144 -179 c 0
 142.59765625 -159.248046875 159.365234375 -146 196 -146 c 2
 1444 -146 l 1
 2059 -146 l 1
 2053.78125 -111.540039062 2053 -32.5419921875 2053 18 c 2
 2053 560 l 1
 2028.78125 560.139648438 1971.29199219 555.639648438 1954 552 c 1
 1954 58 l 2
 1954 20.77734375 1957.46484375 -51.373046875 1960 -84 c 1
 1932.08984375 -88.779296875 1752.30011441 -91.0575699992 1708 -91 c 2
 169 -89 l 2
 120.082195085 -88.9364291034 70 -123.814453125 70 -175 c 0
EndSplineSet
LCarets2: 1 0
Ligature2: "'psts' Post Base Substitutions lookup 3 subtable" tml_Nna tml_MatraU
Colour: ffffff
EndChar

StartChar: tml_TU
Encoding: 82 -1 78
GlifName: tml_T_U_
Width: 1262
VWidth: 0
Flags: HMW
LayerCount: 2
Back
SplineSet
214 264 m 1
 334 264 l 1
 334 433 l 1
 214 433 l 1
 214 264 l 1
 214 264 l 1
94 156 m 1
 94 123.333333333 106.833333333 95.1666666667 132.5 71.5 c 128
 158.166666667 47.8333333333 189.333333333 36 226 36 c 0
 255.333333333 36 280.666666667 45.5 302 64.5 c 128
 323.333333333 83.5 334 106 334 132 c 2
 334 216 l 1
 172 216 l 2
 150.666666667 216 132.333333333 210.333333333 117 199 c 128
 101.666666667 187.666666667 94 173.333333333 94 156 c 1
 94 156 l 1
82 -120 m 1
 74 -120 67 -122.5 61 -127.5 c 128
 55 -132.5 52 -138.333333333 52 -145 c 0
 52 -171.666666667 76.6666666667 -198.166666667 126 -224.5 c 128
 175.333333333 -250.833333333 224.333333333 -264 273 -264 c 0
 325 -264 373.666666667 -251.333333333 419 -226 c 128
 464.333333333 -200.666666667 499.666666667 -165.333333333 525 -120 c 1
 82 -120 l 1
 82 -120 l 1
4 -145 m 1
 4 -125 11.5 -107.833333333 26.5 -93.5 c 128
 41.5 -79.1666666667 60 -72 82 -72 c 2
 544 -72 l 1
 550 -56 554.5 -34.8333333333 557.5 -8.5 c 128
 560.5 17.8333333333 562 48.6666666667 562 84 c 0
 562 121.333333333 551.333333333 152.666666667 530 178 c 128
 508.666666667 203.333333333 483.333333333 216 454 216 c 2
 394 216 l 1
 394 132 l 2
 394 92 377.5 58 344.5 30 c 128
 311.5 2 272 -12 226 -12 c 0
 173.333333333 -12 128 4.5 90 37.5 c 128
 52 70.5 33 110 33 156 c 0
 33 185.333333333 44.8333333333 210.666666667 68.5 232 c 128
 92.1666666667 253.333333333 120.333333333 264 153 264 c 1
 153 480 l 1
 562 480 l 1
 562 433 l 1
 394 433 l 1
 394 264 l 1
 454 264 l 2
 500 264 539.5 246.333333333 572.5 211 c 128
 605.5 175.666666667 622 133.333333333 622 84 c 0
 622 48.6666666667 620.333333333 17.8333333333 617 -8.5 c 128
 613.666666667 -34.8333333333 609.333333333 -56 604 -72 c 1
 718 -72 l 1
 718 480 l 1
 778 480 l 1
 778 -120 l 1
 592 -120 l 1
 564.666666667 -178.666666667 522.166666667 -225.333333333 464.5 -260 c 128
 406.833333333 -294.666666667 343 -312 273 -312 c 0
 199 -312 135.666666667 -295.666666667 83 -263 c 128
 30.3333333333 -230.333333333 4 -191 4 -145 c 1
 4 -145 l 1
EndSplineSet
Fore
SplineSet
61 -167 m 4
 61 -290 273.799804688 -343 441 -343 c 4
 792.473632812 -343 930.01171875 -131.547851562 930 79 c 4
 929.990234375 246.287109375 839.31640625 324.377929688 698 326 c 13
 302 325 l 5
 187.477539062 322.458984375 117.055664062 268.076171875 115.533203125 164 c 4
 114.20703125 73.35546875 186.81640625 -23 355 -23 c 4
 521.107421875 -23 606.248046875 84.0673828125 609 223 c 5
 608 301 l 5
 608 511 l 5
 650.272460938 510.958984375 742.157226562 511.266601562 782 511 c 5
 780.404296875 528.333007812 773.4296875 559.666992188 768 570 c 5
 627.112304688 560.47265625 432.477539062 561.265625 266 561 c 5
 268.577148438 505.514648438 270.696289062 440.999023438 271 370 c 4
 271.213867188 320.028320312 264 291 264 291 c 5
 326 291 l 5
 326 364 l 6
 326 417 323.98828125 458.611328125 323.607421875 511 c 5
 366.984375 511.171875 434.008789062 511.69140625 516 511 c 5
 516 370 l 5
 514.934570312 301 l 5
 514.787109375 283 l 5
 514 223 l 6
 512.37890625 99.41796875 446.583984375 34.3564453125 345 34 c 4
 237.62109375 33.623046875 170 98.21875 170 167 c 4
 170 231.600585938 210.853515625 273 295 273 c 6
 529 273 l 5
 655 273 l 5
 788.142578125 271.78125 829 177.950195312 829 84 c 4
 829 -138.173828125 702.8828125 -288.08203125 445 -288 c 4
 231.31640625 -287.921875 117.586914062 -220.131835938 115 -177 c 4
 113.872070312 -160.196289062 127.365234375 -143 164 -143 c 6
 1162 -143 l 5
 1160.30761719 -89.79296875 1157.48242188 -85.501953125 1157 20 c 6
 1157 560 l 5
 1131.97363281 560.139648438 1081.86816406 555.639648438 1064 552 c 5
 1064 37 l 6
 1064 -7.572265625 1065.33300781 -62.986328125 1068 -78 c 5
 1038.95996094 -80.7021484375 1012.41503906 -87.361328125 920 -88 c 6
 157 -88 l 6
 108.081054688 -88 61 -115.814453125 61 -167 c 4
EndSplineSet
LCarets2: 1 0
Ligature2: "'psts' Post Base Substitutions lookup 3 subtable" tml_Ta tml_MatraU
Colour: ffffff
EndChar

StartChar: tml_NU
Encoding: 83 -1 79
GlifName: tml_N_U_
Width: 1263
VWidth: 0
Flags: HMW
AnchorPoint: "Anchor-0" 677 751 basechar 0
LayerCount: 2
Back
SplineSet
594 568 m 1
 599.4296875 556.673828125 606.404296875 530 608 511 c 1
 568.375 511.266601562 468.041015625 510.958984375 426 511 c 1
 426 0 l 1
 393.373046875 -0.12890625 359.6328125 -0.1416015625 332 0 c 1
 334 370 l 0
 334.70703125 433.681640625 335.791015625 466.51171875 335 511 c 1
 235.202148438 511.69140625 191.405273438 511.171875 138.607421875 511 c 1
 138.98828125 458.611328125 140 416.990234375 141 364 c 0
 144 205 141 0 141 0 c 1
 80 0 l 1
 80 0 88 136 87 370 c 0
 86.6962890625 442.938476562 84.5771484375 500.999023438 82 558 c 1
 221.075195312 558.265625 439.080078125 558.47265625 594 568 c 1
728 136 m 5
 728.138671875 -18.70703125 649.756835938 -158.459960938 365 -165.15234375 c 0
 224.501953125 -168.454101562 157.482421875 -160.306640625 113 -246 c 1
 139.15234375 -174 l 1
 149.229492188 -208 146.649414062 -226 155 -260 c 1
 133.735351562 -267.627929688 124.498046875 -267.370117188 100 -266.887695312 c 0
 76.6572265625 -266.427734375 68.2373046875 -245.458007812 68 -229 c 0
 66.6103515625 -132.537109375 196.588867188 -121.141601562 376 -117.868164062 c 0
 587.40234375 -114.010742188 632 -15 632 122 c 4
 632 238.005859375 587.031775334 296.932407053 529 298 c 4
 462.687220743 299.219936061 423.7734375 247.642578125 419 207 c 5
 384 202 l 5
 387.389648438 293.595703125 459.428710938 348.313476562 545 348 c 4
 646.635742188 347.627929688 728 272.951171875 728 136 c 5
EndSplineSet
Fore
SplineSet
110 -167 m 4
 110 -115.814453125 157.081054688 -92.013671875 206 -91 c 6
 1067 -84 l 5
 1069.55664062 -58.5185546875 1073 -20.021484375 1073 23 c 6
 1073 552 l 5
 1090.29199219 555.639648438 1138.78125 560.139648438 1163 560 c 5
 1163 -137 l 5
 213 -137 l 6
 176.365234375 -137 162.872070312 -157.23046875 164 -177 c 4
 166.571289062 -222.075195312 239.611328125 -292.946289062 452 -293 c 4
 779.422851562 -293.083007812 839 -69 839 111 c 4
 839 238.20703125 790.03125 293.881835938 730 295 c 4
 666.6875 296.1796875 630.7734375 252.642578125 629 209 c 5
 592 196 l 5
 595.389648438 287.595703125 668.4296875 347.432617188 754 347 c 4
 827.635742188 346.627929688 937 289 936 110 c 4
 934.54296875 -150.860351562 802.223632812 -343 445 -343 c 4
 280 -343 110 -290 110 -167 c 4
297 0 m 5
 297 0 305 136 304 370 c 4
 303.696289062 442.938476562 301.577148438 500.999023438 299 558 c 5
 438.075195312 558.265625 656.080078125 558.47265625 811 568 c 5
 816.4296875 556.673828125 823.404296875 530 825 511 c 5
 785.375 511.266601562 685.041015625 510.958984375 643 511 c 5
 643 0 l 5
 610.373046875 -0.12890625 576.6328125 -0.1416015625 549 0 c 5
 551 370 l 6
 551.70703125 433.681640625 552.791015625 466.51171875 552 511 c 5
 452.202148438 511.69140625 408.405273438 511.171875 355.607421875 511 c 5
 355.98828125 458.611328125 357 416.990234375 358 364 c 4
 361 205 358 0 358 0 c 5
 297 0 l 5
EndSplineSet
LCarets2: 1 0
Ligature2: "'psts' Post Base Substitutions lookup 3 subtable" tml_Na tml_MatraU
Colour: ffffff
EndChar

StartChar: tml_NnnU
Encoding: 84 -1 80
GlifName: tml_N_nnU_
Width: 1729
VWidth: 0
Flags: HMW
LayerCount: 2
Back
SplineSet
183 132 m 1
 183 108.666666667 191 88.8333333333 207 72.5 c 128
 223 56.1666666667 243 48 267 48 c 256
 290.333333333 48 310.166666667 56.3333333333 326.5 73 c 128
 342.833333333 89.6666666667 351 109.333333333 351 132 c 0
 351 158.666666667 342.833333333 181.5 326.5 200.5 c 128
 310.166666667 219.5 290.333333333 229 267 229 c 256
 243.666666667 229 223.833333333 219.5 207.5 200.5 c 128
 191.166666667 181.5 183 158.666666667 183 132 c 1
 183 132 l 1
507 192 m 1
 507 149.333333333 512.666666667 112.666666667 524 82 c 128
 535.333333333 51.3333333333 549.333333333 36 566 36 c 256
 582.666666667 36 597 51.1666666667 609 81.5 c 128
 621 111.833333333 627 148.666666667 627 192 c 0
 627 223.333333333 621.833333333 253.333333333 611.5 282 c 128
 601.166666667 310.666666667 586 336.666666667 566 360 c 1
 546.666666667 336.666666667 532 310.666666667 522 282 c 128
 512 253.333333333 507 223.333333333 507 192 c 1
 507 192 l 1
711 492 m 1
 771 492 822 462.833333333 864 404.5 c 128
 906 346.166666667 927 275.333333333 927 192 c 0
 927 146.666666667 920.833333333 101.5 908.5 56.5 c 128
 896.166666667 11.5 878 -31.3333333333 854 -72 c 1
 1011 -72 l 1
 1011 480 l 1
 1071 480 l 1
 1071 -120 l 1
 831 -120 l 1
 796.333333333 -179.333333333 745.833333333 -226.166666667 679.5 -260.5 c 128
 613.166666667 -294.833333333 539.666666667 -312 459 -312 c 0
 360.333333333 -312 275.666666667 -295 205 -261 c 128
 134.333333333 -227 99 -186 99 -138 c 0
 99 -120 107 -104.5 123 -91.5 c 128
 139 -78.5 159 -72 183 -72 c 2
 795 -72 l 1
 818.333333333 -30.6666666667 836.166666667 12.3333333333 848.5 57 c 128
 860.833333333 101.666666667 867 146.666666667 867 192 c 0
 867 261.333333333 851.666666667 320.666666667 821 370 c 128
 790.333333333 419.333333333 753.666666667 444 711 444 c 0
 694.333333333 444 676.666666667 439.833333333 658 431.5 c 128
 639.333333333 423.166666667 621 411.333333333 603 396 c 1
 629.666666667 374 650.333333333 345.166666667 665 309.5 c 128
 679.666666667 273.833333333 687 234.666666667 687 192 c 0
 687 136 675.166666667 88 651.5 48 c 128
 627.833333333 8 599.333333333 -12 566 -12 c 0
 533.333333333 -12 505.166666667 8 481.5 48 c 128
 457.833333333 88 446 136 446 192 c 0
 446 233.333333333 453.5 271 468.5 305 c 128
 483.5 339 504 367.666666667 530 391 c 1
 509.333333333 408.333333333 484.666666667 421.5 456 430.5 c 128
 427.333333333 439.5 396 444 362 444 c 0
 289.333333333 444 227.333333333 420.666666667 176 374 c 128
 124.666666667 327.333333333 99 270.666666667 99 204 c 0
 99 178.666666667 103.166666667 155.666666667 111.5 135 c 128
 119.833333333 114.333333333 131.333333333 97.3333333333 146 84 c 1
 142 91.3333333333 139.166666667 99 137.5 107 c 128
 135.833333333 115 135 123.333333333 135 132 c 0
 135 172 147.666666667 206 173 234 c 128
 198.333333333 262 229.666666667 276 267 276 c 256
 304.333333333 276 335.5 262 360.5 234 c 128
 385.5 206 398 172 398 132 c 0
 398 92 385.166666667 58 359.5 30 c 128
 333.833333333 2 303 -12 267 -12 c 0
 207 -12 156 9 114 51 c 128
 72 93 51 144 51 204 c 0
 51 283.333333333 81.1666666667 351.166666667 141.5 407.5 c 128
 201.833333333 463.833333333 275.333333333 492 362 492 c 0
 404 492 442.833333333 486.833333333 478.5 476.5 c 128
 514.166666667 466.166666667 543.333333333 451.666666667 566 433 c 1
 589.333333333 452.333333333 613.5 467 638.5 477 c 128
 663.5 487 687.666666667 492 711 492 c 1
 711 492 l 1
183 -120 m 1
 176.333333333 -120 170.5 -121.833333333 165.5 -125.5 c 128
 160.5 -129.166666667 158 -133.333333333 158 -138 c 0
 158 -172.666666667 187.333333333 -202.333333333 246 -227 c 128
 304.666666667 -251.666666667 375.666666667 -264 459 -264 c 0
 528.333333333 -264 590.333333333 -251.333333333 645 -226 c 128
 699.666666667 -200.666666667 739.666666667 -165.333333333 765 -120 c 1
 183 -120 l 1
 183 -120 l 1
EndSplineSet
Fore
SplineSet
90 -175 m 0
 90 -123.814453125 140 -89 189 -89 c 2
 1530 -84 l 1
 1527.46484375 -51.373046875 1524 20.77734375 1524 58 c 2
 1524 552 l 1
 1541.29199219 555.639648438 1598.78125 560.139648438 1623 560 c 1
 1623 18 l 2
 1623 -32.5419921875 1623.78125 -111.540039062 1629 -146 c 1
 1064 -146 l 1
 216 -146 l 2
 179.365234375 -146 162.59765625 -159.248046875 164 -179 c 0
 167.635742188 -254.432617188 393.025390625 -307.115234375 629 -305.549804688 c 0
 980.760742188 -303.479492188 1263 -130.944335938 1263 229 c 0
 1263 413.3203125 1164.07421875 530 1011.00097656 530 c 0
 867.115234375 530 717.239257812 437.045898438 717.000976562 198 c 0
 716.887695312 97.47265625 757.627929688 37.9677734375 816.000976562 38 c 0
 874.104492188 38.0322265625 916.538085938 101.765625 917.000976562 186 c 0
 918.094726562 384.9765625 729.0078125 521.447265625 533.000976562 525 c 0
 354.00390625 528.244140625 193.6953125 411.41015625 195 239 c 0
 195.963867188 111.65625 285.891601562 31.974609375 389 32 c 0
 464.802734375 32.0185546875 500.669921875 80.4541015625 501 133 c 0
 501.323242188 184.50390625 461.131835938 222.834960938 407 223 c 0
 358.694335938 223.147460938 304.918945312 187.979492188 302 120 c 0
 299.916992188 71.4951171875 305.935546875 50.80078125 321 25 c 1
 304 9 l 1
 283.970703125 31.0234375 260.15234375 51.91796875 261.252929688 118 c 0
 262.936523438 219.059570312 332.18359375 297.713867188 433 297 c 0
 515.931640625 296.413085938 583.66015625 238.987304688 583 149 c 0
 582.455078125 74.751953125 530.380859375 -25.8095703125 400 -26 c 0
 236.833984375 -26.23828125 140.057617188 93.0576171875 141 234 c 0
 142.42578125 447.301757812 324.950195312 582.55859375 536.000976562 585 c 0
 772.002929688 587.73046875 1004.30761719 436.872070312 1004.00097656 206 c 0
 1003.83886719 83.927734375 935.47265625 -18.7958984375 819.000976562 -19 c 0
 710.435546875 -19.1904296875 658.829101562 67.1533203125 659.000976562 185 c 0
 659.30859375 419.633789062 801.624023438 585.193359375 1020.00097656 586 c 0
 1218.56835938 586.778320312 1356.92382812 448.094726562 1356 233 c 0
 1354.70996094 -148.31640625 1034.66796875 -369.642578125 627 -371.498046875 c 0
 385.819335938 -372.639648438 90 -318.538085938 90 -175 c 0
EndSplineSet
LCarets2: 1 0
Ligature2: "'psts' Post Base Substitutions lookup 3 subtable" tml_Nnna tml_MatraU
Colour: ffffff
EndChar

StartChar: tml_MU
Encoding: 85 -1 81
GlifName: tml_M_U_
Width: 1316
VWidth: 0
Flags: HMW
LayerCount: 2
Back
SplineSet
82 560 m 1
 168 560 l 1
 168 0 l 1
 82 0 l 1
 82 560 l 1
627 0 m 1
 627 56 l 1
 752.944335938 57.62109375 799.423828125 171.159179688 801 281 c 0
 802.620117188 389.583984375 747.6875 517.107421875 626 518 c 0
 583.612304688 518.323242188 535.627929688 490.48828125 536 402 c 0
 533 30 l 1
 446 30 l 0
 450 389 l 0
 450.9609375 532.15625 527.0859375 587.373046875 623 588 c 0
 774.857421875 588.951171875 875.178710938 447.044921875 868 275 c 0
 861.416992188 104.600585938 769.213790216 0.479804566188 627 0 c 1
90 56 m 1
 221.318359375 53.5576171875 473.52734375 55.9345703125 632 56 c 1
 632 0 l 1
 90 0 l 1
 90 56 l 1
EndSplineSet
Fore
SplineSet
100.823242188 151 m 0
 103.428710938 367.278320312 231.2109375 531.977539062 338 602 c 1
 356.510742188 594.452148438 373.844726562 575.758789062 387 556 c 1
 254.267578125 468.306640625 160.11328125 326.321289062 158.772460938 154 c 0
 156.926757812 -56.017578125 305.293945312 -233.383789062 548 -235 c 0
 713.959960938 -236.31640625 823.3984375 -143.303710938 824 12 c 1
 912 13 l 17
 912.296875 -134.0078125 789.208007812 -295 557 -295 c 0
 250.034179688 -295 97.7392578125 -86.142578125 100.823242188 151 c 0
EndSplineSet
Refer: 25 2990 N 1 0 0 1 401 0 2
LCarets2: 1 0
Ligature2: "'psts' Post Base Substitutions lookup 3 subtable" tml_Ma tml_MatraU
Colour: ffffff
EndChar

StartChar: tml_RU
Encoding: 86 -1 82
GlifName: tml_R_U_
Width: 1215
VWidth: 0
Flags: HMW
LayerCount: 2
Back
SplineSet
609 -301 m 0
 896.862516243 -302.908130959 1076.86219892 -144.127124907 1077 86 c 4
 1077.07053122 194.850825755 1030.0003111 279.851016829 941 279 c 0
 883.677925858 278.416837993 841.920802696 234.038209293 837 186 c 1
 800 193 l 1
 809.01171875 291.220703125 883.523551673 350.417899289 974 349 c 0
 1079.24510657 347.35065407 1167.68651838 258.072422179 1168 94 c 0
 1168.45523447 -144.264120306 990.716577125 -378 625 -378 c 0
 239.430328911 -378 71.8287550234 -111.511749267 71 148 c 0
 70.2773785341 369.277133306 184.650674625 519.082384017 276 599 c 1
 317 559 l 1
 208.135251017 461.409587981 139 321.290652697 139 153 c 0
 139 -83.6930530025 303.945800638 -299.055587036 609 -301 c 0
EndSplineSet
Refer: 37 3006 N 1 0 0 1 340 0 2
Fore
SplineSet
90.8232421875 170 m 0
 93.2529296875 377.166992188 212.415039062 534.927734375 312 602 c 1
 330.510742188 594.452148438 347.844726562 575.758789062 361 556 c 1
 234.083007812 472.669921875 144.37109375 337.745117188 142.772460938 174 c 0
 140.495117188 -59.2333984375 323.5546875 -255.724609375 623 -258 c 0
 862.920898438 -259.823242188 1021.12988281 -131.036132812 1022 84 c 0
 1022.07128906 183.106445312 991.6328125 279.869140625 900 279 c 0
 844.880859375 278.477539062 812.731445312 245.038085938 812 186 c 1
 780 193 l 1
 786.701171875 289.33203125 839.646484375 339.498046875 923 339 c 0
 1026.62988281 338.380859375 1127.69140625 258.359375 1130 83 c 1
 1131.41503906 -107.442382812 959.436523438 -316 635 -316 c 0
 268.818359375 -316 87.79296875 -88.4169921875 90.8232421875 170 c 0
EndSplineSet
Refer: 37 3006 N 1 0 0 1 352 0 2
LCarets2: 1 0
Ligature2: "'psts' Post Base Substitutions lookup 3 subtable" tml_Ra tml_MatraU
Colour: ffffff
EndChar

